G75*
G70*
%OFA0B0*%
%FSLAX24Y24*%
%IPPOS*%
%LPD*%
%AMOC8*
5,1,8,0,0,1.08239X$1,22.5*
%
%ADD10C,0.0060*%
%ADD11C,0.0740*%
%ADD12C,0.0650*%
%ADD13R,0.0500X0.0250*%
%ADD14OC8,0.0520*%
%ADD15R,0.0315X0.0630*%
%ADD16R,0.0787X0.0394*%
%ADD17R,0.0472X0.0472*%
%ADD18R,0.0591X0.0866*%
%ADD19C,0.0240*%
%ADD20C,0.0400*%
%ADD21C,0.0760*%
%ADD22C,0.0160*%
%ADD23C,0.0120*%
%ADD24C,0.0020*%
D10*
X019030Y007423D02*
X019457Y007423D01*
X019244Y007423D02*
X019244Y006782D01*
X019675Y006889D02*
X019675Y007316D01*
X019781Y007423D01*
X019995Y007423D01*
X020102Y007316D01*
X020102Y006889D01*
X019995Y006782D01*
X019781Y006782D01*
X019675Y006889D01*
X020319Y006782D02*
X020319Y007423D01*
X020639Y007423D01*
X020746Y007316D01*
X020746Y007103D01*
X020639Y006996D01*
X020319Y006996D01*
D11*
X020500Y015752D03*
X020500Y016752D03*
X020500Y017752D03*
X020500Y018752D03*
X020500Y019752D03*
X020500Y020752D03*
X020500Y022752D03*
X020500Y023752D03*
X020500Y024752D03*
X020500Y025752D03*
X020500Y026752D03*
X020500Y027752D03*
X001500Y027752D03*
X001500Y026752D03*
X001500Y025752D03*
X001500Y024752D03*
X001500Y023752D03*
X001500Y022752D03*
X001500Y021752D03*
X001500Y020752D03*
X001500Y019252D03*
X001500Y018252D03*
X001500Y017252D03*
X001500Y016252D03*
X001500Y015252D03*
X001500Y014252D03*
X001500Y013252D03*
X001500Y012252D03*
D12*
X006500Y010502D03*
X006500Y009752D03*
X007500Y009752D03*
X007500Y010502D03*
X012750Y020252D03*
X012750Y021252D03*
X012750Y022752D03*
X012750Y023752D03*
D13*
X011500Y023252D03*
X011500Y022752D03*
X011500Y022252D03*
X011500Y021752D03*
X011500Y021252D03*
X011500Y020752D03*
X011500Y020252D03*
X011500Y019752D03*
X011500Y019252D03*
X011500Y018752D03*
X011500Y018252D03*
X011500Y017752D03*
X011500Y016752D03*
X011500Y016252D03*
X011500Y015752D03*
X011500Y015252D03*
X011500Y014752D03*
X011500Y014252D03*
X011500Y013752D03*
X011500Y013252D03*
X011500Y012752D03*
X011500Y012252D03*
X011500Y011752D03*
X011500Y011252D03*
X007500Y011252D03*
X007500Y011752D03*
X007500Y012252D03*
X007500Y012752D03*
X007500Y013252D03*
X007500Y013752D03*
X007500Y014252D03*
X007500Y014752D03*
X007500Y015252D03*
X007500Y015752D03*
X007500Y016252D03*
X007500Y016752D03*
X007500Y017752D03*
X007500Y018252D03*
X007500Y018752D03*
X007500Y019252D03*
X007500Y019752D03*
X007500Y020252D03*
X007500Y020752D03*
X007500Y021252D03*
X007500Y021752D03*
X007500Y022252D03*
X007500Y022752D03*
X007500Y023252D03*
D14*
X008500Y024002D03*
X011500Y024002D03*
X005750Y011252D03*
X002750Y011252D03*
D15*
G36*
X006014Y012209D02*
X005792Y011987D01*
X005348Y012431D01*
X005570Y012653D01*
X006014Y012209D01*
G37*
G36*
X006390Y012585D02*
X006168Y012363D01*
X005724Y012807D01*
X005946Y013029D01*
X006390Y012585D01*
G37*
G36*
X006766Y012960D02*
X006544Y012738D01*
X006100Y013182D01*
X006322Y013404D01*
X006766Y012960D01*
G37*
X012969Y019290D03*
X013500Y019290D03*
X014031Y019290D03*
D16*
X013500Y017794D03*
G36*
X005416Y013891D02*
X004861Y013336D01*
X004582Y013615D01*
X005137Y014170D01*
X005416Y013891D01*
G37*
D17*
X016837Y015252D03*
X017663Y015252D03*
X017663Y018752D03*
X016837Y018752D03*
X016837Y022252D03*
X017663Y022252D03*
X017663Y025752D03*
X016837Y025752D03*
X016837Y011252D03*
X017663Y011252D03*
D18*
X017860Y010252D03*
X017860Y009252D03*
X016640Y009252D03*
X016640Y010252D03*
X016640Y013252D03*
X016640Y014252D03*
X017860Y014252D03*
X017860Y013252D03*
X017860Y016752D03*
X017860Y017752D03*
X016640Y017752D03*
X016640Y016752D03*
X016640Y020252D03*
X016640Y021252D03*
X017860Y021252D03*
X017860Y020252D03*
X017860Y023752D03*
X017860Y024752D03*
X016640Y024752D03*
X016640Y023752D03*
D19*
X016250Y023752D01*
X016000Y024002D01*
X016000Y025252D01*
X014250Y027002D01*
X011250Y027002D01*
X011000Y026752D01*
X010500Y026752D01*
X010750Y026252D02*
X011250Y026252D01*
X011500Y026502D01*
X014000Y026502D01*
X015500Y025002D01*
X015500Y023252D01*
X016500Y022252D01*
X016750Y022252D01*
X016500Y021502D02*
X016500Y021252D01*
X016500Y021502D02*
X015000Y023002D01*
X015000Y024752D01*
X013750Y026002D01*
X011750Y026002D01*
X011500Y025752D01*
X011000Y025752D01*
X011250Y025252D02*
X011750Y025252D01*
X012000Y025502D01*
X013500Y025502D01*
X014500Y024502D01*
X014500Y022752D01*
X016000Y021252D01*
X016000Y020752D01*
X016500Y020252D01*
X015500Y019502D02*
X016250Y018752D01*
X016750Y018752D01*
X015500Y019502D02*
X015500Y021002D01*
X014000Y022502D01*
X014000Y024252D01*
X013250Y025002D01*
X012250Y025002D01*
X012000Y024752D01*
X011500Y024752D01*
X011500Y024002D02*
X012000Y024002D01*
X012500Y024502D01*
X013000Y024502D01*
X013500Y024002D01*
X013500Y022252D01*
X014000Y021752D01*
X014000Y019252D01*
X013500Y019252D02*
X013500Y021502D01*
X013000Y022002D01*
X012500Y022002D01*
X011750Y022752D01*
X011500Y022752D01*
X011500Y023252D02*
X012000Y023252D01*
X012500Y022752D01*
X012750Y022752D01*
X011750Y021752D02*
X012000Y021502D01*
X012000Y021002D01*
X012750Y020252D01*
X011750Y021752D02*
X011500Y021752D01*
X011500Y017752D02*
X011500Y016752D01*
X011500Y016252D02*
X015250Y016252D01*
X015750Y016752D01*
X016640Y016752D01*
X016837Y015252D02*
X015750Y015252D01*
X015250Y015752D01*
X011500Y015752D01*
X011500Y015252D02*
X014750Y015252D01*
X015750Y014252D01*
X016640Y014252D01*
X016640Y013252D02*
X015750Y013252D01*
X014250Y014752D01*
X011500Y014752D01*
X011500Y014252D02*
X012750Y014252D01*
X015750Y011252D01*
X016750Y011252D01*
X016640Y010252D02*
X015750Y010252D01*
X012250Y013752D01*
X011500Y013752D01*
X011500Y013252D02*
X011750Y013252D01*
X015750Y009252D01*
X016640Y009252D01*
X017750Y010252D02*
X017860Y010252D01*
X018000Y010252D01*
X011500Y011252D02*
X010500Y011252D01*
X010250Y011002D01*
X010250Y009002D01*
X008750Y007502D01*
X004500Y007502D01*
X003250Y008752D01*
X003250Y011252D01*
X002750Y011752D01*
X002750Y011252D01*
X002750Y011752D02*
X002750Y012752D01*
X002250Y013252D01*
X001500Y013252D01*
X001500Y014252D02*
X002250Y014252D01*
X003250Y013252D01*
X003250Y012002D01*
X003750Y011502D01*
X003750Y009002D01*
X004750Y008002D01*
X008500Y008002D01*
X009750Y009252D01*
X009750Y011502D01*
X010000Y011752D01*
X011500Y011752D01*
X011500Y012252D02*
X009750Y012252D01*
X009250Y011752D01*
X009250Y009502D01*
X008250Y008502D01*
X005000Y008502D01*
X004250Y009252D01*
X004250Y011752D01*
X003750Y012252D01*
X003750Y013752D01*
X002250Y015252D01*
X001500Y015252D01*
X001500Y016252D02*
X002250Y016252D01*
X004250Y014252D01*
X004250Y012502D01*
X004750Y012002D01*
X004750Y009502D01*
X005250Y009002D01*
X008000Y009002D01*
X008750Y009752D01*
X008750Y012002D01*
X008750Y012752D01*
X008250Y012502D02*
X008250Y011002D01*
X007750Y010502D01*
X007500Y010502D01*
X007500Y009752D01*
X006500Y009752D02*
X006500Y010502D01*
X007250Y011252D01*
X007500Y011252D01*
X007500Y011752D02*
X007000Y011752D01*
X006000Y012752D01*
X005500Y012502D02*
X006250Y011752D01*
X005750Y011252D01*
X007500Y012752D02*
X008000Y012752D01*
X008250Y012502D01*
X008750Y012002D02*
X009500Y012752D01*
X011500Y012752D01*
X007500Y021752D02*
X003500Y021752D01*
X001500Y023752D01*
X001500Y024752D02*
X004000Y022252D01*
X007500Y022252D01*
X007500Y022752D02*
X004500Y022752D01*
X001500Y025752D01*
X010000Y027752D02*
X010500Y027752D01*
X010750Y028002D01*
X014750Y028002D01*
X016750Y026002D01*
X016837Y025916D01*
X016837Y025752D01*
X016500Y025252D02*
X016250Y025502D01*
X016250Y025752D01*
X014500Y027502D01*
X011000Y027502D01*
X010750Y027252D01*
X010250Y027252D01*
X016500Y025252D02*
X016640Y025113D01*
X016640Y024752D01*
D20*
X017663Y025752D02*
X018000Y025416D01*
X018000Y017752D01*
X018000Y009252D01*
X007500Y023252D02*
X008250Y024002D01*
X008500Y024002D01*
D21*
X018000Y017752D02*
X020500Y017752D01*
D22*
X000980Y007748D02*
X000980Y006732D01*
X018607Y006732D01*
X018607Y007696D01*
X018609Y007717D01*
X018615Y007737D01*
X018623Y007757D01*
X018633Y007775D01*
X018646Y007791D01*
X018661Y007806D01*
X018678Y007819D01*
X018696Y007830D01*
X018715Y007838D01*
X018735Y007843D01*
X018756Y007846D01*
X020890Y007846D01*
X020890Y015393D01*
X020800Y015303D01*
X020605Y015222D01*
X020395Y015222D01*
X020200Y015303D01*
X020051Y015452D01*
X019970Y015647D01*
X019970Y015858D01*
X020051Y016053D01*
X020200Y016202D01*
X020322Y016252D01*
X020200Y016303D01*
X020051Y016452D01*
X019970Y016647D01*
X019970Y016858D01*
X020051Y017053D01*
X020200Y017202D01*
X020294Y017241D01*
X020289Y017243D01*
X020212Y017282D01*
X020142Y017333D01*
X020080Y017394D01*
X020030Y017464D01*
X019990Y017541D01*
X019964Y017624D01*
X019950Y017709D01*
X019950Y017732D01*
X020480Y017732D01*
X020480Y017772D01*
X019950Y017772D01*
X019950Y017796D01*
X019964Y017881D01*
X019990Y017963D01*
X020030Y018041D01*
X020080Y018111D01*
X020142Y018172D01*
X020212Y018223D01*
X020289Y018262D01*
X020294Y018264D01*
X020200Y018303D01*
X020051Y018452D01*
X019970Y018647D01*
X019970Y018858D01*
X020051Y019053D01*
X020200Y019202D01*
X020322Y019252D01*
X020200Y019303D01*
X020051Y019452D01*
X019970Y019647D01*
X019970Y019858D01*
X020051Y020053D01*
X020200Y020202D01*
X020322Y020252D01*
X020200Y020303D01*
X020051Y020452D01*
X019970Y020647D01*
X019970Y020858D01*
X020051Y021053D01*
X020200Y021202D01*
X020395Y021282D01*
X020605Y021282D01*
X020800Y021202D01*
X020890Y021112D01*
X020890Y022393D01*
X020800Y022303D01*
X020605Y022222D01*
X020395Y022222D01*
X020200Y022303D01*
X020051Y022452D01*
X019970Y022647D01*
X019970Y022858D01*
X020051Y023053D01*
X020200Y023202D01*
X020322Y023252D01*
X020200Y023303D01*
X020051Y023452D01*
X019970Y023647D01*
X019970Y023858D01*
X020051Y024053D01*
X020200Y024202D01*
X020322Y024252D01*
X020200Y024303D01*
X020051Y024452D01*
X019970Y024647D01*
X019970Y024858D01*
X020051Y025053D01*
X020200Y025202D01*
X020322Y025252D01*
X020200Y025303D01*
X020051Y025452D01*
X019970Y025647D01*
X019970Y025858D01*
X020051Y026053D01*
X020200Y026202D01*
X020322Y026252D01*
X020200Y026303D01*
X020051Y026452D01*
X019970Y026647D01*
X019970Y026858D01*
X020051Y027053D01*
X020200Y027202D01*
X020322Y027252D01*
X020200Y027303D01*
X020051Y027452D01*
X019970Y027647D01*
X019970Y027858D01*
X020051Y028053D01*
X020200Y028202D01*
X020395Y028282D01*
X020605Y028282D01*
X020800Y028202D01*
X020890Y028112D01*
X020890Y029268D01*
X019507Y029268D01*
X019553Y029189D01*
X019630Y028901D01*
X019630Y028604D01*
X019553Y028316D01*
X019404Y028059D01*
X019194Y027848D01*
X018936Y027699D01*
X018649Y027622D01*
X018351Y027622D01*
X018064Y027699D01*
X017806Y027848D01*
X017596Y028059D01*
X017447Y028316D01*
X017370Y028604D01*
X017370Y028901D01*
X017447Y029189D01*
X017493Y029268D01*
X000980Y029268D01*
X000980Y027882D01*
X001051Y028053D01*
X001200Y028202D01*
X001395Y028282D01*
X001605Y028282D01*
X001800Y028202D01*
X001949Y028053D01*
X002030Y027858D01*
X002030Y027647D01*
X001949Y027452D01*
X001800Y027303D01*
X001678Y027252D01*
X001800Y027202D01*
X001949Y027053D01*
X002030Y026858D01*
X002030Y026647D01*
X001949Y026452D01*
X001800Y026303D01*
X001678Y026252D01*
X001800Y026202D01*
X001949Y026053D01*
X002030Y025858D01*
X002030Y025647D01*
X002022Y025627D01*
X004616Y023032D01*
X007119Y023032D01*
X007090Y023061D01*
X007090Y023444D01*
X007184Y023537D01*
X007276Y023537D01*
X007945Y024206D01*
X008046Y024308D01*
X008178Y024362D01*
X008266Y024362D01*
X008326Y024422D01*
X008674Y024422D01*
X008920Y024176D01*
X008920Y023828D01*
X008674Y023582D01*
X008339Y023582D01*
X007910Y023153D01*
X007910Y023061D01*
X007851Y023002D01*
X007910Y022944D01*
X007910Y022561D01*
X007851Y022502D01*
X007910Y022444D01*
X007910Y022061D01*
X007851Y022002D01*
X007910Y021944D01*
X008102Y021944D01*
X007910Y021944D02*
X007910Y021752D01*
X009010Y022852D01*
X009010Y027159D01*
X009107Y027457D01*
X009107Y027457D01*
X009291Y027711D01*
X009291Y027711D01*
X009291Y027711D01*
X009545Y027895D01*
X009545Y027895D01*
X009843Y027992D01*
X009848Y027992D01*
X009944Y028032D01*
X010384Y028032D01*
X010591Y028240D01*
X010694Y028282D01*
X014806Y028282D01*
X014909Y028240D01*
X016987Y026161D01*
X017000Y026149D01*
X017139Y026149D01*
X017233Y026055D01*
X017233Y025450D01*
X017139Y025356D01*
X016792Y025356D01*
X016803Y025345D01*
X017001Y025345D01*
X017095Y025252D01*
X017095Y024253D01*
X017094Y024252D01*
X017095Y024252D01*
X017095Y023253D01*
X017001Y023159D01*
X016278Y023159D01*
X016184Y023253D01*
X016184Y023476D01*
X016091Y023515D01*
X015841Y023765D01*
X015780Y023826D01*
X015780Y023368D01*
X016517Y022631D01*
X016534Y022649D01*
X017139Y022649D01*
X017233Y022555D01*
X017233Y021950D01*
X017139Y021856D01*
X016542Y021856D01*
X016553Y021845D01*
X017001Y021845D01*
X017095Y021752D01*
X017095Y020753D01*
X017094Y020752D01*
X017095Y020752D01*
X017095Y019753D01*
X017001Y019659D01*
X016278Y019659D01*
X016184Y019753D01*
X016184Y020172D01*
X015780Y020576D01*
X015780Y019618D01*
X016366Y019032D01*
X016440Y019032D01*
X016440Y019055D01*
X016534Y019149D01*
X017139Y019149D01*
X017233Y019055D01*
X017233Y018450D01*
X017139Y018356D01*
X016534Y018356D01*
X016440Y018450D01*
X016440Y018472D01*
X016194Y018472D01*
X016091Y018515D01*
X016013Y018594D01*
X015263Y019344D01*
X015220Y019447D01*
X015220Y020886D01*
X014267Y021839D01*
X014280Y021808D01*
X014280Y019740D01*
X014349Y019671D01*
X014349Y018909D01*
X014298Y018858D01*
X014374Y018676D01*
X014374Y018329D01*
X014241Y018007D01*
X014054Y017820D01*
X014054Y017531D01*
X013960Y017437D01*
X013040Y017437D01*
X012946Y017531D01*
X012946Y017820D01*
X012759Y018007D01*
X012626Y018329D01*
X012626Y018676D01*
X012702Y018858D01*
X012651Y018909D01*
X012651Y019671D01*
X012745Y019765D01*
X013192Y019765D01*
X013220Y019737D01*
X013220Y020120D01*
X013161Y019978D01*
X013025Y019841D01*
X012846Y019767D01*
X012654Y019767D01*
X012475Y019841D01*
X012339Y019978D01*
X012265Y020156D01*
X012265Y020341D01*
X011910Y020696D01*
X011910Y020561D01*
X011851Y020502D01*
X011910Y020444D01*
X011910Y020061D01*
X011851Y020002D01*
X011910Y019944D01*
X011910Y019561D01*
X011851Y019502D01*
X011910Y019444D01*
X011910Y019061D01*
X011851Y019002D01*
X011910Y018944D01*
X011910Y018561D01*
X011851Y018502D01*
X011910Y018444D01*
X011910Y018061D01*
X011851Y018002D01*
X011910Y017944D01*
X011910Y017561D01*
X011816Y017467D01*
X011780Y017467D01*
X011780Y017037D01*
X011816Y017037D01*
X011910Y016944D01*
X011910Y016561D01*
X011881Y016532D01*
X015134Y016532D01*
X015591Y016990D01*
X015694Y017032D01*
X016184Y017032D01*
X016184Y017252D01*
X016185Y017252D01*
X016184Y017253D01*
X016184Y018252D01*
X016278Y018345D01*
X017001Y018345D01*
X017095Y018252D01*
X017095Y017253D01*
X017094Y017252D01*
X017095Y017252D01*
X017095Y016253D01*
X017001Y016159D01*
X016278Y016159D01*
X016184Y016253D01*
X016184Y016472D01*
X015866Y016472D01*
X015487Y016094D01*
X015409Y016015D01*
X015378Y016002D01*
X015409Y015990D01*
X015487Y015911D01*
X015487Y015911D01*
X015866Y015532D01*
X016440Y015532D01*
X016440Y015555D01*
X016534Y015649D01*
X017139Y015649D01*
X017233Y015555D01*
X017233Y014950D01*
X017139Y014856D01*
X016534Y014856D01*
X016440Y014950D01*
X016440Y014972D01*
X015694Y014972D01*
X015591Y015015D01*
X015134Y015472D01*
X014926Y015472D01*
X014987Y015411D01*
X015866Y014532D01*
X016184Y014532D01*
X016184Y014752D01*
X016278Y014845D01*
X017001Y014845D01*
X017095Y014752D01*
X017095Y013753D01*
X017094Y013752D01*
X017095Y013752D01*
X017095Y012753D01*
X017001Y012659D01*
X016278Y012659D01*
X016184Y012753D01*
X016184Y012972D01*
X015694Y012972D01*
X015591Y013015D01*
X015513Y013094D01*
X014134Y014472D01*
X012926Y014472D01*
X015866Y011532D01*
X016440Y011532D01*
X016440Y011555D01*
X016534Y011649D01*
X017139Y011649D01*
X017233Y011555D01*
X017233Y010950D01*
X017139Y010856D01*
X016534Y010856D01*
X016440Y010950D01*
X016440Y010972D01*
X015694Y010972D01*
X015591Y011015D01*
X015513Y011094D01*
X012634Y013972D01*
X012426Y013972D01*
X015866Y010532D01*
X016184Y010532D01*
X016184Y010752D01*
X016278Y010845D01*
X017001Y010845D01*
X017095Y010752D01*
X017095Y009753D01*
X017094Y009752D01*
X017095Y009752D01*
X017095Y008753D01*
X017001Y008659D01*
X016278Y008659D01*
X016184Y008753D01*
X016184Y008972D01*
X015694Y008972D01*
X015591Y009015D01*
X011910Y012696D01*
X011910Y012561D01*
X011851Y012502D01*
X011910Y012444D01*
X011910Y012061D01*
X011851Y012002D01*
X011910Y011944D01*
X011910Y011561D01*
X011851Y011502D01*
X011910Y011444D01*
X011910Y011061D01*
X011816Y010967D01*
X011184Y010967D01*
X011179Y010972D01*
X010616Y010972D01*
X010530Y010886D01*
X010530Y008947D01*
X010878Y008947D01*
X010868Y008877D02*
X010934Y008418D01*
X011127Y007995D01*
X011432Y007644D01*
X011822Y007393D01*
X011822Y007393D01*
X012268Y007262D01*
X017298Y007262D01*
X017386Y007299D01*
X017453Y007366D01*
X017490Y007455D01*
X017490Y007550D01*
X017453Y007638D01*
X017386Y007706D01*
X017298Y007742D01*
X015740Y007742D01*
X015740Y007762D01*
X016548Y007762D01*
X016636Y007799D01*
X016703Y007866D01*
X016740Y007955D01*
X016740Y008050D01*
X016703Y008138D01*
X016636Y008206D01*
X016548Y008242D01*
X014990Y008242D01*
X014990Y008262D01*
X015548Y008262D01*
X015636Y008299D01*
X015703Y008366D01*
X015740Y008455D01*
X015740Y008550D01*
X015703Y008638D01*
X015636Y008706D01*
X015548Y008742D01*
X013992Y008742D01*
X014026Y008928D01*
X013977Y009369D01*
X013977Y009369D01*
X013803Y009778D01*
X013518Y010119D01*
X013148Y010364D01*
X012722Y010492D01*
X012268Y010492D01*
X011822Y010362D01*
X011432Y010110D01*
X011432Y010110D01*
X011127Y009759D01*
X010934Y009337D01*
X010868Y008877D01*
X010881Y008788D02*
X010432Y008788D01*
X010409Y008765D02*
X010487Y008844D01*
X010530Y008947D01*
X010530Y009105D02*
X010901Y009105D01*
X010924Y009264D02*
X010530Y009264D01*
X010530Y009422D02*
X010973Y009422D01*
X011046Y009581D02*
X010530Y009581D01*
X010530Y009739D02*
X011118Y009739D01*
X011127Y009759D02*
X011127Y009759D01*
X011247Y009898D02*
X010530Y009898D01*
X010530Y010056D02*
X011385Y010056D01*
X011594Y010215D02*
X010530Y010215D01*
X010530Y010373D02*
X011863Y010373D01*
X011822Y010362D02*
X011822Y010362D01*
X011856Y011007D02*
X013599Y011007D01*
X013758Y010849D02*
X010530Y010849D01*
X010530Y010690D02*
X013916Y010690D01*
X014075Y010532D02*
X010530Y010532D01*
X010030Y011178D02*
X010030Y011386D01*
X010116Y011472D01*
X010324Y011472D01*
X010263Y011411D01*
X010030Y011178D01*
X010030Y011324D02*
X010176Y011324D01*
X009030Y012678D02*
X009030Y012808D01*
X008987Y012911D01*
X008909Y012990D01*
X008806Y013032D01*
X008694Y013032D01*
X008591Y012990D01*
X008513Y012911D01*
X008470Y012808D01*
X008470Y012678D01*
X008409Y012740D01*
X008159Y012990D01*
X008056Y013032D01*
X007881Y013032D01*
X007910Y013061D01*
X007910Y013444D01*
X007851Y013502D01*
X007910Y013561D01*
X007910Y013944D01*
X007851Y014002D01*
X007910Y014061D01*
X007910Y014444D01*
X007851Y014502D01*
X007910Y014561D01*
X007910Y014944D01*
X007851Y015002D01*
X007910Y015061D01*
X007910Y015444D01*
X007851Y015502D01*
X007910Y015561D01*
X007910Y015944D01*
X007851Y016002D01*
X007910Y016061D01*
X007910Y016444D01*
X007851Y016502D01*
X007910Y016561D01*
X007910Y016944D01*
X007816Y017037D01*
X007304Y017037D01*
X007240Y017102D01*
X007240Y017467D01*
X007816Y017467D01*
X007910Y017561D01*
X007910Y017944D01*
X007851Y018002D01*
X007910Y018061D01*
X007910Y018073D01*
X007953Y018116D01*
X009260Y019423D01*
X009260Y014955D01*
X009297Y014866D01*
X009364Y014799D01*
X011090Y013073D01*
X011090Y013061D01*
X011119Y013032D01*
X009444Y013032D01*
X009341Y012990D01*
X009263Y012911D01*
X009030Y012678D01*
X009030Y012751D02*
X009103Y012751D01*
X008988Y012909D02*
X009261Y012909D01*
X008512Y012909D02*
X008239Y012909D01*
X008397Y012751D02*
X008470Y012751D01*
X007970Y012386D02*
X007970Y011118D01*
X007921Y011069D01*
X007930Y011104D01*
X007930Y011252D01*
X007500Y011252D01*
X007500Y011252D01*
X007070Y011252D01*
X007070Y011104D01*
X007082Y011058D01*
X007106Y011017D01*
X007139Y010983D01*
X007181Y010960D01*
X007226Y010947D01*
X007307Y010947D01*
X007225Y010914D01*
X007089Y010777D01*
X007015Y010599D01*
X007015Y010406D01*
X007089Y010228D01*
X007189Y010127D01*
X007089Y010027D01*
X007015Y009849D01*
X007015Y009656D01*
X007089Y009478D01*
X007225Y009341D01*
X007367Y009282D01*
X006688Y009282D01*
X006694Y009284D01*
X006765Y009320D01*
X006829Y009367D01*
X006885Y009423D01*
X006932Y009488D01*
X006968Y009559D01*
X006993Y009634D01*
X007005Y009713D01*
X007005Y009752D01*
X006500Y009752D01*
X005995Y009752D01*
X005995Y009713D01*
X006007Y009634D01*
X006032Y009559D01*
X006068Y009488D01*
X006115Y009423D01*
X006171Y009367D01*
X006235Y009320D01*
X006306Y009284D01*
X006312Y009282D01*
X005366Y009282D01*
X005030Y009618D01*
X005030Y012058D01*
X004987Y012161D01*
X004530Y012618D01*
X004530Y013439D01*
X004626Y013343D01*
X004626Y013079D01*
X004759Y012757D01*
X005005Y012512D01*
X005187Y012436D01*
X005187Y012365D01*
X005726Y011826D01*
X005781Y011826D01*
X005854Y011752D01*
X005774Y011672D01*
X005576Y011672D01*
X005330Y011426D01*
X005330Y011078D01*
X005576Y010832D01*
X005924Y010832D01*
X006170Y011078D01*
X006170Y011276D01*
X006409Y011515D01*
X006487Y011594D01*
X006530Y011697D01*
X006530Y011808D01*
X006517Y011839D01*
X006841Y011515D01*
X006944Y011472D01*
X007097Y011472D01*
X007082Y011447D01*
X007070Y011401D01*
X007070Y011252D01*
X007500Y011252D01*
X007500Y011252D01*
X007930Y011252D01*
X007930Y011401D01*
X007918Y011447D01*
X007894Y011488D01*
X007865Y011517D01*
X007910Y011561D01*
X007910Y011944D01*
X007851Y012002D01*
X007910Y012061D01*
X007910Y012444D01*
X007881Y012472D01*
X007884Y012472D01*
X007970Y012386D01*
X007923Y012434D02*
X007910Y012434D01*
X007910Y012275D02*
X007970Y012275D01*
X007970Y012117D02*
X007910Y012117D01*
X007895Y011958D02*
X007970Y011958D01*
X007970Y011800D02*
X007910Y011800D01*
X007910Y011641D02*
X007970Y011641D01*
X007970Y011483D02*
X007897Y011483D01*
X007930Y011324D02*
X007970Y011324D01*
X007970Y011166D02*
X007930Y011166D01*
X007808Y010957D02*
X007768Y010916D01*
X007693Y010947D01*
X007774Y010947D01*
X007808Y010957D01*
X008175Y010532D02*
X008470Y010532D01*
X008470Y010690D02*
X008334Y010690D01*
X008470Y010826D02*
X008470Y009868D01*
X007884Y009282D01*
X007633Y009282D01*
X007775Y009341D01*
X007911Y009478D01*
X007985Y009656D01*
X007985Y009849D01*
X007911Y010027D01*
X007811Y010127D01*
X007911Y010228D01*
X007939Y010296D01*
X007987Y010344D01*
X008470Y010826D01*
X008470Y010373D02*
X008017Y010373D01*
X007898Y010215D02*
X008470Y010215D01*
X008470Y010056D02*
X007882Y010056D01*
X007965Y009898D02*
X008470Y009898D01*
X008341Y009739D02*
X007985Y009739D01*
X007954Y009581D02*
X008183Y009581D01*
X008024Y009422D02*
X007856Y009422D01*
X007144Y009422D02*
X006884Y009422D01*
X006975Y009581D02*
X007046Y009581D01*
X007015Y009739D02*
X007005Y009739D01*
X007005Y009752D02*
X007005Y009792D01*
X006993Y009871D01*
X006968Y009946D01*
X006932Y010017D01*
X006885Y010081D01*
X006839Y010127D01*
X006885Y010173D01*
X006932Y010238D01*
X006968Y010309D01*
X006993Y010384D01*
X007005Y010463D01*
X007005Y010502D01*
X006500Y010502D01*
X006500Y009752D01*
X006500Y009752D01*
X006500Y009752D01*
X005995Y009752D01*
X005995Y009792D01*
X006007Y009871D01*
X006032Y009946D01*
X006068Y010017D01*
X006115Y010081D01*
X006161Y010127D01*
X006115Y010173D01*
X006068Y010238D01*
X006032Y010309D01*
X006007Y010384D01*
X005995Y010463D01*
X005995Y010502D01*
X006500Y010502D01*
X006500Y010502D01*
X006500Y010257D01*
X006500Y009752D01*
X007005Y009752D01*
X006984Y009898D02*
X007035Y009898D01*
X007118Y010056D02*
X006903Y010056D01*
X006915Y010215D02*
X007102Y010215D01*
X007028Y010373D02*
X006989Y010373D01*
X007005Y010502D02*
X007005Y010542D01*
X006993Y010621D01*
X006968Y010696D01*
X006932Y010767D01*
X006885Y010831D01*
X006829Y010888D01*
X006765Y010934D01*
X006694Y010970D01*
X006618Y010995D01*
X006540Y011007D01*
X006500Y011007D01*
X006460Y011007D01*
X006382Y010995D01*
X006306Y010970D01*
X006235Y010934D01*
X006171Y010888D01*
X006115Y010831D01*
X006068Y010767D01*
X006032Y010696D01*
X006007Y010621D01*
X005995Y010542D01*
X005995Y010502D01*
X006500Y010502D01*
X006500Y010502D01*
X006500Y010502D01*
X007005Y010502D01*
X007005Y010532D02*
X007015Y010532D01*
X007053Y010690D02*
X006970Y010690D01*
X006868Y010849D02*
X007161Y010849D01*
X007115Y011007D02*
X006099Y011007D01*
X006132Y010849D02*
X005940Y010849D01*
X006030Y010690D02*
X005030Y010690D01*
X005030Y010532D02*
X005995Y010532D01*
X006011Y010373D02*
X005030Y010373D01*
X005030Y010215D02*
X006085Y010215D01*
X006097Y010056D02*
X005030Y010056D01*
X005030Y009898D02*
X006016Y009898D01*
X005995Y009739D02*
X005030Y009739D01*
X005067Y009581D02*
X006025Y009581D01*
X006116Y009422D02*
X005226Y009422D01*
X006500Y009752D02*
X006500Y009752D01*
X006500Y009898D02*
X006500Y009898D01*
X006500Y010056D02*
X006500Y010056D01*
X006500Y010215D02*
X006500Y010215D01*
X006500Y010373D02*
X006500Y010373D01*
X006500Y010502D02*
X006500Y011007D01*
X006500Y010502D01*
X006500Y010502D01*
X006500Y010532D02*
X006500Y010532D01*
X006500Y010690D02*
X006500Y010690D01*
X006500Y010849D02*
X006500Y010849D01*
X006170Y011166D02*
X007070Y011166D01*
X007070Y011324D02*
X006218Y011324D01*
X006376Y011483D02*
X006919Y011483D01*
X006715Y011641D02*
X006507Y011641D01*
X006409Y011515D02*
X006409Y011515D01*
X006530Y011800D02*
X006557Y011800D01*
X007031Y012117D02*
X007090Y012117D01*
X007090Y012061D02*
X007119Y012032D01*
X007116Y012032D01*
X006571Y012577D01*
X006610Y012577D01*
X006927Y012894D01*
X006927Y013026D01*
X006388Y013565D01*
X006316Y013565D01*
X006241Y013747D01*
X005995Y013993D01*
X005674Y014126D01*
X005409Y014126D01*
X005204Y014331D01*
X005072Y014331D01*
X004530Y013789D01*
X004530Y014308D01*
X004487Y014411D01*
X002487Y016411D01*
X002409Y016490D01*
X002306Y016532D01*
X001958Y016532D01*
X001949Y016553D01*
X001800Y016702D01*
X001678Y016752D01*
X001800Y016803D01*
X001949Y016952D01*
X002030Y017147D01*
X002030Y017358D01*
X001949Y017553D01*
X001800Y017702D01*
X001678Y017752D01*
X001800Y017803D01*
X001949Y017952D01*
X002030Y018147D01*
X002030Y018358D01*
X001949Y018553D01*
X001800Y018702D01*
X001678Y018752D01*
X001800Y018803D01*
X001949Y018952D01*
X002030Y019147D01*
X002030Y019358D01*
X001949Y019553D01*
X001800Y019702D01*
X001605Y019782D01*
X001395Y019782D01*
X001200Y019702D01*
X001051Y019553D01*
X000980Y019382D01*
X000980Y020623D01*
X001051Y020452D01*
X001200Y020303D01*
X001395Y020222D01*
X001605Y020222D01*
X001800Y020303D01*
X001949Y020452D01*
X002030Y020647D01*
X002030Y020858D01*
X001949Y021053D01*
X001800Y021202D01*
X001678Y021252D01*
X001800Y021303D01*
X001949Y021452D01*
X002030Y021647D01*
X002030Y021858D01*
X001949Y022053D01*
X001800Y022202D01*
X001678Y022252D01*
X001800Y022303D01*
X001949Y022452D01*
X002030Y022647D01*
X002030Y022826D01*
X003341Y021515D01*
X003444Y021472D01*
X007119Y021472D01*
X007090Y021444D01*
X007090Y021432D01*
X005364Y019706D01*
X005297Y019638D01*
X005260Y019550D01*
X005260Y014955D01*
X005297Y014866D01*
X007090Y013073D01*
X007090Y013061D01*
X007149Y013002D01*
X007090Y012944D01*
X007090Y012561D01*
X007149Y012502D01*
X007090Y012444D01*
X007090Y012061D01*
X007090Y012275D02*
X006873Y012275D01*
X006714Y012434D02*
X007090Y012434D01*
X007090Y012592D02*
X006625Y012592D01*
X006784Y012751D02*
X007090Y012751D01*
X007090Y012909D02*
X006927Y012909D01*
X006885Y013068D02*
X007090Y013068D01*
X006937Y013226D02*
X006727Y013226D01*
X006778Y013385D02*
X006568Y013385D01*
X006620Y013543D02*
X006410Y013543D01*
X006461Y013702D02*
X006259Y013702D01*
X006303Y013860D02*
X006128Y013860D01*
X006144Y014019D02*
X005933Y014019D01*
X005986Y014177D02*
X005358Y014177D01*
X005510Y014653D02*
X004245Y014653D01*
X004087Y014811D02*
X005352Y014811D01*
X005260Y014970D02*
X003928Y014970D01*
X003770Y015128D02*
X005260Y015128D01*
X005260Y015287D02*
X003611Y015287D01*
X003453Y015445D02*
X005260Y015445D01*
X005260Y015604D02*
X003294Y015604D01*
X003136Y015762D02*
X005260Y015762D01*
X005260Y015921D02*
X002977Y015921D01*
X002819Y016079D02*
X005260Y016079D01*
X005260Y016238D02*
X002660Y016238D01*
X002502Y016396D02*
X005260Y016396D01*
X005260Y016555D02*
X001947Y016555D01*
X001772Y016713D02*
X005260Y016713D01*
X005260Y016872D02*
X001869Y016872D01*
X001982Y017030D02*
X005260Y017030D01*
X005260Y017189D02*
X002030Y017189D01*
X002030Y017347D02*
X005260Y017347D01*
X005260Y017506D02*
X001969Y017506D01*
X001838Y017664D02*
X005260Y017664D01*
X005260Y017823D02*
X001820Y017823D01*
X001961Y017981D02*
X005260Y017981D01*
X005260Y018140D02*
X002027Y018140D01*
X002030Y018298D02*
X005260Y018298D01*
X005260Y018457D02*
X001989Y018457D01*
X001887Y018615D02*
X005260Y018615D01*
X005260Y018774D02*
X001730Y018774D01*
X001930Y018932D02*
X005260Y018932D01*
X005260Y019091D02*
X002007Y019091D01*
X002030Y019249D02*
X005260Y019249D01*
X005260Y019408D02*
X002009Y019408D01*
X001936Y019566D02*
X005267Y019566D01*
X005383Y019725D02*
X001744Y019725D01*
X001256Y019725D02*
X000980Y019725D01*
X000980Y019883D02*
X005542Y019883D01*
X005700Y020042D02*
X000980Y020042D01*
X000980Y020200D02*
X005859Y020200D01*
X006017Y020359D02*
X001856Y020359D01*
X001976Y020517D02*
X006176Y020517D01*
X006334Y020676D02*
X002030Y020676D01*
X002030Y020834D02*
X006493Y020834D01*
X006651Y020993D02*
X001974Y020993D01*
X001851Y021151D02*
X006810Y021151D01*
X006968Y021310D02*
X001807Y021310D01*
X001956Y021468D02*
X007115Y021468D01*
X007250Y021252D02*
X005500Y019502D01*
X005500Y015002D01*
X007250Y013252D01*
X007500Y013252D01*
X007500Y013752D02*
X007250Y013752D01*
X005750Y015252D01*
X005750Y019252D01*
X007250Y020752D01*
X007500Y020752D01*
X007750Y020752D01*
X009500Y022502D01*
X009500Y026502D01*
X009786Y026704D02*
X009796Y026734D01*
X009889Y026863D01*
X010018Y026957D01*
X010138Y026996D01*
X010194Y026972D01*
X010282Y026972D01*
X010045Y026895D01*
X009791Y026711D01*
X009786Y026704D01*
X009791Y026711D02*
X009791Y026711D01*
X009791Y026711D01*
X009885Y026857D02*
X009993Y026857D01*
X010045Y026895D02*
X010045Y026895D01*
X009250Y027002D02*
X009252Y027056D01*
X009258Y027109D01*
X009267Y027161D01*
X009280Y027213D01*
X009297Y027264D01*
X009318Y027314D01*
X009342Y027361D01*
X009369Y027407D01*
X009400Y027451D01*
X009433Y027493D01*
X009470Y027532D01*
X009509Y027569D01*
X009551Y027602D01*
X009595Y027633D01*
X009641Y027660D01*
X009688Y027684D01*
X009738Y027705D01*
X009789Y027722D01*
X009841Y027735D01*
X009893Y027744D01*
X009946Y027750D01*
X010000Y027752D01*
X009888Y027496D02*
X009944Y027472D01*
X010032Y027472D01*
X009795Y027395D01*
X009541Y027211D01*
X009536Y027204D01*
X009546Y027234D01*
X009639Y027363D01*
X009768Y027457D01*
X009888Y027496D01*
X009898Y027491D02*
X009875Y027491D01*
X009795Y027395D02*
X009795Y027395D01*
X009709Y027333D02*
X009618Y027333D01*
X009541Y027211D02*
X009541Y027211D01*
X009541Y027211D01*
X009250Y027002D02*
X009250Y022752D01*
X007750Y021252D01*
X007500Y021252D01*
X007250Y021252D01*
X007250Y020752D02*
X005750Y019252D01*
X005750Y015252D01*
X007250Y013752D01*
X007250Y014252D02*
X006000Y015502D01*
X006000Y019002D01*
X007250Y020252D01*
X007500Y020252D01*
X007750Y020252D01*
X009750Y022252D01*
X009750Y026002D01*
X010036Y026204D02*
X010046Y026234D01*
X010139Y026363D01*
X010268Y026457D01*
X010388Y026496D01*
X010444Y026472D01*
X010532Y026472D01*
X010295Y026395D01*
X010041Y026211D01*
X010036Y026204D01*
X010041Y026211D02*
X010041Y026211D01*
X010042Y026223D02*
X010058Y026223D01*
X010165Y026382D02*
X010276Y026382D01*
X009500Y026502D02*
X009502Y026556D01*
X009508Y026609D01*
X009517Y026661D01*
X009530Y026713D01*
X009547Y026764D01*
X009568Y026814D01*
X009592Y026861D01*
X009619Y026907D01*
X009650Y026951D01*
X009683Y026993D01*
X009720Y027032D01*
X009759Y027069D01*
X009801Y027102D01*
X009845Y027133D01*
X009891Y027160D01*
X009938Y027184D01*
X009988Y027205D01*
X010039Y027222D01*
X010091Y027235D01*
X010143Y027244D01*
X010196Y027250D01*
X010250Y027252D01*
X009765Y027967D02*
X001985Y027967D01*
X002030Y027808D02*
X009425Y027808D01*
X009247Y027650D02*
X002030Y027650D01*
X001966Y027491D02*
X009132Y027491D01*
X009066Y027333D02*
X001830Y027333D01*
X001827Y027174D02*
X009015Y027174D01*
X009010Y027016D02*
X001965Y027016D01*
X002030Y026857D02*
X009010Y026857D01*
X009010Y026699D02*
X002030Y026699D01*
X001986Y026540D02*
X009010Y026540D01*
X009010Y026382D02*
X001879Y026382D01*
X001748Y026223D02*
X009010Y026223D01*
X009010Y026065D02*
X001937Y026065D01*
X002010Y025906D02*
X009010Y025906D01*
X009010Y025748D02*
X002030Y025748D01*
X002059Y025589D02*
X009010Y025589D01*
X009010Y025431D02*
X002217Y025431D01*
X002376Y025272D02*
X009010Y025272D01*
X009010Y025114D02*
X002534Y025114D01*
X002693Y024955D02*
X009010Y024955D01*
X009010Y024797D02*
X002851Y024797D01*
X003010Y024638D02*
X009010Y024638D01*
X009010Y024480D02*
X003168Y024480D01*
X003327Y024321D02*
X008079Y024321D01*
X007901Y024163D02*
X003485Y024163D01*
X003644Y024004D02*
X007743Y024004D01*
X007584Y023846D02*
X003802Y023846D01*
X003961Y023687D02*
X007426Y023687D01*
X007175Y023529D02*
X004119Y023529D01*
X004278Y023370D02*
X007090Y023370D01*
X007090Y023212D02*
X004436Y023212D01*
X004595Y023053D02*
X007098Y023053D01*
X007902Y023053D02*
X009010Y023053D01*
X009010Y022895D02*
X007910Y022895D01*
X007910Y022736D02*
X008895Y022736D01*
X008736Y022578D02*
X007910Y022578D01*
X007910Y022419D02*
X008578Y022419D01*
X008419Y022261D02*
X007910Y022261D01*
X007910Y022102D02*
X008261Y022102D01*
X007944Y021785D02*
X007910Y021785D01*
X007969Y023212D02*
X009010Y023212D01*
X009010Y023370D02*
X008127Y023370D01*
X008286Y023529D02*
X009010Y023529D01*
X009010Y023687D02*
X008779Y023687D01*
X008920Y023846D02*
X009010Y023846D01*
X009010Y024004D02*
X008920Y024004D01*
X008920Y024163D02*
X009010Y024163D01*
X009010Y024321D02*
X008775Y024321D01*
X010000Y025502D02*
X010000Y022002D01*
X007750Y019752D01*
X007500Y019752D01*
X007250Y019752D01*
X006250Y018752D01*
X006250Y015752D01*
X007250Y014752D01*
X007500Y014752D01*
X007500Y015252D02*
X007250Y015252D01*
X006500Y016002D01*
X006500Y018502D01*
X007250Y019252D01*
X007500Y019252D01*
X007750Y019252D01*
X010250Y021752D01*
X010250Y025002D01*
X010536Y025204D02*
X010546Y025234D01*
X010639Y025363D01*
X010768Y025457D01*
X010888Y025496D01*
X010944Y025472D01*
X011032Y025472D01*
X010795Y025395D01*
X010541Y025211D01*
X010536Y025204D01*
X010541Y025211D02*
X010541Y025211D01*
X010541Y025211D01*
X010574Y025272D02*
X010626Y025272D01*
X010733Y025431D02*
X010904Y025431D01*
X010795Y025395D02*
X010795Y025395D01*
X010000Y025502D02*
X010002Y025556D01*
X010008Y025609D01*
X010017Y025661D01*
X010030Y025713D01*
X010047Y025764D01*
X010068Y025814D01*
X010092Y025861D01*
X010119Y025907D01*
X010150Y025951D01*
X010183Y025993D01*
X010220Y026032D01*
X010259Y026069D01*
X010301Y026102D01*
X010345Y026133D01*
X010391Y026160D01*
X010438Y026184D01*
X010488Y026205D01*
X010539Y026222D01*
X010591Y026235D01*
X010643Y026244D01*
X010696Y026250D01*
X010750Y026252D01*
X010638Y025996D02*
X010518Y025957D01*
X010389Y025863D01*
X010296Y025734D01*
X010286Y025704D01*
X010291Y025711D01*
X010291Y025711D01*
X010291Y025711D01*
X010545Y025895D01*
X010782Y025972D01*
X010694Y025972D01*
X010638Y025996D01*
X010579Y025906D02*
X010449Y025906D01*
X010545Y025895D02*
X010545Y025895D01*
X010342Y025748D02*
X010306Y025748D01*
X011000Y025752D02*
X010946Y025750D01*
X010893Y025744D01*
X010841Y025735D01*
X010789Y025722D01*
X010738Y025705D01*
X010688Y025684D01*
X010641Y025660D01*
X010595Y025633D01*
X010551Y025602D01*
X010509Y025569D01*
X010470Y025532D01*
X010433Y025493D01*
X010400Y025451D01*
X010369Y025407D01*
X010342Y025361D01*
X010318Y025314D01*
X010297Y025264D01*
X010280Y025213D01*
X010267Y025161D01*
X010258Y025109D01*
X010252Y025056D01*
X010250Y025002D01*
X010500Y024502D02*
X010500Y021502D01*
X007750Y018752D01*
X007500Y018752D01*
X007250Y018752D01*
X006750Y018252D01*
X006750Y016252D01*
X007250Y015752D01*
X007500Y015752D01*
X007910Y015762D02*
X009260Y015762D01*
X009260Y015604D02*
X007910Y015604D01*
X007908Y015445D02*
X009260Y015445D01*
X009260Y015287D02*
X007910Y015287D01*
X007910Y015128D02*
X009260Y015128D01*
X009260Y014970D02*
X007884Y014970D01*
X007910Y014811D02*
X009352Y014811D01*
X009510Y014653D02*
X007910Y014653D01*
X007859Y014494D02*
X009669Y014494D01*
X009827Y014336D02*
X007910Y014336D01*
X007910Y014177D02*
X009986Y014177D01*
X010144Y014019D02*
X007868Y014019D01*
X007910Y013860D02*
X010303Y013860D01*
X010461Y013702D02*
X007910Y013702D01*
X007892Y013543D02*
X010620Y013543D01*
X010778Y013385D02*
X007910Y013385D01*
X007910Y013226D02*
X010937Y013226D01*
X011090Y013068D02*
X007910Y013068D01*
X007500Y014252D02*
X007250Y014252D01*
X006000Y015502D01*
X006000Y019002D01*
X007250Y020252D01*
X008452Y018615D02*
X009260Y018615D01*
X009260Y018457D02*
X008294Y018457D01*
X008135Y018298D02*
X009260Y018298D01*
X009260Y018140D02*
X007977Y018140D01*
X007872Y017981D02*
X009260Y017981D01*
X009260Y017823D02*
X007910Y017823D01*
X007910Y017664D02*
X009260Y017664D01*
X009260Y017506D02*
X007855Y017506D01*
X007823Y017030D02*
X009260Y017030D01*
X009260Y016872D02*
X007910Y016872D01*
X007910Y016713D02*
X009260Y016713D01*
X009260Y016555D02*
X007904Y016555D01*
X007910Y016396D02*
X009260Y016396D01*
X009260Y016238D02*
X007910Y016238D01*
X007910Y016079D02*
X009260Y016079D01*
X009260Y015921D02*
X007910Y015921D01*
X007500Y016752D02*
X007250Y016752D01*
X007000Y017002D01*
X007000Y018002D01*
X007250Y018252D01*
X007500Y018252D01*
X007750Y018252D01*
X010750Y021252D01*
X010750Y024002D01*
X010990Y024002D02*
X010990Y021332D01*
X011090Y021432D01*
X011090Y021444D01*
X011149Y021502D01*
X011090Y021561D01*
X011090Y021944D01*
X010990Y021944D01*
X011090Y021944D02*
X011149Y022002D01*
X011090Y022061D01*
X011090Y022444D01*
X011149Y022502D01*
X011090Y022561D01*
X011090Y022944D01*
X011135Y022988D01*
X011106Y023017D01*
X011082Y023058D01*
X011070Y023104D01*
X011070Y023252D01*
X011500Y023252D01*
X011500Y023252D01*
X011500Y023252D01*
X011930Y023252D01*
X011930Y023104D01*
X011918Y023058D01*
X011894Y023017D01*
X011879Y023002D01*
X011909Y022990D01*
X012256Y022642D01*
X012245Y022713D01*
X012245Y022752D01*
X012750Y022752D01*
X012750Y022752D01*
X012245Y022752D01*
X012245Y022792D01*
X012257Y022871D01*
X012282Y022946D01*
X012318Y023017D01*
X012365Y023081D01*
X012421Y023138D01*
X012485Y023184D01*
X012556Y023220D01*
X012632Y023245D01*
X012710Y023257D01*
X012750Y023257D01*
X012750Y022752D01*
X012750Y022752D01*
X012750Y023257D01*
X012790Y023257D01*
X012868Y023245D01*
X012944Y023220D01*
X013015Y023184D01*
X013079Y023138D01*
X013135Y023081D01*
X013182Y023017D01*
X013218Y022946D01*
X013220Y022940D01*
X013220Y023620D01*
X013161Y023478D01*
X013025Y023341D01*
X012846Y023267D01*
X012654Y023267D01*
X012475Y023341D01*
X012339Y023478D01*
X012265Y023656D01*
X012265Y023849D01*
X012281Y023887D01*
X012159Y023765D01*
X012056Y023722D01*
X011814Y023722D01*
X011674Y023582D01*
X011326Y023582D01*
X011080Y023828D01*
X011080Y024176D01*
X011326Y024422D01*
X011674Y024422D01*
X011814Y024282D01*
X011884Y024282D01*
X012087Y024485D01*
X012056Y024472D01*
X011444Y024472D01*
X011388Y024496D01*
X011268Y024457D01*
X011139Y024363D01*
X011046Y024234D01*
X010996Y024082D01*
X010990Y024002D01*
X010990Y024004D02*
X011080Y024004D01*
X011080Y023846D02*
X010990Y023846D01*
X010990Y023687D02*
X011221Y023687D01*
X011226Y023557D02*
X011181Y023545D01*
X011139Y023521D01*
X011106Y023488D01*
X011082Y023447D01*
X011070Y023401D01*
X011070Y023252D01*
X011500Y023252D01*
X011930Y023252D01*
X011930Y023401D01*
X011918Y023447D01*
X011894Y023488D01*
X011861Y023521D01*
X011819Y023545D01*
X011774Y023557D01*
X011500Y023557D01*
X011226Y023557D01*
X011152Y023529D02*
X010990Y023529D01*
X010990Y023370D02*
X011070Y023370D01*
X011070Y023212D02*
X010990Y023212D01*
X010990Y023053D02*
X011085Y023053D01*
X011090Y022895D02*
X010990Y022895D01*
X010990Y022736D02*
X011090Y022736D01*
X011090Y022578D02*
X010990Y022578D01*
X010990Y022419D02*
X011090Y022419D01*
X011090Y022261D02*
X010990Y022261D01*
X010990Y022102D02*
X011090Y022102D01*
X011090Y021785D02*
X010990Y021785D01*
X010990Y021627D02*
X011090Y021627D01*
X011115Y021468D02*
X010990Y021468D01*
X011250Y021252D02*
X009500Y019502D01*
X009500Y015002D01*
X011250Y013252D01*
X011250Y013752D02*
X009750Y015252D01*
X009750Y019252D01*
X011250Y020752D01*
X011250Y020252D02*
X010000Y019002D01*
X010000Y015502D01*
X011250Y014252D01*
X011250Y014752D02*
X010250Y015752D01*
X010250Y018752D01*
X011250Y019752D01*
X011500Y019752D01*
X011910Y019725D02*
X012705Y019725D01*
X012651Y019566D02*
X011910Y019566D01*
X011910Y019408D02*
X012651Y019408D01*
X012651Y019249D02*
X011910Y019249D01*
X011910Y019091D02*
X012651Y019091D01*
X012651Y018932D02*
X011910Y018932D01*
X011910Y018774D02*
X012667Y018774D01*
X012626Y018615D02*
X011910Y018615D01*
X011897Y018457D02*
X012626Y018457D01*
X012639Y018298D02*
X011910Y018298D01*
X011910Y018140D02*
X012704Y018140D01*
X012785Y017981D02*
X011872Y017981D01*
X011910Y017823D02*
X012944Y017823D01*
X012946Y017664D02*
X011910Y017664D01*
X011855Y017506D02*
X012971Y017506D01*
X014029Y017506D02*
X016184Y017506D01*
X016184Y017664D02*
X014054Y017664D01*
X014056Y017823D02*
X016184Y017823D01*
X016184Y017981D02*
X014215Y017981D01*
X014296Y018140D02*
X016184Y018140D01*
X016231Y018298D02*
X014361Y018298D01*
X014374Y018457D02*
X016440Y018457D01*
X015991Y018615D02*
X014374Y018615D01*
X014333Y018774D02*
X015833Y018774D01*
X015674Y018932D02*
X014349Y018932D01*
X014349Y019091D02*
X015515Y019091D01*
X015357Y019249D02*
X014349Y019249D01*
X014349Y019408D02*
X015236Y019408D01*
X015220Y019566D02*
X014349Y019566D01*
X014295Y019725D02*
X015220Y019725D01*
X015220Y019883D02*
X014280Y019883D01*
X014280Y020042D02*
X015220Y020042D01*
X015220Y020200D02*
X014280Y020200D01*
X014280Y020359D02*
X015220Y020359D01*
X015220Y020517D02*
X014280Y020517D01*
X014280Y020676D02*
X015220Y020676D01*
X015220Y020834D02*
X014280Y020834D01*
X014280Y020993D02*
X015113Y020993D01*
X014955Y021151D02*
X014280Y021151D01*
X014280Y021310D02*
X014796Y021310D01*
X014638Y021468D02*
X014280Y021468D01*
X014280Y021627D02*
X014479Y021627D01*
X014321Y021785D02*
X014280Y021785D01*
X013233Y022165D02*
X013159Y022240D01*
X013056Y022282D01*
X012938Y022282D01*
X012944Y022284D01*
X013015Y022320D01*
X013079Y022367D01*
X013135Y022423D01*
X013182Y022488D01*
X013218Y022559D01*
X013220Y022565D01*
X013220Y022197D01*
X013233Y022165D01*
X013220Y022261D02*
X013108Y022261D01*
X013131Y022419D02*
X013220Y022419D01*
X012750Y022895D02*
X012750Y022895D01*
X012750Y023053D02*
X012750Y023053D01*
X012750Y023212D02*
X012750Y023212D01*
X012540Y023212D02*
X011930Y023212D01*
X011930Y023370D02*
X012446Y023370D01*
X012318Y023529D02*
X011848Y023529D01*
X011779Y023687D02*
X012265Y023687D01*
X012265Y023846D02*
X012240Y023846D01*
X012615Y024221D02*
X012617Y024222D01*
X012616Y024222D01*
X012615Y024221D01*
X012883Y024222D02*
X012885Y024221D01*
X012884Y024222D01*
X012883Y024222D01*
X013219Y023887D02*
X013220Y023885D01*
X013220Y023886D01*
X013219Y023887D01*
X013220Y023529D02*
X013182Y023529D01*
X013220Y023370D02*
X013054Y023370D01*
X012960Y023212D02*
X013220Y023212D01*
X013220Y023053D02*
X013156Y023053D01*
X012344Y023053D02*
X011915Y023053D01*
X012003Y022895D02*
X012265Y022895D01*
X012245Y022736D02*
X012162Y022736D01*
X011910Y022196D02*
X011910Y022061D01*
X011859Y022010D01*
X011909Y021990D01*
X012159Y021740D01*
X012237Y021661D01*
X012280Y021558D01*
X012280Y021440D01*
X012282Y021446D01*
X012318Y021517D01*
X012365Y021581D01*
X012421Y021638D01*
X012485Y021684D01*
X012556Y021720D01*
X012562Y021722D01*
X012444Y021722D01*
X012341Y021765D01*
X012263Y021844D01*
X011910Y022196D01*
X011910Y022102D02*
X012004Y022102D01*
X011954Y021944D02*
X012162Y021944D01*
X012113Y021785D02*
X012321Y021785D01*
X012251Y021627D02*
X012410Y021627D01*
X012293Y021468D02*
X012280Y021468D01*
X012750Y021252D02*
X012750Y020747D01*
X012790Y020747D01*
X012868Y020760D01*
X012944Y020784D01*
X013015Y020820D01*
X013079Y020867D01*
X013135Y020923D01*
X013182Y020988D01*
X013218Y021059D01*
X013220Y021065D01*
X013220Y020385D01*
X013161Y020527D01*
X013025Y020664D01*
X012846Y020737D01*
X012661Y020737D01*
X012640Y020759D01*
X012710Y020747D01*
X012750Y020747D01*
X012750Y021252D01*
X012750Y021252D01*
X012750Y021151D02*
X012750Y021151D01*
X012750Y020993D02*
X012750Y020993D01*
X012750Y020834D02*
X012750Y020834D01*
X012995Y020676D02*
X013220Y020676D01*
X013220Y020834D02*
X013034Y020834D01*
X013185Y020993D02*
X013220Y020993D01*
X013220Y020517D02*
X013165Y020517D01*
X013188Y020042D02*
X013220Y020042D01*
X013220Y019883D02*
X013067Y019883D01*
X012433Y019883D02*
X011910Y019883D01*
X011891Y020042D02*
X012312Y020042D01*
X012265Y020200D02*
X011910Y020200D01*
X011910Y020359D02*
X012247Y020359D01*
X012089Y020517D02*
X011866Y020517D01*
X011910Y020676D02*
X011930Y020676D01*
X011500Y019252D02*
X011250Y019252D01*
X010500Y018502D01*
X010500Y016002D01*
X011250Y015252D01*
X011500Y015252D01*
X011500Y014752D02*
X011250Y014752D01*
X011250Y015752D02*
X010750Y016252D01*
X010750Y018252D01*
X011250Y018752D01*
X011250Y018252D02*
X011000Y018002D01*
X011000Y016502D01*
X011250Y016252D01*
X011250Y015752D02*
X011500Y015752D01*
X011904Y016555D02*
X015157Y016555D01*
X015315Y016713D02*
X011910Y016713D01*
X011910Y016872D02*
X015474Y016872D01*
X015690Y017030D02*
X011823Y017030D01*
X011780Y017189D02*
X016184Y017189D01*
X016184Y017347D02*
X011780Y017347D01*
X011500Y018252D02*
X011250Y018252D01*
X009260Y018774D02*
X008611Y018774D01*
X008769Y018932D02*
X009260Y018932D01*
X009260Y019091D02*
X008928Y019091D01*
X009086Y019249D02*
X009260Y019249D01*
X009245Y019408D02*
X009260Y019408D01*
X009260Y017347D02*
X007240Y017347D01*
X007240Y017189D02*
X009260Y017189D01*
X007149Y016502D02*
X007090Y016444D01*
X007090Y016252D01*
X006990Y016352D01*
X006990Y016673D01*
X007090Y016573D01*
X007090Y016561D01*
X007149Y016502D01*
X007096Y016555D02*
X006990Y016555D01*
X006990Y016396D02*
X007090Y016396D01*
X005669Y014494D02*
X004404Y014494D01*
X004518Y014336D02*
X005827Y014336D01*
X004918Y014177D02*
X004530Y014177D01*
X004530Y014019D02*
X004760Y014019D01*
X004601Y013860D02*
X004530Y013860D01*
X004530Y013385D02*
X004584Y013385D01*
X004626Y013226D02*
X004530Y013226D01*
X004530Y013068D02*
X004631Y013068D01*
X004696Y012909D02*
X004530Y012909D01*
X004530Y012751D02*
X004766Y012751D01*
X004924Y012592D02*
X004556Y012592D01*
X004714Y012434D02*
X005187Y012434D01*
X005276Y012275D02*
X004873Y012275D01*
X005006Y012117D02*
X005435Y012117D01*
X005593Y011958D02*
X005030Y011958D01*
X005030Y011800D02*
X005807Y011800D01*
X005545Y011641D02*
X005030Y011641D01*
X005030Y011483D02*
X005387Y011483D01*
X005330Y011324D02*
X005030Y011324D01*
X005030Y011166D02*
X005330Y011166D01*
X005401Y011007D02*
X005030Y011007D01*
X005030Y010849D02*
X005560Y010849D01*
X003470Y013428D02*
X003470Y013636D01*
X002134Y014972D01*
X001958Y014972D01*
X001949Y014952D01*
X001800Y014803D01*
X001678Y014752D01*
X001800Y014702D01*
X001949Y014553D01*
X001958Y014532D01*
X002306Y014532D01*
X002409Y014490D01*
X002487Y014411D01*
X003470Y013428D01*
X003470Y013543D02*
X003355Y013543D01*
X003405Y013702D02*
X003196Y013702D01*
X003246Y013860D02*
X003038Y013860D01*
X003088Y014019D02*
X002879Y014019D01*
X002929Y014177D02*
X002721Y014177D01*
X002771Y014336D02*
X002562Y014336D01*
X002612Y014494D02*
X002397Y014494D01*
X002454Y014653D02*
X001849Y014653D01*
X001809Y014811D02*
X002295Y014811D01*
X002137Y014970D02*
X001957Y014970D01*
X001958Y015532D02*
X001949Y015553D01*
X001800Y015702D01*
X001678Y015752D01*
X001800Y015803D01*
X001949Y015952D01*
X001958Y015972D01*
X002134Y015972D01*
X003970Y014136D01*
X003970Y013928D01*
X002409Y015490D01*
X002306Y015532D01*
X001958Y015532D01*
X001898Y015604D02*
X002503Y015604D01*
X002453Y015445D02*
X002661Y015445D01*
X002611Y015287D02*
X002820Y015287D01*
X002770Y015128D02*
X002978Y015128D01*
X002928Y014970D02*
X003137Y014970D01*
X003087Y014811D02*
X003295Y014811D01*
X003245Y014653D02*
X003454Y014653D01*
X003404Y014494D02*
X003612Y014494D01*
X003562Y014336D02*
X003771Y014336D01*
X003721Y014177D02*
X003929Y014177D01*
X003970Y014019D02*
X003879Y014019D01*
X002970Y013136D02*
X002970Y012928D01*
X002487Y013411D01*
X002409Y013490D01*
X002306Y013532D01*
X001958Y013532D01*
X001949Y013553D01*
X001800Y013702D01*
X002405Y013702D01*
X002563Y013543D02*
X001953Y013543D01*
X001800Y013702D02*
X001678Y013752D01*
X001800Y013803D01*
X001949Y013952D01*
X001958Y013972D01*
X002134Y013972D01*
X002970Y013136D01*
X002970Y013068D02*
X002830Y013068D01*
X002880Y013226D02*
X002672Y013226D01*
X002722Y013385D02*
X002513Y013385D01*
X002197Y012909D02*
X001907Y012909D01*
X001949Y012952D02*
X001958Y012972D01*
X002134Y012972D01*
X002470Y012636D01*
X002470Y011566D01*
X002330Y011426D01*
X002330Y011078D01*
X002576Y010832D01*
X002924Y010832D01*
X002970Y010878D01*
X002970Y008697D01*
X003013Y008594D01*
X003091Y008515D01*
X003091Y008515D01*
X004341Y007265D01*
X004444Y007222D01*
X008806Y007222D01*
X008909Y007265D01*
X010409Y008765D01*
X010273Y008630D02*
X010904Y008630D01*
X010927Y008471D02*
X010115Y008471D01*
X009956Y008313D02*
X010982Y008313D01*
X011055Y008154D02*
X009798Y008154D01*
X009639Y007996D02*
X011127Y007996D01*
X011264Y007837D02*
X009481Y007837D01*
X009322Y007679D02*
X011402Y007679D01*
X011432Y007644D02*
X011432Y007644D01*
X011432Y007644D01*
X011624Y007520D02*
X009164Y007520D01*
X009005Y007362D02*
X011929Y007362D01*
X012500Y007502D02*
X017250Y007502D01*
X017413Y007679D02*
X018607Y007679D01*
X018607Y007520D02*
X017490Y007520D01*
X017449Y007362D02*
X018607Y007362D01*
X018607Y007203D02*
X000980Y007203D01*
X000980Y007045D02*
X018607Y007045D01*
X018607Y006886D02*
X000980Y006886D01*
X000980Y007362D02*
X004245Y007362D01*
X004086Y007520D02*
X000980Y007520D01*
X000980Y007679D02*
X001140Y007679D01*
X001064Y007699D02*
X001351Y007622D01*
X001649Y007622D01*
X001936Y007699D01*
X002194Y007848D01*
X002404Y008059D01*
X002553Y008316D01*
X002630Y008604D01*
X002630Y008901D01*
X002553Y009189D01*
X002404Y009446D01*
X002194Y009657D01*
X001936Y009805D01*
X001649Y009882D01*
X001351Y009882D01*
X001064Y009805D01*
X000980Y009757D01*
X000980Y012123D01*
X001051Y011952D01*
X001200Y011803D01*
X001395Y011722D01*
X001605Y011722D01*
X001800Y011803D01*
X001949Y011952D01*
X002030Y012147D01*
X002030Y012358D01*
X001949Y012553D01*
X001800Y012702D01*
X001678Y012752D01*
X001800Y012803D01*
X001949Y012952D01*
X001681Y012751D02*
X002356Y012751D01*
X002470Y012592D02*
X001910Y012592D01*
X001998Y012434D02*
X002470Y012434D01*
X002470Y012275D02*
X002030Y012275D01*
X002018Y012117D02*
X002470Y012117D01*
X002470Y011958D02*
X001952Y011958D01*
X001793Y011800D02*
X002470Y011800D01*
X002470Y011641D02*
X000980Y011641D01*
X000980Y011483D02*
X002387Y011483D01*
X002330Y011324D02*
X000980Y011324D01*
X000980Y011166D02*
X002330Y011166D01*
X002401Y011007D02*
X000980Y011007D01*
X000980Y010849D02*
X002560Y010849D01*
X002940Y010849D02*
X002970Y010849D01*
X002970Y010690D02*
X000980Y010690D01*
X000980Y010532D02*
X002970Y010532D01*
X002970Y010373D02*
X000980Y010373D01*
X000980Y010215D02*
X002970Y010215D01*
X002970Y010056D02*
X000980Y010056D01*
X000980Y009898D02*
X002970Y009898D01*
X002970Y009739D02*
X002050Y009739D01*
X002270Y009581D02*
X002970Y009581D01*
X002970Y009422D02*
X002418Y009422D01*
X002509Y009264D02*
X002970Y009264D01*
X002970Y009105D02*
X002575Y009105D01*
X002618Y008947D02*
X002970Y008947D01*
X002970Y008788D02*
X002630Y008788D01*
X002630Y008630D02*
X002998Y008630D01*
X003135Y008471D02*
X002595Y008471D01*
X002551Y008313D02*
X003294Y008313D01*
X003452Y008154D02*
X002460Y008154D01*
X002342Y007996D02*
X003611Y007996D01*
X003769Y007837D02*
X002175Y007837D01*
X001860Y007679D02*
X003928Y007679D01*
X001064Y007699D02*
X000980Y007748D01*
X000980Y011800D02*
X001207Y011800D01*
X001048Y011958D02*
X000980Y011958D01*
X000980Y012117D02*
X000982Y012117D01*
X000980Y012382D02*
X000980Y013123D01*
X001051Y012952D01*
X001200Y012803D01*
X001322Y012752D01*
X001200Y012702D01*
X001051Y012553D01*
X000980Y012382D01*
X000980Y012434D02*
X001002Y012434D01*
X000980Y012592D02*
X001090Y012592D01*
X000980Y012751D02*
X001319Y012751D01*
X001093Y012909D02*
X000980Y012909D01*
X000980Y013068D02*
X001003Y013068D01*
X000980Y013382D02*
X000980Y014123D01*
X001051Y013952D01*
X001200Y013803D01*
X001322Y013752D01*
X001200Y013702D01*
X000980Y013702D01*
X000980Y013860D02*
X001142Y013860D01*
X001200Y013702D02*
X001051Y013553D01*
X000980Y013382D01*
X000980Y013385D02*
X000981Y013385D01*
X000980Y013543D02*
X001047Y013543D01*
X001023Y014019D02*
X000980Y014019D01*
X000980Y014382D02*
X000980Y015123D01*
X001051Y014952D01*
X001200Y014803D01*
X001322Y014752D01*
X001200Y014702D01*
X001051Y014553D01*
X000980Y014382D01*
X000980Y014494D02*
X001027Y014494D01*
X000980Y014653D02*
X001151Y014653D01*
X001191Y014811D02*
X000980Y014811D01*
X000980Y014970D02*
X001043Y014970D01*
X000980Y015382D02*
X000980Y016123D01*
X001051Y015952D01*
X001200Y015803D01*
X001322Y015752D01*
X001200Y015702D01*
X001051Y015553D01*
X000980Y015382D01*
X000980Y015445D02*
X001006Y015445D01*
X000980Y015604D02*
X001102Y015604D01*
X000980Y015762D02*
X001298Y015762D01*
X001082Y015921D02*
X000980Y015921D01*
X000980Y016079D02*
X000998Y016079D01*
X000980Y016382D02*
X000980Y017123D01*
X001051Y016952D01*
X001200Y016803D01*
X001322Y016752D01*
X001200Y016702D01*
X001051Y016553D01*
X000980Y016382D01*
X000980Y016396D02*
X000986Y016396D01*
X000980Y016555D02*
X001053Y016555D01*
X000980Y016713D02*
X001228Y016713D01*
X001131Y016872D02*
X000980Y016872D01*
X000980Y017030D02*
X001018Y017030D01*
X000980Y017382D02*
X000980Y018123D01*
X001051Y017952D01*
X001200Y017803D01*
X001322Y017752D01*
X001200Y017702D01*
X001051Y017553D01*
X000980Y017382D01*
X000980Y017506D02*
X001031Y017506D01*
X000980Y017664D02*
X001162Y017664D01*
X001180Y017823D02*
X000980Y017823D01*
X000980Y017981D02*
X001039Y017981D01*
X000980Y018382D02*
X000980Y019123D01*
X001051Y018952D01*
X001200Y018803D01*
X001322Y018752D01*
X001200Y018702D01*
X001051Y018553D01*
X000980Y018382D01*
X000980Y018457D02*
X001011Y018457D01*
X000980Y018615D02*
X001113Y018615D01*
X000980Y018774D02*
X001270Y018774D01*
X001070Y018932D02*
X000980Y018932D01*
X000980Y019091D02*
X000993Y019091D01*
X000980Y019408D02*
X000991Y019408D01*
X000980Y019566D02*
X001064Y019566D01*
X000980Y020359D02*
X001144Y020359D01*
X001024Y020517D02*
X000980Y020517D01*
X000980Y020882D02*
X000980Y021623D01*
X001051Y021452D01*
X001200Y021303D01*
X001322Y021252D01*
X001200Y021202D01*
X001051Y021053D01*
X000980Y020882D01*
X000980Y020993D02*
X001026Y020993D01*
X000980Y021151D02*
X001149Y021151D01*
X001193Y021310D02*
X000980Y021310D01*
X000980Y021468D02*
X001044Y021468D01*
X000980Y021882D02*
X000980Y022623D01*
X001051Y022452D01*
X001200Y022303D01*
X001322Y022252D01*
X001200Y022202D01*
X001051Y022053D01*
X000980Y021882D01*
X000980Y021944D02*
X001006Y021944D01*
X000980Y022102D02*
X001100Y022102D01*
X000980Y022261D02*
X001302Y022261D01*
X001698Y022261D02*
X002595Y022261D01*
X002437Y022419D02*
X001917Y022419D01*
X002001Y022578D02*
X002278Y022578D01*
X002120Y022736D02*
X002030Y022736D01*
X002436Y023212D02*
X002644Y023212D01*
X002595Y023053D02*
X002803Y023053D01*
X002753Y022895D02*
X002961Y022895D01*
X002912Y022736D02*
X003120Y022736D01*
X003070Y022578D02*
X003278Y022578D01*
X003229Y022419D02*
X003437Y022419D01*
X003387Y022261D02*
X003595Y022261D01*
X003546Y022102D02*
X003754Y022102D01*
X003824Y022032D02*
X003616Y022032D01*
X002022Y023627D01*
X002030Y023647D01*
X002030Y023826D01*
X003824Y022032D01*
X004116Y022532D02*
X004324Y022532D01*
X002030Y024826D01*
X002030Y024647D01*
X002022Y024627D01*
X004116Y022532D01*
X004070Y022578D02*
X004278Y022578D01*
X004120Y022736D02*
X003912Y022736D01*
X003961Y022895D02*
X003753Y022895D01*
X003803Y023053D02*
X003595Y023053D01*
X003644Y023212D02*
X003436Y023212D01*
X003486Y023370D02*
X003278Y023370D01*
X003327Y023529D02*
X003119Y023529D01*
X003169Y023687D02*
X002961Y023687D01*
X003010Y023846D02*
X002802Y023846D01*
X002852Y024004D02*
X002644Y024004D01*
X002693Y024163D02*
X002485Y024163D01*
X002535Y024321D02*
X002327Y024321D01*
X002376Y024480D02*
X002168Y024480D01*
X002218Y024638D02*
X002026Y024638D01*
X002030Y024797D02*
X002059Y024797D01*
X001322Y025252D02*
X001200Y025202D01*
X001051Y025053D01*
X000980Y024882D01*
X000980Y025623D01*
X001051Y025452D01*
X001200Y025303D01*
X001322Y025252D01*
X001274Y025272D02*
X000980Y025272D01*
X000980Y025114D02*
X001112Y025114D01*
X001010Y024955D02*
X000980Y024955D01*
X000980Y024623D02*
X000980Y023882D01*
X001051Y024053D01*
X001200Y024202D01*
X001322Y024252D01*
X001200Y024303D01*
X001051Y024452D01*
X000980Y024623D01*
X000980Y024480D02*
X001039Y024480D01*
X000980Y024321D02*
X001181Y024321D01*
X001161Y024163D02*
X000980Y024163D01*
X000980Y024004D02*
X001031Y024004D01*
X000980Y023623D02*
X000980Y022882D01*
X001051Y023053D01*
X001200Y023202D01*
X001322Y023252D01*
X001200Y023303D01*
X001051Y023452D01*
X000980Y023623D01*
X000980Y023529D02*
X001019Y023529D01*
X000980Y023370D02*
X001132Y023370D01*
X001224Y023212D02*
X000980Y023212D01*
X000980Y023053D02*
X001051Y023053D01*
X000985Y022895D02*
X000980Y022895D01*
X000980Y022578D02*
X000999Y022578D01*
X000980Y022419D02*
X001083Y022419D01*
X001900Y022102D02*
X002754Y022102D01*
X002912Y021944D02*
X001994Y021944D01*
X002030Y021785D02*
X003071Y021785D01*
X003229Y021627D02*
X002022Y021627D01*
X002278Y023370D02*
X002486Y023370D01*
X002327Y023529D02*
X002119Y023529D01*
X002169Y023687D02*
X002030Y023687D01*
X001072Y025431D02*
X000980Y025431D01*
X000980Y025589D02*
X000994Y025589D01*
X000980Y025882D02*
X000980Y026623D01*
X001051Y026452D01*
X001200Y026303D01*
X001322Y026252D01*
X001200Y026202D01*
X001051Y026053D01*
X000980Y025882D01*
X000980Y025906D02*
X000990Y025906D01*
X000980Y026065D02*
X001063Y026065D01*
X000980Y026223D02*
X001252Y026223D01*
X001121Y026382D02*
X000980Y026382D01*
X000980Y026540D02*
X001014Y026540D01*
X000980Y026882D02*
X000980Y027623D01*
X001051Y027452D01*
X001200Y027303D01*
X001322Y027252D01*
X001200Y027202D01*
X001051Y027053D01*
X000980Y026882D01*
X000980Y027016D02*
X001035Y027016D01*
X000980Y027174D02*
X001173Y027174D01*
X001170Y027333D02*
X000980Y027333D01*
X000980Y027491D02*
X001034Y027491D01*
X001015Y027967D02*
X000980Y027967D01*
X000980Y028125D02*
X001124Y028125D01*
X000980Y028284D02*
X017466Y028284D01*
X017413Y028442D02*
X000980Y028442D01*
X000980Y028601D02*
X017371Y028601D01*
X017370Y028759D02*
X000980Y028759D01*
X000980Y028918D02*
X017374Y028918D01*
X017417Y029076D02*
X000980Y029076D01*
X000980Y029235D02*
X017474Y029235D01*
X017557Y028125D02*
X015023Y028125D01*
X015181Y027967D02*
X017687Y027967D01*
X017875Y027808D02*
X015340Y027808D01*
X015498Y027650D02*
X018248Y027650D01*
X018752Y027650D02*
X019970Y027650D01*
X019970Y027808D02*
X019125Y027808D01*
X019313Y027967D02*
X020015Y027967D01*
X020124Y028125D02*
X019443Y028125D01*
X019534Y028284D02*
X020890Y028284D01*
X020890Y028442D02*
X019587Y028442D01*
X019629Y028601D02*
X020890Y028601D01*
X020890Y028759D02*
X019630Y028759D01*
X019626Y028918D02*
X020890Y028918D01*
X020890Y029076D02*
X019583Y029076D01*
X019526Y029235D02*
X020890Y029235D01*
X020876Y028125D02*
X020890Y028125D01*
X020890Y027393D02*
X020800Y027303D01*
X020678Y027252D01*
X020800Y027202D01*
X020890Y027112D01*
X020890Y027393D01*
X020890Y027333D02*
X020830Y027333D01*
X020827Y027174D02*
X020890Y027174D01*
X020890Y026393D02*
X020890Y026112D01*
X020800Y026202D01*
X020678Y026252D01*
X020800Y026303D01*
X020890Y026393D01*
X020890Y026382D02*
X020879Y026382D01*
X020890Y026223D02*
X020748Y026223D01*
X020252Y026223D02*
X016925Y026223D01*
X016766Y026382D02*
X020121Y026382D01*
X020014Y026540D02*
X016608Y026540D01*
X016449Y026699D02*
X019970Y026699D01*
X019970Y026857D02*
X016291Y026857D01*
X016132Y027016D02*
X020035Y027016D01*
X020173Y027174D02*
X015974Y027174D01*
X015815Y027333D02*
X020170Y027333D01*
X020034Y027491D02*
X015657Y027491D01*
X016750Y026002D02*
X016750Y025752D01*
X017233Y025748D02*
X017625Y025748D01*
X017625Y025714D02*
X017625Y025790D01*
X017247Y025790D01*
X017247Y026012D01*
X017259Y026058D01*
X017283Y026099D01*
X017317Y026133D01*
X017358Y026156D01*
X017403Y026169D01*
X017625Y026169D01*
X017625Y025790D01*
X017701Y025790D01*
X017701Y026169D01*
X017923Y026169D01*
X017969Y026156D01*
X018010Y026133D01*
X018044Y026099D01*
X018067Y026058D01*
X018080Y026012D01*
X018080Y025790D01*
X017702Y025790D01*
X017702Y025714D01*
X018080Y025714D01*
X018080Y025492D01*
X018067Y025447D01*
X018044Y025406D01*
X018010Y025372D01*
X017999Y025365D01*
X018179Y025365D01*
X018225Y025353D01*
X018266Y025329D01*
X018300Y025296D01*
X018323Y025255D01*
X018336Y025209D01*
X018336Y024820D01*
X017928Y024820D01*
X017928Y024685D01*
X018336Y024685D01*
X018336Y024296D01*
X018324Y024252D01*
X018336Y024209D01*
X018336Y023820D01*
X017928Y023820D01*
X017928Y023685D01*
X018336Y023685D01*
X018336Y023296D01*
X018323Y023250D01*
X018300Y023209D01*
X018266Y023175D01*
X018225Y023152D01*
X018179Y023139D01*
X017928Y023139D01*
X017928Y023685D01*
X017793Y023685D01*
X017793Y023139D01*
X017541Y023139D01*
X017495Y023152D01*
X017454Y023175D01*
X017421Y023209D01*
X017397Y023250D01*
X017385Y023296D01*
X017385Y023685D01*
X017793Y023685D01*
X017793Y023820D01*
X017793Y024685D01*
X017928Y024685D01*
X017928Y024139D01*
X017928Y023820D01*
X017793Y023820D01*
X017385Y023820D01*
X017385Y024209D01*
X017397Y024252D01*
X017385Y024296D01*
X017385Y024685D01*
X017793Y024685D01*
X017793Y024820D01*
X017385Y024820D01*
X017385Y025209D01*
X017397Y025255D01*
X017421Y025296D01*
X017454Y025329D01*
X017466Y025336D01*
X017403Y025336D01*
X017358Y025348D01*
X017317Y025372D01*
X017283Y025406D01*
X017259Y025447D01*
X017247Y025492D01*
X017247Y025714D01*
X017625Y025714D01*
X017702Y025748D02*
X019970Y025748D01*
X019990Y025906D02*
X018080Y025906D01*
X018063Y026065D02*
X020063Y026065D01*
X019994Y025589D02*
X018080Y025589D01*
X018058Y025431D02*
X020072Y025431D01*
X020274Y025272D02*
X018313Y025272D01*
X018336Y025114D02*
X020112Y025114D01*
X020010Y024955D02*
X018336Y024955D01*
X018336Y024638D02*
X019974Y024638D01*
X019970Y024797D02*
X017928Y024797D01*
X017793Y024797D02*
X017095Y024797D01*
X017095Y024955D02*
X017385Y024955D01*
X017385Y025114D02*
X017095Y025114D01*
X017074Y025272D02*
X017407Y025272D01*
X017269Y025431D02*
X017214Y025431D01*
X017233Y025589D02*
X017247Y025589D01*
X017233Y025906D02*
X017247Y025906D01*
X017263Y026065D02*
X017223Y026065D01*
X017625Y026065D02*
X017701Y026065D01*
X017701Y025906D02*
X017625Y025906D01*
X017793Y024638D02*
X017928Y024638D01*
X017928Y024480D02*
X017793Y024480D01*
X017793Y024321D02*
X017928Y024321D01*
X017928Y024163D02*
X017793Y024163D01*
X017793Y024004D02*
X017928Y024004D01*
X017928Y023846D02*
X017793Y023846D01*
X017793Y023687D02*
X017095Y023687D01*
X017095Y023529D02*
X017385Y023529D01*
X017385Y023370D02*
X017095Y023370D01*
X017054Y023212D02*
X017419Y023212D01*
X017793Y023212D02*
X017928Y023212D01*
X017928Y023370D02*
X017793Y023370D01*
X017793Y023529D02*
X017928Y023529D01*
X017928Y023687D02*
X019970Y023687D01*
X019970Y023846D02*
X018336Y023846D01*
X018336Y024004D02*
X020031Y024004D01*
X020161Y024163D02*
X018336Y024163D01*
X018336Y024321D02*
X020181Y024321D01*
X020039Y024480D02*
X018336Y024480D01*
X018336Y023529D02*
X020019Y023529D01*
X020132Y023370D02*
X018336Y023370D01*
X018301Y023212D02*
X020224Y023212D01*
X020051Y023053D02*
X016095Y023053D01*
X016226Y023212D02*
X015936Y023212D01*
X015780Y023370D02*
X016184Y023370D01*
X016077Y023529D02*
X015780Y023529D01*
X015780Y023687D02*
X015919Y023687D01*
X016253Y022895D02*
X019985Y022895D01*
X019970Y022736D02*
X016412Y022736D01*
X016413Y021985D02*
X016440Y021974D01*
X016440Y021958D01*
X016413Y021985D01*
X017061Y021785D02*
X017415Y021785D01*
X017421Y021796D02*
X017397Y021755D01*
X017385Y021709D01*
X017385Y021320D01*
X017793Y021320D01*
X017793Y021185D01*
X017928Y021185D01*
X017928Y021320D01*
X018336Y021320D01*
X018336Y021709D01*
X018323Y021755D01*
X018300Y021796D01*
X018266Y021829D01*
X018225Y021853D01*
X018179Y021865D01*
X017999Y021865D01*
X018010Y021872D01*
X018044Y021906D01*
X018067Y021947D01*
X018080Y021992D01*
X018080Y022214D01*
X017702Y022214D01*
X017702Y022290D01*
X018080Y022290D01*
X018080Y022512D01*
X018067Y022558D01*
X018044Y022599D01*
X018010Y022633D01*
X017969Y022656D01*
X017923Y022669D01*
X017701Y022669D01*
X017701Y022290D01*
X017625Y022290D01*
X017625Y022214D01*
X017247Y022214D01*
X017247Y021992D01*
X017259Y021947D01*
X017283Y021906D01*
X017317Y021872D01*
X017358Y021848D01*
X017403Y021836D01*
X017466Y021836D01*
X017454Y021829D01*
X017421Y021796D01*
X017385Y021627D02*
X017095Y021627D01*
X017095Y021468D02*
X017385Y021468D01*
X017385Y021185D02*
X017385Y020796D01*
X017397Y020752D01*
X017385Y020709D01*
X017385Y020320D01*
X017793Y020320D01*
X017793Y021185D01*
X017385Y021185D01*
X017385Y021151D02*
X017095Y021151D01*
X017095Y020993D02*
X017385Y020993D01*
X017385Y020834D02*
X017095Y020834D01*
X017095Y020676D02*
X017385Y020676D01*
X017385Y020517D02*
X017095Y020517D01*
X017095Y020359D02*
X017385Y020359D01*
X017385Y020185D02*
X017385Y019796D01*
X017397Y019750D01*
X017421Y019709D01*
X017454Y019675D01*
X017495Y019652D01*
X017541Y019639D01*
X017793Y019639D01*
X017793Y020185D01*
X017928Y020185D01*
X017928Y020320D01*
X018336Y020320D01*
X018336Y020709D01*
X018324Y020752D01*
X018336Y020796D01*
X018336Y021185D01*
X017928Y021185D01*
X017928Y020639D01*
X017928Y020320D01*
X017793Y020320D01*
X017793Y020185D01*
X017385Y020185D01*
X017385Y020042D02*
X017095Y020042D01*
X017095Y020200D02*
X017793Y020200D01*
X017928Y020200D02*
X020198Y020200D01*
X020144Y020359D02*
X018336Y020359D01*
X018336Y020517D02*
X020024Y020517D01*
X019970Y020676D02*
X018336Y020676D01*
X018336Y020834D02*
X019970Y020834D01*
X020026Y020993D02*
X018336Y020993D01*
X018336Y021151D02*
X020149Y021151D01*
X020678Y020252D02*
X020800Y020303D01*
X020890Y020393D01*
X020890Y020112D01*
X020800Y020202D01*
X020678Y020252D01*
X020802Y020200D02*
X020890Y020200D01*
X020890Y020359D02*
X020856Y020359D01*
X020851Y021151D02*
X020890Y021151D01*
X020890Y021310D02*
X017928Y021310D01*
X017793Y021310D02*
X017095Y021310D01*
X017227Y021944D02*
X017261Y021944D01*
X017247Y022102D02*
X017233Y022102D01*
X017233Y022261D02*
X017625Y022261D01*
X017625Y022290D02*
X017247Y022290D01*
X017247Y022512D01*
X017259Y022558D01*
X017283Y022599D01*
X017317Y022633D01*
X017358Y022656D01*
X017403Y022669D01*
X017625Y022669D01*
X017625Y022290D01*
X017702Y022261D02*
X020302Y022261D01*
X020083Y022419D02*
X018080Y022419D01*
X018056Y022578D02*
X019999Y022578D01*
X020698Y022261D02*
X020890Y022261D01*
X020890Y022102D02*
X018080Y022102D01*
X018066Y021944D02*
X020890Y021944D01*
X020890Y021785D02*
X018306Y021785D01*
X018336Y021627D02*
X020890Y021627D01*
X020890Y021468D02*
X018336Y021468D01*
X017928Y021151D02*
X017793Y021151D01*
X017793Y020993D02*
X017928Y020993D01*
X017928Y020834D02*
X017793Y020834D01*
X017793Y020676D02*
X017928Y020676D01*
X017928Y020517D02*
X017793Y020517D01*
X017793Y020359D02*
X017928Y020359D01*
X017928Y020185D02*
X018336Y020185D01*
X018336Y019796D01*
X018323Y019750D01*
X018300Y019709D01*
X018266Y019675D01*
X018225Y019652D01*
X018179Y019639D01*
X017928Y019639D01*
X017928Y020185D01*
X017928Y020042D02*
X017793Y020042D01*
X017793Y019883D02*
X017928Y019883D01*
X017928Y019725D02*
X017793Y019725D01*
X017701Y019169D02*
X017923Y019169D01*
X017969Y019156D01*
X018010Y019133D01*
X018044Y019099D01*
X018067Y019058D01*
X018080Y019012D01*
X018080Y018790D01*
X017702Y018790D01*
X017702Y018714D01*
X018080Y018714D01*
X018080Y018492D01*
X018067Y018447D01*
X018044Y018406D01*
X018010Y018372D01*
X017999Y018365D01*
X018179Y018365D01*
X018225Y018353D01*
X018266Y018329D01*
X018300Y018296D01*
X018323Y018255D01*
X018336Y018209D01*
X018336Y017820D01*
X017928Y017820D01*
X017928Y017685D01*
X018336Y017685D01*
X018336Y017296D01*
X018324Y017252D01*
X018336Y017209D01*
X018336Y016820D01*
X017928Y016820D01*
X017928Y016685D01*
X018336Y016685D01*
X018336Y016296D01*
X018323Y016250D01*
X018300Y016209D01*
X018266Y016175D01*
X018225Y016152D01*
X018179Y016139D01*
X017928Y016139D01*
X017928Y016685D01*
X017793Y016685D01*
X017793Y016139D01*
X017541Y016139D01*
X017495Y016152D01*
X017454Y016175D01*
X017421Y016209D01*
X017397Y016250D01*
X017385Y016296D01*
X017385Y016685D01*
X017793Y016685D01*
X017793Y016820D01*
X017793Y017685D01*
X017928Y017685D01*
X017928Y017139D01*
X017928Y016820D01*
X017793Y016820D01*
X017385Y016820D01*
X017385Y017209D01*
X017397Y017252D01*
X017385Y017296D01*
X017385Y017685D01*
X017793Y017685D01*
X017793Y017820D01*
X017385Y017820D01*
X017385Y018209D01*
X017397Y018255D01*
X017421Y018296D01*
X017454Y018329D01*
X017466Y018336D01*
X017403Y018336D01*
X017358Y018348D01*
X017317Y018372D01*
X017283Y018406D01*
X017259Y018447D01*
X017247Y018492D01*
X017247Y018714D01*
X017625Y018714D01*
X017625Y018790D01*
X017247Y018790D01*
X017247Y019012D01*
X017259Y019058D01*
X017283Y019099D01*
X017317Y019133D01*
X017358Y019156D01*
X017403Y019169D01*
X017625Y019169D01*
X017625Y018790D01*
X017701Y018790D01*
X017701Y019169D01*
X017701Y019091D02*
X017625Y019091D01*
X017625Y018932D02*
X017701Y018932D01*
X017702Y018774D02*
X019970Y018774D01*
X019983Y018615D02*
X018080Y018615D01*
X018070Y018457D02*
X020049Y018457D01*
X020211Y018298D02*
X018297Y018298D01*
X018336Y018140D02*
X020110Y018140D01*
X019999Y017981D02*
X018336Y017981D01*
X018336Y017823D02*
X019954Y017823D01*
X019957Y017664D02*
X018336Y017664D01*
X018336Y017506D02*
X020008Y017506D01*
X020127Y017347D02*
X018336Y017347D01*
X018336Y017189D02*
X020187Y017189D01*
X020041Y017030D02*
X018336Y017030D01*
X018336Y016872D02*
X019976Y016872D01*
X019970Y016713D02*
X017928Y016713D01*
X017793Y016713D02*
X017095Y016713D01*
X017095Y016555D02*
X017385Y016555D01*
X017385Y016396D02*
X017095Y016396D01*
X017080Y016238D02*
X017404Y016238D01*
X017793Y016238D02*
X017928Y016238D01*
X017928Y016396D02*
X017793Y016396D01*
X017793Y016555D02*
X017928Y016555D01*
X017928Y016872D02*
X017793Y016872D01*
X017793Y017030D02*
X017928Y017030D01*
X017928Y017189D02*
X017793Y017189D01*
X017793Y017347D02*
X017928Y017347D01*
X017928Y017506D02*
X017793Y017506D01*
X017793Y017664D02*
X017928Y017664D01*
X017385Y017664D02*
X017095Y017664D01*
X017095Y017506D02*
X017385Y017506D01*
X017385Y017347D02*
X017095Y017347D01*
X017095Y017189D02*
X017385Y017189D01*
X017385Y017030D02*
X017095Y017030D01*
X017095Y016872D02*
X017385Y016872D01*
X017385Y017823D02*
X017095Y017823D01*
X017095Y017981D02*
X017385Y017981D01*
X017385Y018140D02*
X017095Y018140D01*
X017048Y018298D02*
X017423Y018298D01*
X017257Y018457D02*
X017233Y018457D01*
X017233Y018615D02*
X017247Y018615D01*
X017233Y018774D02*
X017625Y018774D01*
X017247Y018932D02*
X017233Y018932D01*
X017197Y019091D02*
X017278Y019091D01*
X017412Y019725D02*
X017067Y019725D01*
X017095Y019883D02*
X017385Y019883D01*
X018048Y019091D02*
X020089Y019091D01*
X020001Y018932D02*
X018080Y018932D01*
X018309Y019725D02*
X019970Y019725D01*
X019981Y019883D02*
X018336Y019883D01*
X018336Y020042D02*
X020046Y020042D01*
X020003Y019566D02*
X015832Y019566D01*
X015780Y019725D02*
X016213Y019725D01*
X016184Y019883D02*
X015780Y019883D01*
X015780Y020042D02*
X016184Y020042D01*
X016156Y020200D02*
X015780Y020200D01*
X015780Y020359D02*
X015997Y020359D01*
X015839Y020517D02*
X015780Y020517D01*
X015990Y019408D02*
X020095Y019408D01*
X020315Y019249D02*
X016149Y019249D01*
X016307Y019091D02*
X016476Y019091D01*
X016184Y016396D02*
X015790Y016396D01*
X015631Y016238D02*
X016200Y016238D01*
X016489Y015604D02*
X015794Y015604D01*
X015636Y015762D02*
X019970Y015762D01*
X019988Y015604D02*
X018039Y015604D01*
X018044Y015599D02*
X018010Y015633D01*
X017969Y015656D01*
X017923Y015669D01*
X017701Y015669D01*
X017701Y015290D01*
X017625Y015290D01*
X017625Y015214D01*
X017247Y015214D01*
X017247Y014992D01*
X017259Y014947D01*
X017283Y014906D01*
X017317Y014872D01*
X017358Y014848D01*
X017403Y014836D01*
X017466Y014836D01*
X017454Y014829D01*
X017421Y014796D01*
X017397Y014755D01*
X017385Y014709D01*
X017385Y014320D01*
X017793Y014320D01*
X017793Y014185D01*
X017928Y014185D01*
X017928Y014320D01*
X018336Y014320D01*
X018336Y014709D01*
X018323Y014755D01*
X018300Y014796D01*
X018266Y014829D01*
X018225Y014853D01*
X018179Y014865D01*
X017999Y014865D01*
X018010Y014872D01*
X018044Y014906D01*
X018067Y014947D01*
X018080Y014992D01*
X018080Y015214D01*
X017702Y015214D01*
X017702Y015290D01*
X018080Y015290D01*
X018080Y015512D01*
X018067Y015558D01*
X018044Y015599D01*
X018080Y015445D02*
X020057Y015445D01*
X020239Y015287D02*
X017702Y015287D01*
X017625Y015287D02*
X017233Y015287D01*
X017247Y015290D02*
X017625Y015290D01*
X017625Y015669D01*
X017403Y015669D01*
X017358Y015656D01*
X017317Y015633D01*
X017283Y015599D01*
X017259Y015558D01*
X017247Y015512D01*
X017247Y015290D01*
X017233Y015445D02*
X017247Y015445D01*
X017288Y015604D02*
X017184Y015604D01*
X017625Y015604D02*
X017701Y015604D01*
X017701Y015445D02*
X017625Y015445D01*
X017247Y015128D02*
X017233Y015128D01*
X017233Y014970D02*
X017253Y014970D01*
X017436Y014811D02*
X017035Y014811D01*
X017095Y014653D02*
X017385Y014653D01*
X017385Y014494D02*
X017095Y014494D01*
X017095Y014336D02*
X017385Y014336D01*
X017385Y014185D02*
X017385Y013796D01*
X017397Y013752D01*
X017385Y013709D01*
X017385Y013320D01*
X017793Y013320D01*
X017793Y014185D01*
X017385Y014185D01*
X017385Y014177D02*
X017095Y014177D01*
X017095Y014019D02*
X017385Y014019D01*
X017385Y013860D02*
X017095Y013860D01*
X017095Y013702D02*
X017385Y013702D01*
X017385Y013543D02*
X017095Y013543D01*
X017095Y013385D02*
X017385Y013385D01*
X017385Y013185D02*
X017385Y012796D01*
X017397Y012750D01*
X017421Y012709D01*
X017454Y012675D01*
X017495Y012652D01*
X017541Y012639D01*
X017793Y012639D01*
X017793Y013185D01*
X017928Y013185D01*
X017928Y013320D01*
X018336Y013320D01*
X018336Y013709D01*
X018324Y013752D01*
X018336Y013796D01*
X018336Y014185D01*
X017928Y014185D01*
X017928Y013639D01*
X017928Y013320D01*
X017793Y013320D01*
X017793Y013185D01*
X017385Y013185D01*
X017385Y013068D02*
X017095Y013068D01*
X017095Y013226D02*
X017793Y013226D01*
X017928Y013226D02*
X020890Y013226D01*
X020890Y013068D02*
X018336Y013068D01*
X018336Y013185D02*
X018336Y012796D01*
X018323Y012750D01*
X018300Y012709D01*
X018266Y012675D01*
X018225Y012652D01*
X018179Y012639D01*
X017928Y012639D01*
X017928Y013185D01*
X018336Y013185D01*
X018336Y013385D02*
X020890Y013385D01*
X020890Y013543D02*
X018336Y013543D01*
X018336Y013702D02*
X020890Y013702D01*
X020890Y013860D02*
X018336Y013860D01*
X018336Y014019D02*
X020890Y014019D01*
X020890Y014177D02*
X018336Y014177D01*
X018336Y014336D02*
X020890Y014336D01*
X020890Y014494D02*
X018336Y014494D01*
X018336Y014653D02*
X020890Y014653D01*
X020890Y014811D02*
X018284Y014811D01*
X018074Y014970D02*
X020890Y014970D01*
X020890Y015128D02*
X018080Y015128D01*
X017928Y014177D02*
X017793Y014177D01*
X017793Y014019D02*
X017928Y014019D01*
X017928Y013860D02*
X017793Y013860D01*
X017793Y013702D02*
X017928Y013702D01*
X017928Y013543D02*
X017793Y013543D01*
X017793Y013385D02*
X017928Y013385D01*
X017928Y013068D02*
X017793Y013068D01*
X017793Y012909D02*
X017928Y012909D01*
X017928Y012751D02*
X017793Y012751D01*
X017397Y012751D02*
X017093Y012751D01*
X017095Y012909D02*
X017385Y012909D01*
X018336Y012909D02*
X020890Y012909D01*
X020890Y012751D02*
X018324Y012751D01*
X017969Y011656D02*
X017923Y011669D01*
X017701Y011669D01*
X017701Y011290D01*
X017625Y011290D01*
X017625Y011214D01*
X017247Y011214D01*
X017247Y010992D01*
X017259Y010947D01*
X017283Y010906D01*
X017317Y010872D01*
X017358Y010848D01*
X017403Y010836D01*
X017466Y010836D01*
X017454Y010829D01*
X017421Y010796D01*
X017397Y010755D01*
X017385Y010709D01*
X017385Y010320D01*
X017793Y010320D01*
X017793Y010185D01*
X017928Y010185D01*
X017928Y010320D01*
X018336Y010320D01*
X018336Y010709D01*
X018323Y010755D01*
X018300Y010796D01*
X018266Y010829D01*
X018225Y010853D01*
X018179Y010865D01*
X017999Y010865D01*
X018010Y010872D01*
X018044Y010906D01*
X018067Y010947D01*
X018080Y010992D01*
X018080Y011214D01*
X017702Y011214D01*
X017702Y011290D01*
X018080Y011290D01*
X018080Y011512D01*
X018067Y011558D01*
X018044Y011599D01*
X018010Y011633D01*
X017969Y011656D01*
X017995Y011641D02*
X020890Y011641D01*
X020890Y011483D02*
X018080Y011483D01*
X018080Y011324D02*
X020890Y011324D01*
X020890Y011166D02*
X018080Y011166D01*
X018080Y011007D02*
X020890Y011007D01*
X020890Y010849D02*
X018232Y010849D01*
X018336Y010690D02*
X020890Y010690D01*
X020890Y010532D02*
X018336Y010532D01*
X018336Y010373D02*
X020890Y010373D01*
X020890Y010215D02*
X017928Y010215D01*
X017928Y010185D02*
X018336Y010185D01*
X018336Y009796D01*
X018324Y009752D01*
X018336Y009709D01*
X018336Y009320D01*
X017928Y009320D01*
X017928Y009185D01*
X018336Y009185D01*
X018336Y008796D01*
X018323Y008750D01*
X018300Y008709D01*
X018266Y008675D01*
X018225Y008652D01*
X018179Y008639D01*
X017928Y008639D01*
X017928Y009185D01*
X017793Y009185D01*
X017793Y008639D01*
X017541Y008639D01*
X017495Y008652D01*
X017454Y008675D01*
X017421Y008709D01*
X017397Y008750D01*
X017385Y008796D01*
X017385Y009185D01*
X017793Y009185D01*
X017793Y009320D01*
X017793Y010185D01*
X017385Y010185D01*
X017385Y009796D01*
X017397Y009752D01*
X017385Y009709D01*
X017385Y009320D01*
X017793Y009320D01*
X017928Y009320D01*
X017928Y009639D01*
X017928Y010185D01*
X017928Y010056D02*
X017793Y010056D01*
X017793Y009898D02*
X017928Y009898D01*
X017928Y009739D02*
X017793Y009739D01*
X017793Y009581D02*
X017928Y009581D01*
X017928Y009422D02*
X017793Y009422D01*
X017793Y009264D02*
X017095Y009264D01*
X017095Y009422D02*
X017385Y009422D01*
X017385Y009581D02*
X017095Y009581D01*
X017095Y009739D02*
X017393Y009739D01*
X017385Y009898D02*
X017095Y009898D01*
X017095Y010056D02*
X017385Y010056D01*
X017385Y010373D02*
X017095Y010373D01*
X017095Y010215D02*
X017793Y010215D01*
X017385Y010532D02*
X017095Y010532D01*
X017095Y010690D02*
X017385Y010690D01*
X017357Y010849D02*
X015549Y010849D01*
X015610Y011007D02*
X015391Y011007D01*
X015441Y011166D02*
X015232Y011166D01*
X015282Y011324D02*
X015074Y011324D01*
X015124Y011483D02*
X014915Y011483D01*
X014965Y011641D02*
X014757Y011641D01*
X014807Y011800D02*
X014598Y011800D01*
X014648Y011958D02*
X014440Y011958D01*
X014490Y012117D02*
X014281Y012117D01*
X014331Y012275D02*
X014123Y012275D01*
X014173Y012434D02*
X013964Y012434D01*
X014014Y012592D02*
X013806Y012592D01*
X013856Y012751D02*
X013647Y012751D01*
X013697Y012909D02*
X013489Y012909D01*
X013539Y013068D02*
X013330Y013068D01*
X013380Y013226D02*
X013172Y013226D01*
X013222Y013385D02*
X013013Y013385D01*
X013063Y013543D02*
X012855Y013543D01*
X012905Y013702D02*
X012696Y013702D01*
X012746Y013860D02*
X012538Y013860D01*
X012134Y013472D02*
X011926Y013472D01*
X011987Y013411D01*
X015866Y009532D01*
X016184Y009532D01*
X016184Y009752D01*
X016185Y009752D01*
X016184Y009753D01*
X016184Y009972D01*
X015694Y009972D01*
X015591Y010015D01*
X015513Y010094D01*
X012134Y013472D01*
X012222Y013385D02*
X012013Y013385D01*
X012172Y013226D02*
X012380Y013226D01*
X012330Y013068D02*
X012539Y013068D01*
X012489Y012909D02*
X012697Y012909D01*
X012647Y012751D02*
X012856Y012751D01*
X012806Y012592D02*
X013014Y012592D01*
X012964Y012434D02*
X013173Y012434D01*
X013123Y012275D02*
X013331Y012275D01*
X013281Y012117D02*
X013490Y012117D01*
X013440Y011958D02*
X013648Y011958D01*
X013598Y011800D02*
X013807Y011800D01*
X013757Y011641D02*
X013965Y011641D01*
X013915Y011483D02*
X014124Y011483D01*
X014074Y011324D02*
X014282Y011324D01*
X014232Y011166D02*
X014441Y011166D01*
X014391Y011007D02*
X014599Y011007D01*
X014549Y010849D02*
X014758Y010849D01*
X014708Y010690D02*
X014916Y010690D01*
X014866Y010532D02*
X015075Y010532D01*
X015025Y010373D02*
X015233Y010373D01*
X015183Y010215D02*
X015392Y010215D01*
X015342Y010056D02*
X015550Y010056D01*
X015500Y009898D02*
X016184Y009898D01*
X016184Y009739D02*
X015659Y009739D01*
X015817Y009581D02*
X016184Y009581D01*
X016184Y008947D02*
X014024Y008947D01*
X014026Y008928D02*
X014026Y008928D01*
X014001Y008788D02*
X016184Y008788D01*
X015707Y008630D02*
X020890Y008630D01*
X020890Y008788D02*
X018334Y008788D01*
X018336Y008947D02*
X020890Y008947D01*
X020890Y009105D02*
X018336Y009105D01*
X018336Y009422D02*
X020890Y009422D01*
X020890Y009264D02*
X017928Y009264D01*
X017928Y009105D02*
X017793Y009105D01*
X017793Y008947D02*
X017928Y008947D01*
X017928Y008788D02*
X017793Y008788D01*
X017387Y008788D02*
X017095Y008788D01*
X017095Y008947D02*
X017385Y008947D01*
X017385Y009105D02*
X017095Y009105D01*
X016687Y008154D02*
X020890Y008154D01*
X020890Y007996D02*
X016740Y007996D01*
X016674Y007837D02*
X018715Y007837D01*
X018336Y009581D02*
X020890Y009581D01*
X020890Y009739D02*
X018327Y009739D01*
X018336Y009898D02*
X020890Y009898D01*
X020890Y010056D02*
X018336Y010056D01*
X017701Y011324D02*
X017625Y011324D01*
X017625Y011290D02*
X017625Y011669D01*
X017403Y011669D01*
X017358Y011656D01*
X017317Y011633D01*
X017283Y011599D01*
X017259Y011558D01*
X017247Y011512D01*
X017247Y011290D01*
X017625Y011290D01*
X017625Y011483D02*
X017701Y011483D01*
X017701Y011641D02*
X017625Y011641D01*
X017332Y011641D02*
X017146Y011641D01*
X017233Y011483D02*
X017247Y011483D01*
X017233Y011324D02*
X017247Y011324D01*
X017233Y011166D02*
X017247Y011166D01*
X017233Y011007D02*
X017247Y011007D01*
X016527Y011641D02*
X015757Y011641D01*
X015598Y011800D02*
X020890Y011800D01*
X020890Y011958D02*
X015440Y011958D01*
X015281Y012117D02*
X020890Y012117D01*
X020890Y012275D02*
X015123Y012275D01*
X014964Y012434D02*
X020890Y012434D01*
X020890Y012592D02*
X014806Y012592D01*
X014647Y012751D02*
X016187Y012751D01*
X016184Y012909D02*
X014489Y012909D01*
X014330Y013068D02*
X015539Y013068D01*
X015380Y013226D02*
X014172Y013226D01*
X014013Y013385D02*
X015222Y013385D01*
X015063Y013543D02*
X013855Y013543D01*
X013696Y013702D02*
X014905Y013702D01*
X014746Y013860D02*
X013538Y013860D01*
X013379Y014019D02*
X014588Y014019D01*
X014429Y014177D02*
X013221Y014177D01*
X013062Y014336D02*
X014271Y014336D01*
X014587Y014811D02*
X014795Y014811D01*
X014745Y014653D02*
X014954Y014653D01*
X014904Y014494D02*
X015112Y014494D01*
X015062Y014336D02*
X015271Y014336D01*
X015221Y014177D02*
X015429Y014177D01*
X015379Y014019D02*
X015588Y014019D01*
X015591Y014015D02*
X015694Y013972D01*
X016184Y013972D01*
X016184Y013753D01*
X016185Y013752D01*
X016184Y013752D01*
X016184Y013532D01*
X015866Y013532D01*
X014426Y014972D01*
X014634Y014972D01*
X015591Y014015D01*
X015538Y013860D02*
X016184Y013860D01*
X016184Y013702D02*
X015696Y013702D01*
X015855Y013543D02*
X016184Y013543D01*
X016184Y014653D02*
X015745Y014653D01*
X015587Y014811D02*
X016244Y014811D01*
X016440Y014970D02*
X015428Y014970D01*
X015478Y015128D02*
X015270Y015128D01*
X015320Y015287D02*
X015111Y015287D01*
X015161Y015445D02*
X014953Y015445D01*
X014637Y014970D02*
X014428Y014970D01*
X015477Y015921D02*
X019996Y015921D01*
X020077Y016079D02*
X015473Y016079D01*
X018316Y016238D02*
X020287Y016238D01*
X020106Y016396D02*
X018336Y016396D01*
X018336Y016555D02*
X020008Y016555D01*
X020678Y016252D02*
X020800Y016303D01*
X020890Y016393D01*
X020890Y016112D01*
X020800Y016202D01*
X020678Y016252D01*
X020713Y016238D02*
X020890Y016238D01*
X020890Y017112D02*
X020800Y017202D01*
X020706Y017241D01*
X020711Y017243D01*
X020788Y017282D01*
X020858Y017333D01*
X020890Y017365D01*
X020890Y017112D01*
X020890Y017189D02*
X020813Y017189D01*
X020873Y017347D02*
X020890Y017347D01*
X020890Y018140D02*
X020890Y018393D01*
X020800Y018303D01*
X020706Y018264D01*
X020711Y018262D01*
X020788Y018223D01*
X020858Y018172D01*
X020890Y018140D01*
X020890Y018298D02*
X020789Y018298D01*
X020890Y019112D02*
X020890Y019393D01*
X020800Y019303D01*
X020678Y019252D01*
X020800Y019202D01*
X020890Y019112D01*
X020890Y019249D02*
X020685Y019249D01*
X020890Y023112D02*
X020800Y023202D01*
X020678Y023252D01*
X020800Y023303D01*
X020890Y023393D01*
X020890Y023112D01*
X020890Y023212D02*
X020776Y023212D01*
X020868Y023370D02*
X020890Y023370D01*
X020890Y024112D02*
X020800Y024202D01*
X020678Y024252D01*
X020800Y024303D01*
X020890Y024393D01*
X020890Y024112D01*
X020890Y024163D02*
X020839Y024163D01*
X020819Y024321D02*
X020890Y024321D01*
X020890Y025112D02*
X020890Y025393D01*
X020800Y025303D01*
X020678Y025252D01*
X020800Y025202D01*
X020890Y025112D01*
X020888Y025114D02*
X020890Y025114D01*
X020890Y025272D02*
X020726Y025272D01*
X017701Y022578D02*
X017625Y022578D01*
X017625Y022419D02*
X017701Y022419D01*
X017247Y022419D02*
X017233Y022419D01*
X017210Y022578D02*
X017271Y022578D01*
X017385Y023846D02*
X017095Y023846D01*
X017095Y024004D02*
X017385Y024004D01*
X017385Y024163D02*
X017095Y024163D01*
X017095Y024321D02*
X017385Y024321D01*
X017385Y024480D02*
X017095Y024480D01*
X017095Y024638D02*
X017385Y024638D01*
X016500Y024752D02*
X016500Y025252D01*
X012082Y024480D02*
X012074Y024480D01*
X011923Y024321D02*
X011775Y024321D01*
X011500Y024752D02*
X011446Y024750D01*
X011393Y024744D01*
X011341Y024735D01*
X011289Y024722D01*
X011238Y024705D01*
X011188Y024684D01*
X011141Y024660D01*
X011095Y024633D01*
X011051Y024602D01*
X011009Y024569D01*
X010970Y024532D01*
X010933Y024493D01*
X010900Y024451D01*
X010869Y024407D01*
X010842Y024361D01*
X010818Y024314D01*
X010797Y024264D01*
X010780Y024213D01*
X010767Y024161D01*
X010758Y024109D01*
X010752Y024056D01*
X010750Y024002D01*
X011023Y024163D02*
X011080Y024163D01*
X011109Y024321D02*
X011225Y024321D01*
X010500Y024502D02*
X010502Y024556D01*
X010508Y024609D01*
X010517Y024661D01*
X010530Y024713D01*
X010547Y024764D01*
X010568Y024814D01*
X010592Y024861D01*
X010619Y024907D01*
X010650Y024951D01*
X010683Y024993D01*
X010720Y025032D01*
X010759Y025069D01*
X010801Y025102D01*
X010845Y025133D01*
X010891Y025160D01*
X010938Y025184D01*
X010988Y025205D01*
X011039Y025222D01*
X011091Y025235D01*
X011143Y025244D01*
X011196Y025250D01*
X011250Y025252D01*
X011138Y024996D02*
X011018Y024957D01*
X010889Y024863D01*
X010796Y024734D01*
X010786Y024704D01*
X010791Y024711D01*
X010791Y024711D01*
X010791Y024711D01*
X011045Y024895D01*
X011045Y024895D01*
X011282Y024972D01*
X011194Y024972D01*
X011138Y024996D01*
X011229Y024955D02*
X011017Y024955D01*
X010909Y024797D02*
X010841Y024797D01*
X011340Y024480D02*
X011426Y024480D01*
X011500Y023557D02*
X011500Y023252D01*
X011500Y023252D01*
X011500Y023557D01*
X011500Y023529D02*
X011500Y023529D01*
X011500Y023370D02*
X011500Y023370D01*
X010477Y028125D02*
X001876Y028125D01*
X001918Y015921D02*
X002186Y015921D01*
X002344Y015762D02*
X001702Y015762D01*
X001858Y013860D02*
X002246Y013860D01*
X011910Y012592D02*
X012014Y012592D01*
X011910Y012434D02*
X012173Y012434D01*
X012331Y012275D02*
X011910Y012275D01*
X011910Y012117D02*
X012490Y012117D01*
X012648Y011958D02*
X011895Y011958D01*
X011910Y011800D02*
X012807Y011800D01*
X012965Y011641D02*
X011910Y011641D01*
X011871Y011483D02*
X013124Y011483D01*
X013282Y011324D02*
X011910Y011324D01*
X011910Y011166D02*
X013441Y011166D01*
X013148Y010364D02*
X013148Y010364D01*
X013118Y010373D02*
X014233Y010373D01*
X014392Y010215D02*
X013374Y010215D01*
X013518Y010119D02*
X013518Y010119D01*
X013518Y010119D01*
X013571Y010056D02*
X014550Y010056D01*
X014709Y009898D02*
X013703Y009898D01*
X013803Y009778D02*
X013803Y009778D01*
X013819Y009739D02*
X014867Y009739D01*
X015026Y009581D02*
X013887Y009581D01*
X013954Y009422D02*
X015184Y009422D01*
X015343Y009264D02*
X013989Y009264D01*
X014006Y009105D02*
X015501Y009105D01*
X015500Y008502D02*
X012500Y008502D01*
X012500Y008742D02*
X012470Y008746D01*
X012416Y008772D01*
X012378Y008819D01*
X012365Y008877D01*
X012378Y008936D01*
X012416Y008983D01*
X012470Y009009D01*
X012500Y009012D01*
X012516Y009011D01*
X012545Y008997D01*
X012565Y008972D01*
X012572Y008941D01*
X012566Y008910D01*
X012558Y008896D01*
X012529Y008858D01*
X012506Y008766D01*
X012509Y008742D01*
X012500Y008742D01*
X012511Y008788D02*
X012403Y008788D01*
X012500Y007502D02*
X012427Y007504D01*
X012354Y007510D01*
X012281Y007520D01*
X012209Y007533D01*
X012138Y007550D01*
X012068Y007572D01*
X011999Y007596D01*
X011932Y007625D01*
X011866Y007657D01*
X011802Y007692D01*
X011740Y007731D01*
X011680Y007773D01*
X011622Y007818D01*
X011567Y007867D01*
X011515Y007918D01*
X011465Y007972D01*
X011418Y008028D01*
X011375Y008087D01*
X011334Y008148D01*
X011297Y008211D01*
X011263Y008276D01*
X011233Y008342D01*
X011207Y008411D01*
X011184Y008480D01*
X011164Y008551D01*
X011149Y008622D01*
X011137Y008695D01*
X011129Y008767D01*
X011125Y008840D01*
X011125Y008914D01*
X011129Y008987D01*
X011137Y009059D01*
X011149Y009132D01*
X011164Y009203D01*
X011184Y009274D01*
X011207Y009343D01*
X011233Y009412D01*
X011263Y009478D01*
X011297Y009543D01*
X011334Y009606D01*
X011375Y009667D01*
X011418Y009726D01*
X011465Y009782D01*
X011515Y009836D01*
X011567Y009887D01*
X011622Y009936D01*
X011680Y009981D01*
X011740Y010023D01*
X011802Y010062D01*
X011866Y010097D01*
X011932Y010129D01*
X011999Y010158D01*
X012068Y010182D01*
X012138Y010204D01*
X012209Y010221D01*
X012281Y010234D01*
X012354Y010244D01*
X012427Y010250D01*
X012500Y010252D01*
X012500Y009012D02*
X012500Y009012D01*
X012500Y010253D02*
X012570Y010251D01*
X012639Y010245D01*
X012708Y010236D01*
X012776Y010223D01*
X012844Y010206D01*
X012910Y010185D01*
X012975Y010161D01*
X013039Y010133D01*
X013101Y010102D01*
X013162Y010067D01*
X013220Y010029D01*
X013276Y009988D01*
X013330Y009944D01*
X013382Y009898D01*
X013430Y009848D01*
X013476Y009796D01*
X013519Y009741D01*
X013559Y009684D01*
X013596Y009625D01*
X013630Y009564D01*
X013660Y009501D01*
X013687Y009437D01*
X013710Y009371D01*
X013729Y009305D01*
X013745Y009237D01*
X013757Y009168D01*
X013766Y009099D01*
X013770Y009030D01*
X013771Y008960D01*
X013768Y008891D01*
X013761Y008822D01*
X013750Y008753D01*
X014750Y008252D02*
X012500Y008252D01*
X012500Y008002D02*
X016500Y008002D01*
X015740Y008471D02*
X020890Y008471D01*
X020890Y008313D02*
X015650Y008313D01*
X015500Y007752D02*
X012500Y007752D01*
X012435Y007754D01*
X012369Y007760D01*
X012305Y007769D01*
X012241Y007782D01*
X012177Y007799D01*
X012115Y007820D01*
X012054Y007844D01*
X011995Y007872D01*
X011937Y007903D01*
X011882Y007937D01*
X011828Y007975D01*
X011777Y008015D01*
X011728Y008059D01*
X011682Y008105D01*
X011638Y008154D01*
X011598Y008205D01*
X011560Y008259D01*
X011526Y008315D01*
X011495Y008372D01*
X011467Y008431D01*
X011443Y008492D01*
X011422Y008554D01*
X011405Y008618D01*
X011392Y008682D01*
X011383Y008746D01*
X011377Y008812D01*
X011375Y008877D01*
X011377Y008942D01*
X011383Y009008D01*
X011392Y009072D01*
X011405Y009136D01*
X011422Y009200D01*
X011443Y009262D01*
X011467Y009323D01*
X011495Y009382D01*
X011526Y009440D01*
X011560Y009495D01*
X011598Y009549D01*
X011638Y009600D01*
X011682Y009649D01*
X011728Y009695D01*
X011777Y009739D01*
X011828Y009779D01*
X011882Y009817D01*
X011938Y009851D01*
X011995Y009882D01*
X012054Y009910D01*
X012115Y009934D01*
X012177Y009955D01*
X012241Y009972D01*
X012305Y009985D01*
X012369Y009994D01*
X012435Y010000D01*
X012500Y010002D01*
X012563Y010000D01*
X012626Y009994D01*
X012689Y009984D01*
X012751Y009971D01*
X012812Y009953D01*
X012871Y009932D01*
X012930Y009908D01*
X012986Y009879D01*
X013041Y009848D01*
X013094Y009812D01*
X013144Y009774D01*
X013192Y009733D01*
X013238Y009689D01*
X013280Y009642D01*
X013320Y009592D01*
X013356Y009540D01*
X013389Y009487D01*
X013419Y009431D01*
X013445Y009373D01*
X013468Y009314D01*
X013487Y009253D01*
X013502Y009192D01*
X013514Y009130D01*
X013521Y009067D01*
X013525Y009004D01*
X013524Y008940D01*
X013520Y008877D01*
X013512Y008814D01*
X013500Y008752D01*
X012571Y008947D02*
X012387Y008947D01*
X012500Y009252D02*
X012534Y009250D01*
X012569Y009244D01*
X012602Y009235D01*
X012634Y009222D01*
X012664Y009205D01*
X012692Y009186D01*
X012718Y009163D01*
X012742Y009137D01*
X012762Y009110D01*
X012779Y009080D01*
X012793Y009048D01*
X012803Y009015D01*
X012809Y008981D01*
X012812Y008946D01*
X012811Y008912D01*
X012806Y008878D01*
X012797Y008844D01*
X012785Y008812D01*
X012769Y008782D01*
X012750Y008753D01*
X012500Y008002D02*
X012442Y008004D01*
X012383Y008010D01*
X012326Y008020D01*
X012269Y008033D01*
X012213Y008050D01*
X012158Y008071D01*
X012105Y008096D01*
X012054Y008124D01*
X012005Y008156D01*
X011958Y008190D01*
X011913Y008228D01*
X011871Y008269D01*
X011832Y008312D01*
X011796Y008358D01*
X011762Y008406D01*
X011733Y008456D01*
X011706Y008509D01*
X011683Y008563D01*
X011664Y008618D01*
X011649Y008674D01*
X011637Y008731D01*
X011629Y008789D01*
X011625Y008848D01*
X011625Y008906D01*
X011629Y008965D01*
X011637Y009023D01*
X011649Y009080D01*
X011664Y009136D01*
X011683Y009191D01*
X011706Y009245D01*
X011733Y009298D01*
X011762Y009348D01*
X011796Y009396D01*
X011832Y009442D01*
X011871Y009485D01*
X011913Y009526D01*
X011958Y009564D01*
X012005Y009598D01*
X012054Y009630D01*
X012105Y009658D01*
X012158Y009683D01*
X012213Y009704D01*
X012269Y009721D01*
X012326Y009734D01*
X012383Y009744D01*
X012442Y009750D01*
X012500Y009752D01*
X012556Y009750D01*
X012611Y009744D01*
X012666Y009734D01*
X012720Y009720D01*
X012773Y009703D01*
X012824Y009682D01*
X012874Y009657D01*
X012922Y009628D01*
X012968Y009597D01*
X013011Y009562D01*
X013052Y009524D01*
X013090Y009483D01*
X013125Y009440D01*
X013157Y009394D01*
X013185Y009346D01*
X013210Y009296D01*
X013231Y009245D01*
X013249Y009192D01*
X013263Y009138D01*
X013273Y009083D01*
X013279Y009028D01*
X013281Y008972D01*
X013279Y008917D01*
X013273Y008861D01*
X013263Y008806D01*
X013250Y008752D01*
X012500Y008252D02*
X012451Y008254D01*
X012402Y008260D01*
X012354Y008269D01*
X012307Y008283D01*
X012261Y008300D01*
X012216Y008320D01*
X012173Y008344D01*
X012133Y008371D01*
X012094Y008402D01*
X012058Y008435D01*
X012025Y008471D01*
X011994Y008510D01*
X011967Y008550D01*
X011943Y008593D01*
X011923Y008638D01*
X011906Y008684D01*
X011892Y008731D01*
X011883Y008779D01*
X011877Y008828D01*
X011875Y008877D01*
X011877Y008926D01*
X011883Y008975D01*
X011892Y009023D01*
X011906Y009070D01*
X011923Y009116D01*
X011943Y009161D01*
X011967Y009204D01*
X011994Y009244D01*
X012025Y009283D01*
X012058Y009319D01*
X012094Y009352D01*
X012133Y009383D01*
X012173Y009410D01*
X012216Y009434D01*
X012261Y009454D01*
X012307Y009471D01*
X012354Y009485D01*
X012402Y009494D01*
X012451Y009500D01*
X012500Y009502D01*
X012500Y009503D02*
X012544Y009501D01*
X012588Y009496D01*
X012632Y009487D01*
X012674Y009474D01*
X012716Y009458D01*
X012756Y009439D01*
X012794Y009416D01*
X012830Y009391D01*
X012864Y009362D01*
X012896Y009331D01*
X012925Y009298D01*
X012951Y009262D01*
X012974Y009224D01*
X012994Y009184D01*
X013011Y009143D01*
X013024Y009101D01*
X013033Y009057D01*
X013039Y009013D01*
X013042Y008969D01*
X013041Y008925D01*
X013036Y008880D01*
X013028Y008837D01*
X013016Y008794D01*
X013000Y008753D01*
X012500Y008502D02*
X012462Y008504D01*
X012425Y008510D01*
X012388Y008519D01*
X012352Y008532D01*
X012318Y008549D01*
X012286Y008569D01*
X012256Y008592D01*
X012228Y008619D01*
X012203Y008647D01*
X012182Y008679D01*
X012163Y008712D01*
X012148Y008747D01*
X012137Y008783D01*
X012129Y008820D01*
X012125Y008858D01*
X012125Y008896D01*
X012129Y008934D01*
X012137Y008971D01*
X012148Y009007D01*
X012163Y009042D01*
X012182Y009075D01*
X012203Y009107D01*
X012228Y009135D01*
X012256Y009162D01*
X012286Y009185D01*
X012318Y009205D01*
X012352Y009222D01*
X012388Y009235D01*
X012425Y009244D01*
X012462Y009250D01*
X012500Y009252D01*
X015708Y010690D02*
X016184Y010690D01*
X020761Y015287D02*
X020890Y015287D01*
D23*
X011500Y016252D02*
X011250Y016252D01*
X011250Y014252D02*
X011500Y014252D01*
X011500Y013752D02*
X011250Y013752D01*
X011250Y013252D02*
X011500Y013252D01*
D24*
X010491Y026821D02*
X010491Y026681D01*
X010490Y026682D02*
X010440Y026679D01*
X010391Y026673D01*
X010342Y026663D01*
X010294Y026650D01*
X010247Y026633D01*
X010201Y026613D01*
X010157Y026589D01*
X010115Y026562D01*
X010075Y026533D01*
X010037Y026500D01*
X010002Y026465D01*
X009969Y026427D01*
X009940Y026387D01*
X009913Y026345D01*
X009889Y026301D01*
X009869Y026255D01*
X009852Y026208D01*
X009839Y026160D01*
X009829Y026111D01*
X009823Y026062D01*
X009820Y026012D01*
X009681Y026011D01*
X009680Y026012D01*
X009683Y026067D01*
X009689Y026122D01*
X009699Y026176D01*
X009712Y026230D01*
X009729Y026282D01*
X009750Y026333D01*
X009774Y026383D01*
X009801Y026431D01*
X009831Y026477D01*
X009865Y026521D01*
X009901Y026562D01*
X009940Y026601D01*
X009981Y026637D01*
X010025Y026671D01*
X010071Y026701D01*
X010119Y026728D01*
X010169Y026752D01*
X010220Y026773D01*
X010272Y026790D01*
X010326Y026803D01*
X010380Y026813D01*
X010435Y026819D01*
X010490Y026822D01*
X010490Y026804D01*
X010434Y026801D01*
X010378Y026795D01*
X010322Y026784D01*
X010268Y026770D01*
X010215Y026752D01*
X010163Y026730D01*
X010112Y026704D01*
X010064Y026675D01*
X010018Y026643D01*
X009974Y026608D01*
X009933Y026569D01*
X009894Y026528D01*
X009859Y026484D01*
X009827Y026438D01*
X009798Y026390D01*
X009772Y026339D01*
X009750Y026287D01*
X009732Y026234D01*
X009718Y026180D01*
X009707Y026124D01*
X009701Y026068D01*
X009698Y026012D01*
X009716Y026012D01*
X009719Y026067D01*
X009725Y026122D01*
X009735Y026176D01*
X009750Y026229D01*
X009767Y026281D01*
X009789Y026332D01*
X009814Y026381D01*
X009842Y026428D01*
X009873Y026473D01*
X009908Y026516D01*
X009946Y026556D01*
X009986Y026594D01*
X010029Y026629D01*
X010074Y026660D01*
X010121Y026688D01*
X010170Y026713D01*
X010221Y026735D01*
X010273Y026752D01*
X010326Y026767D01*
X010380Y026777D01*
X010435Y026783D01*
X010490Y026786D01*
X010490Y026768D01*
X010436Y026765D01*
X010383Y026759D01*
X010330Y026749D01*
X010278Y026735D01*
X010227Y026718D01*
X010178Y026697D01*
X010130Y026673D01*
X010084Y026645D01*
X010039Y026614D01*
X009998Y026580D01*
X009958Y026544D01*
X009922Y026504D01*
X009888Y026463D01*
X009857Y026418D01*
X009829Y026372D01*
X009805Y026324D01*
X009784Y026275D01*
X009767Y026224D01*
X009753Y026172D01*
X009743Y026119D01*
X009737Y026066D01*
X009734Y026012D01*
X009752Y026012D01*
X009755Y026064D01*
X009761Y026117D01*
X009771Y026168D01*
X009784Y026219D01*
X009801Y026269D01*
X009821Y026317D01*
X009845Y026364D01*
X009872Y026409D01*
X009902Y026452D01*
X009935Y026493D01*
X009971Y026531D01*
X010009Y026567D01*
X010050Y026600D01*
X010093Y026630D01*
X010138Y026657D01*
X010185Y026681D01*
X010233Y026701D01*
X010283Y026718D01*
X010334Y026731D01*
X010385Y026741D01*
X010438Y026747D01*
X010490Y026750D01*
X010490Y026732D01*
X010436Y026729D01*
X010383Y026723D01*
X010331Y026712D01*
X010279Y026698D01*
X010228Y026680D01*
X010179Y026658D01*
X010132Y026633D01*
X010087Y026604D01*
X010044Y026572D01*
X010003Y026537D01*
X009965Y026499D01*
X009930Y026458D01*
X009898Y026415D01*
X009869Y026370D01*
X009844Y026323D01*
X009822Y026274D01*
X009804Y026223D01*
X009790Y026171D01*
X009779Y026119D01*
X009773Y026066D01*
X009770Y026012D01*
X009788Y026012D01*
X009791Y026064D01*
X009797Y026116D01*
X009807Y026167D01*
X009821Y026218D01*
X009839Y026267D01*
X009860Y026315D01*
X009885Y026361D01*
X009913Y026405D01*
X009944Y026447D01*
X009978Y026487D01*
X010015Y026524D01*
X010055Y026558D01*
X010097Y026589D01*
X010141Y026617D01*
X010187Y026642D01*
X010235Y026663D01*
X010284Y026681D01*
X010335Y026695D01*
X010386Y026705D01*
X010438Y026711D01*
X010490Y026714D01*
X010490Y026696D01*
X010439Y026693D01*
X010389Y026687D01*
X010339Y026677D01*
X010290Y026663D01*
X010242Y026646D01*
X010195Y026625D01*
X010150Y026601D01*
X010107Y026574D01*
X010066Y026544D01*
X010028Y026510D01*
X009992Y026474D01*
X009958Y026436D01*
X009928Y026395D01*
X009901Y026352D01*
X009877Y026307D01*
X009856Y026260D01*
X009839Y026212D01*
X009825Y026163D01*
X009815Y026113D01*
X009809Y026063D01*
X009806Y026012D01*
M02*
