%
M48
M72
T01C0.0276
T02C0.0320
T03C0.0400
T04C0.0787
T05C0.1300
%
T01
X6500Y9752
X6500Y10502
X7500Y10502
X7500Y9752
X12750Y20252
X12750Y21252
X12750Y22752
X12750Y23752
T02
X11500Y24002
X8500Y24002
X5750Y11252
X2750Y11252
T03
X1500Y12252
X1500Y13252
X1500Y14252
X1500Y15252
X1500Y16252
X1500Y17252
X1500Y18252
X1500Y19252
X1500Y20752
X1500Y21752
X1500Y22752
X1500Y23752
X1500Y24752
X1500Y25752
X1500Y26752
X1500Y27752
X20500Y27752
X20500Y26752
X20500Y25752
X20500Y24752
X20500Y23752
X20500Y22752
X20500Y20752
X20500Y19752
X20500Y18752
X20500Y17752
X20500Y16752
X20500Y15752
T04
X13500Y18502
X5500Y13252
T05
X1500Y8752
X18500Y28752
M30
