G04 This is an RS-274x file exported by *
G04 gerbv version 2.6.0 *
G04 More information is available about gerbv at *
G04 http://gerbv.gpleda.org/ *
G04 --End of header info--*
%MOIN*%
%FSLAX34Y34*%
%IPPOS*%
G04 --Define apertures--*
%ADD10C,0.0000*%
%ADD11C,0.0060*%
%ADD12C,0.0080*%
%ADD13C,0.0010*%
%ADD14C,0.0040*%
%ADD15R,0.0150X0.0200*%
%ADD16C,0.0100*%
%ADD17R,0.0197X0.0886*%
%ADD18R,0.0886X0.0197*%
%ADD19C,0.0025*%
%ADD20C,0.0098*%
G04 --Start main section--*
G54D10*
G01X0000500Y0006252D02*
G01X0000500Y0029748D01*
G01X0000500Y0029748D02*
G01X0021370Y0029748D01*
G01X0021370Y0029748D02*
G01X0021370Y0006252D01*
G01X0021370Y0006252D02*
G01X0000500Y0006252D01*
G01X0000850Y0008752D02*
G01X0000852Y0008802D01*
G01X0000852Y0008802D02*
G01X0000858Y0008852D01*
G01X0000858Y0008852D02*
G01X0000868Y0008902D01*
G01X0000868Y0008902D02*
G01X0000881Y0008950D01*
G01X0000881Y0008950D02*
G01X0000898Y0008998D01*
G01X0000898Y0008998D02*
G01X0000919Y0009044D01*
G01X0000919Y0009044D02*
G01X0000943Y0009088D01*
G01X0000943Y0009088D02*
G01X0000971Y0009130D01*
G01X0000971Y0009130D02*
G01X0001002Y0009170D01*
G01X0001002Y0009170D02*
G01X0001036Y0009207D01*
G01X0001036Y0009207D02*
G01X0001073Y0009242D01*
G01X0001073Y0009242D02*
G01X0001112Y0009273D01*
G01X0001112Y0009273D02*
G01X0001153Y0009302D01*
G01X0001153Y0009302D02*
G01X0001197Y0009327D01*
G01X0001197Y0009327D02*
G01X0001243Y0009349D01*
G01X0001243Y0009349D02*
G01X0001290Y0009367D01*
G01X0001290Y0009367D02*
G01X0001338Y0009381D01*
G01X0001338Y0009381D02*
G01X0001387Y0009392D01*
G01X0001387Y0009392D02*
G01X0001437Y0009399D01*
G01X0001437Y0009399D02*
G01X0001487Y0009402D01*
G01X0001487Y0009402D02*
G01X0001538Y0009401D01*
G01X0001538Y0009401D02*
G01X0001588Y0009396D01*
G01X0001588Y0009396D02*
G01X0001638Y0009387D01*
G01X0001638Y0009387D02*
G01X0001686Y0009375D01*
G01X0001686Y0009375D02*
G01X0001734Y0009358D01*
G01X0001734Y0009358D02*
G01X0001780Y0009338D01*
G01X0001780Y0009338D02*
G01X0001825Y0009315D01*
G01X0001825Y0009315D02*
G01X0001868Y0009288D01*
G01X0001868Y0009288D02*
G01X0001908Y0009258D01*
G01X0001908Y0009258D02*
G01X0001946Y0009225D01*
G01X0001946Y0009225D02*
G01X0001981Y0009189D01*
G01X0001981Y0009189D02*
G01X0002014Y0009150D01*
G01X0002014Y0009150D02*
G01X0002043Y0009109D01*
G01X0002043Y0009109D02*
G01X0002069Y0009066D01*
G01X0002069Y0009066D02*
G01X0002092Y0009021D01*
G01X0002092Y0009021D02*
G01X0002111Y0008974D01*
G01X0002111Y0008974D02*
G01X0002126Y0008926D01*
G01X0002126Y0008926D02*
G01X0002138Y0008877D01*
G01X0002138Y0008877D02*
G01X0002146Y0008827D01*
G01X0002146Y0008827D02*
G01X0002150Y0008777D01*
G01X0002150Y0008777D02*
G01X0002150Y0008727D01*
G01X0002150Y0008727D02*
G01X0002146Y0008677D01*
G01X0002146Y0008677D02*
G01X0002138Y0008627D01*
G01X0002138Y0008627D02*
G01X0002126Y0008578D01*
G01X0002126Y0008578D02*
G01X0002111Y0008530D01*
G01X0002111Y0008530D02*
G01X0002092Y0008483D01*
G01X0002092Y0008483D02*
G01X0002069Y0008438D01*
G01X0002069Y0008438D02*
G01X0002043Y0008395D01*
G01X0002043Y0008395D02*
G01X0002014Y0008354D01*
G01X0002014Y0008354D02*
G01X0001981Y0008315D01*
G01X0001981Y0008315D02*
G01X0001946Y0008279D01*
G01X0001946Y0008279D02*
G01X0001908Y0008246D01*
G01X0001908Y0008246D02*
G01X0001868Y0008216D01*
G01X0001868Y0008216D02*
G01X0001825Y0008189D01*
G01X0001825Y0008189D02*
G01X0001780Y0008166D01*
G01X0001780Y0008166D02*
G01X0001734Y0008146D01*
G01X0001734Y0008146D02*
G01X0001686Y0008129D01*
G01X0001686Y0008129D02*
G01X0001638Y0008117D01*
G01X0001638Y0008117D02*
G01X0001588Y0008108D01*
G01X0001588Y0008108D02*
G01X0001538Y0008103D01*
G01X0001538Y0008103D02*
G01X0001487Y0008102D01*
G01X0001487Y0008102D02*
G01X0001437Y0008105D01*
G01X0001437Y0008105D02*
G01X0001387Y0008112D01*
G01X0001387Y0008112D02*
G01X0001338Y0008123D01*
G01X0001338Y0008123D02*
G01X0001290Y0008137D01*
G01X0001290Y0008137D02*
G01X0001243Y0008155D01*
G01X0001243Y0008155D02*
G01X0001197Y0008177D01*
G01X0001197Y0008177D02*
G01X0001153Y0008202D01*
G01X0001153Y0008202D02*
G01X0001112Y0008231D01*
G01X0001112Y0008231D02*
G01X0001073Y0008262D01*
G01X0001073Y0008262D02*
G01X0001036Y0008297D01*
G01X0001036Y0008297D02*
G01X0001002Y0008334D01*
G01X0001002Y0008334D02*
G01X0000971Y0008374D01*
G01X0000971Y0008374D02*
G01X0000943Y0008416D01*
G01X0000943Y0008416D02*
G01X0000919Y0008460D01*
G01X0000919Y0008460D02*
G01X0000898Y0008506D01*
G01X0000898Y0008506D02*
G01X0000881Y0008554D01*
G01X0000881Y0008554D02*
G01X0000868Y0008602D01*
G01X0000868Y0008602D02*
G01X0000858Y0008652D01*
G01X0000858Y0008652D02*
G01X0000852Y0008702D01*
G01X0000852Y0008702D02*
G01X0000850Y0008752D01*
G01X0005106Y0013252D02*
G01X0005108Y0013291D01*
G01X0005108Y0013291D02*
G01X0005114Y0013330D01*
G01X0005114Y0013330D02*
G01X0005124Y0013368D01*
G01X0005124Y0013368D02*
G01X0005137Y0013405D01*
G01X0005137Y0013405D02*
G01X0005154Y0013440D01*
G01X0005154Y0013440D02*
G01X0005174Y0013474D01*
G01X0005174Y0013474D02*
G01X0005198Y0013505D01*
G01X0005198Y0013505D02*
G01X0005225Y0013534D01*
G01X0005225Y0013534D02*
G01X0005254Y0013560D01*
G01X0005254Y0013560D02*
G01X0005286Y0013583D01*
G01X0005286Y0013583D02*
G01X0005320Y0013603D01*
G01X0005320Y0013603D02*
G01X0005356Y0013619D01*
G01X0005356Y0013619D02*
G01X0005393Y0013631D01*
G01X0005393Y0013631D02*
G01X0005432Y0013640D01*
G01X0005432Y0013640D02*
G01X0005471Y0013645D01*
G01X0005471Y0013645D02*
G01X0005510Y0013646D01*
G01X0005510Y0013646D02*
G01X0005549Y0013643D01*
G01X0005549Y0013643D02*
G01X0005588Y0013636D01*
G01X0005588Y0013636D02*
G01X0005625Y0013625D01*
G01X0005625Y0013625D02*
G01X0005662Y0013611D01*
G01X0005662Y0013611D02*
G01X0005697Y0013593D01*
G01X0005697Y0013593D02*
G01X0005730Y0013572D01*
G01X0005730Y0013572D02*
G01X0005761Y0013547D01*
G01X0005761Y0013547D02*
G01X0005789Y0013520D01*
G01X0005789Y0013520D02*
G01X0005814Y0013490D01*
G01X0005814Y0013490D02*
G01X0005836Y0013457D01*
G01X0005836Y0013457D02*
G01X0005855Y0013423D01*
G01X0005855Y0013423D02*
G01X0005870Y0013387D01*
G01X0005870Y0013387D02*
G01X0005882Y0013349D01*
G01X0005882Y0013349D02*
G01X0005890Y0013311D01*
G01X0005890Y0013311D02*
G01X0005894Y0013272D01*
G01X0005894Y0013272D02*
G01X0005894Y0013232D01*
G01X0005894Y0013232D02*
G01X0005890Y0013193D01*
G01X0005890Y0013193D02*
G01X0005882Y0013155D01*
G01X0005882Y0013155D02*
G01X0005870Y0013117D01*
G01X0005870Y0013117D02*
G01X0005855Y0013081D01*
G01X0005855Y0013081D02*
G01X0005836Y0013047D01*
G01X0005836Y0013047D02*
G01X0005814Y0013014D01*
G01X0005814Y0013014D02*
G01X0005789Y0012984D01*
G01X0005789Y0012984D02*
G01X0005761Y0012957D01*
G01X0005761Y0012957D02*
G01X0005730Y0012932D01*
G01X0005730Y0012932D02*
G01X0005697Y0012911D01*
G01X0005697Y0012911D02*
G01X0005662Y0012893D01*
G01X0005662Y0012893D02*
G01X0005625Y0012879D01*
G01X0005625Y0012879D02*
G01X0005588Y0012868D01*
G01X0005588Y0012868D02*
G01X0005549Y0012861D01*
G01X0005549Y0012861D02*
G01X0005510Y0012858D01*
G01X0005510Y0012858D02*
G01X0005471Y0012859D01*
G01X0005471Y0012859D02*
G01X0005432Y0012864D01*
G01X0005432Y0012864D02*
G01X0005393Y0012873D01*
G01X0005393Y0012873D02*
G01X0005356Y0012885D01*
G01X0005356Y0012885D02*
G01X0005320Y0012901D01*
G01X0005320Y0012901D02*
G01X0005286Y0012921D01*
G01X0005286Y0012921D02*
G01X0005254Y0012944D01*
G01X0005254Y0012944D02*
G01X0005225Y0012970D01*
G01X0005225Y0012970D02*
G01X0005198Y0012999D01*
G01X0005198Y0012999D02*
G01X0005174Y0013030D01*
G01X0005174Y0013030D02*
G01X0005154Y0013064D01*
G01X0005154Y0013064D02*
G01X0005137Y0013099D01*
G01X0005137Y0013099D02*
G01X0005124Y0013136D01*
G01X0005124Y0013136D02*
G01X0005114Y0013174D01*
G01X0005114Y0013174D02*
G01X0005108Y0013213D01*
G01X0005108Y0013213D02*
G01X0005106Y0013252D01*
G01X0013106Y0018502D02*
G01X0013108Y0018541D01*
G01X0013108Y0018541D02*
G01X0013114Y0018580D01*
G01X0013114Y0018580D02*
G01X0013124Y0018618D01*
G01X0013124Y0018618D02*
G01X0013137Y0018655D01*
G01X0013137Y0018655D02*
G01X0013154Y0018690D01*
G01X0013154Y0018690D02*
G01X0013174Y0018724D01*
G01X0013174Y0018724D02*
G01X0013198Y0018755D01*
G01X0013198Y0018755D02*
G01X0013225Y0018784D01*
G01X0013225Y0018784D02*
G01X0013254Y0018810D01*
G01X0013254Y0018810D02*
G01X0013286Y0018833D01*
G01X0013286Y0018833D02*
G01X0013320Y0018853D01*
G01X0013320Y0018853D02*
G01X0013356Y0018869D01*
G01X0013356Y0018869D02*
G01X0013393Y0018881D01*
G01X0013393Y0018881D02*
G01X0013432Y0018890D01*
G01X0013432Y0018890D02*
G01X0013471Y0018895D01*
G01X0013471Y0018895D02*
G01X0013510Y0018896D01*
G01X0013510Y0018896D02*
G01X0013549Y0018893D01*
G01X0013549Y0018893D02*
G01X0013588Y0018886D01*
G01X0013588Y0018886D02*
G01X0013625Y0018875D01*
G01X0013625Y0018875D02*
G01X0013662Y0018861D01*
G01X0013662Y0018861D02*
G01X0013697Y0018843D01*
G01X0013697Y0018843D02*
G01X0013730Y0018822D01*
G01X0013730Y0018822D02*
G01X0013761Y0018797D01*
G01X0013761Y0018797D02*
G01X0013789Y0018770D01*
G01X0013789Y0018770D02*
G01X0013814Y0018740D01*
G01X0013814Y0018740D02*
G01X0013836Y0018707D01*
G01X0013836Y0018707D02*
G01X0013855Y0018673D01*
G01X0013855Y0018673D02*
G01X0013870Y0018637D01*
G01X0013870Y0018637D02*
G01X0013882Y0018599D01*
G01X0013882Y0018599D02*
G01X0013890Y0018561D01*
G01X0013890Y0018561D02*
G01X0013894Y0018522D01*
G01X0013894Y0018522D02*
G01X0013894Y0018482D01*
G01X0013894Y0018482D02*
G01X0013890Y0018443D01*
G01X0013890Y0018443D02*
G01X0013882Y0018405D01*
G01X0013882Y0018405D02*
G01X0013870Y0018367D01*
G01X0013870Y0018367D02*
G01X0013855Y0018331D01*
G01X0013855Y0018331D02*
G01X0013836Y0018297D01*
G01X0013836Y0018297D02*
G01X0013814Y0018264D01*
G01X0013814Y0018264D02*
G01X0013789Y0018234D01*
G01X0013789Y0018234D02*
G01X0013761Y0018207D01*
G01X0013761Y0018207D02*
G01X0013730Y0018182D01*
G01X0013730Y0018182D02*
G01X0013697Y0018161D01*
G01X0013697Y0018161D02*
G01X0013662Y0018143D01*
G01X0013662Y0018143D02*
G01X0013625Y0018129D01*
G01X0013625Y0018129D02*
G01X0013588Y0018118D01*
G01X0013588Y0018118D02*
G01X0013549Y0018111D01*
G01X0013549Y0018111D02*
G01X0013510Y0018108D01*
G01X0013510Y0018108D02*
G01X0013471Y0018109D01*
G01X0013471Y0018109D02*
G01X0013432Y0018114D01*
G01X0013432Y0018114D02*
G01X0013393Y0018123D01*
G01X0013393Y0018123D02*
G01X0013356Y0018135D01*
G01X0013356Y0018135D02*
G01X0013320Y0018151D01*
G01X0013320Y0018151D02*
G01X0013286Y0018171D01*
G01X0013286Y0018171D02*
G01X0013254Y0018194D01*
G01X0013254Y0018194D02*
G01X0013225Y0018220D01*
G01X0013225Y0018220D02*
G01X0013198Y0018249D01*
G01X0013198Y0018249D02*
G01X0013174Y0018280D01*
G01X0013174Y0018280D02*
G01X0013154Y0018314D01*
G01X0013154Y0018314D02*
G01X0013137Y0018349D01*
G01X0013137Y0018349D02*
G01X0013124Y0018386D01*
G01X0013124Y0018386D02*
G01X0013114Y0018424D01*
G01X0013114Y0018424D02*
G01X0013108Y0018463D01*
G01X0013108Y0018463D02*
G01X0013106Y0018502D01*
G01X0017850Y0028752D02*
G01X0017852Y0028802D01*
G01X0017852Y0028802D02*
G01X0017858Y0028852D01*
G01X0017858Y0028852D02*
G01X0017868Y0028902D01*
G01X0017868Y0028902D02*
G01X0017881Y0028950D01*
G01X0017881Y0028950D02*
G01X0017898Y0028998D01*
G01X0017898Y0028998D02*
G01X0017919Y0029044D01*
G01X0017919Y0029044D02*
G01X0017943Y0029088D01*
G01X0017943Y0029088D02*
G01X0017971Y0029130D01*
G01X0017971Y0029130D02*
G01X0018002Y0029170D01*
G01X0018002Y0029170D02*
G01X0018036Y0029207D01*
G01X0018036Y0029207D02*
G01X0018073Y0029242D01*
G01X0018073Y0029242D02*
G01X0018112Y0029273D01*
G01X0018112Y0029273D02*
G01X0018153Y0029302D01*
G01X0018153Y0029302D02*
G01X0018197Y0029327D01*
G01X0018197Y0029327D02*
G01X0018243Y0029349D01*
G01X0018243Y0029349D02*
G01X0018290Y0029367D01*
G01X0018290Y0029367D02*
G01X0018338Y0029381D01*
G01X0018338Y0029381D02*
G01X0018387Y0029392D01*
G01X0018387Y0029392D02*
G01X0018437Y0029399D01*
G01X0018437Y0029399D02*
G01X0018487Y0029402D01*
G01X0018487Y0029402D02*
G01X0018538Y0029401D01*
G01X0018538Y0029401D02*
G01X0018588Y0029396D01*
G01X0018588Y0029396D02*
G01X0018638Y0029387D01*
G01X0018638Y0029387D02*
G01X0018686Y0029375D01*
G01X0018686Y0029375D02*
G01X0018734Y0029358D01*
G01X0018734Y0029358D02*
G01X0018780Y0029338D01*
G01X0018780Y0029338D02*
G01X0018825Y0029315D01*
G01X0018825Y0029315D02*
G01X0018868Y0029288D01*
G01X0018868Y0029288D02*
G01X0018908Y0029258D01*
G01X0018908Y0029258D02*
G01X0018946Y0029225D01*
G01X0018946Y0029225D02*
G01X0018981Y0029189D01*
G01X0018981Y0029189D02*
G01X0019014Y0029150D01*
G01X0019014Y0029150D02*
G01X0019043Y0029109D01*
G01X0019043Y0029109D02*
G01X0019069Y0029066D01*
G01X0019069Y0029066D02*
G01X0019092Y0029021D01*
G01X0019092Y0029021D02*
G01X0019111Y0028974D01*
G01X0019111Y0028974D02*
G01X0019126Y0028926D01*
G01X0019126Y0028926D02*
G01X0019138Y0028877D01*
G01X0019138Y0028877D02*
G01X0019146Y0028827D01*
G01X0019146Y0028827D02*
G01X0019150Y0028777D01*
G01X0019150Y0028777D02*
G01X0019150Y0028727D01*
G01X0019150Y0028727D02*
G01X0019146Y0028677D01*
G01X0019146Y0028677D02*
G01X0019138Y0028627D01*
G01X0019138Y0028627D02*
G01X0019126Y0028578D01*
G01X0019126Y0028578D02*
G01X0019111Y0028530D01*
G01X0019111Y0028530D02*
G01X0019092Y0028483D01*
G01X0019092Y0028483D02*
G01X0019069Y0028438D01*
G01X0019069Y0028438D02*
G01X0019043Y0028395D01*
G01X0019043Y0028395D02*
G01X0019014Y0028354D01*
G01X0019014Y0028354D02*
G01X0018981Y0028315D01*
G01X0018981Y0028315D02*
G01X0018946Y0028279D01*
G01X0018946Y0028279D02*
G01X0018908Y0028246D01*
G01X0018908Y0028246D02*
G01X0018868Y0028216D01*
G01X0018868Y0028216D02*
G01X0018825Y0028189D01*
G01X0018825Y0028189D02*
G01X0018780Y0028166D01*
G01X0018780Y0028166D02*
G01X0018734Y0028146D01*
G01X0018734Y0028146D02*
G01X0018686Y0028129D01*
G01X0018686Y0028129D02*
G01X0018638Y0028117D01*
G01X0018638Y0028117D02*
G01X0018588Y0028108D01*
G01X0018588Y0028108D02*
G01X0018538Y0028103D01*
G01X0018538Y0028103D02*
G01X0018487Y0028102D01*
G01X0018487Y0028102D02*
G01X0018437Y0028105D01*
G01X0018437Y0028105D02*
G01X0018387Y0028112D01*
G01X0018387Y0028112D02*
G01X0018338Y0028123D01*
G01X0018338Y0028123D02*
G01X0018290Y0028137D01*
G01X0018290Y0028137D02*
G01X0018243Y0028155D01*
G01X0018243Y0028155D02*
G01X0018197Y0028177D01*
G01X0018197Y0028177D02*
G01X0018153Y0028202D01*
G01X0018153Y0028202D02*
G01X0018112Y0028231D01*
G01X0018112Y0028231D02*
G01X0018073Y0028262D01*
G01X0018073Y0028262D02*
G01X0018036Y0028297D01*
G01X0018036Y0028297D02*
G01X0018002Y0028334D01*
G01X0018002Y0028334D02*
G01X0017971Y0028374D01*
G01X0017971Y0028374D02*
G01X0017943Y0028416D01*
G01X0017943Y0028416D02*
G01X0017919Y0028460D01*
G01X0017919Y0028460D02*
G01X0017898Y0028506D01*
G01X0017898Y0028506D02*
G01X0017881Y0028554D01*
G01X0017881Y0028554D02*
G01X0017868Y0028602D01*
G01X0017868Y0028602D02*
G01X0017858Y0028652D01*
G01X0017858Y0028652D02*
G01X0017852Y0028702D01*
G01X0017852Y0028702D02*
G01X0017850Y0028752D01*
G54D11*
G01X0019155Y0026691D02*
G01X0019325Y0026691D01*
G01X0019155Y0026691D02*
G01X0019098Y0026634D01*
G01X0019098Y0026634D02*
G01X0019098Y0026464D01*
G01X0019098Y0026464D02*
G01X0019325Y0026464D01*
G01X0019325Y0026332D02*
G01X0019325Y0026219D01*
G01X0019325Y0026275D02*
G01X0018985Y0026275D01*
G01X0018985Y0026219D02*
G01X0018985Y0026332D01*
G01X0019098Y0025709D02*
G01X0019098Y0025539D01*
G01X0019098Y0025539D02*
G01X0019155Y0025482D01*
G01X0019155Y0025482D02*
G01X0019268Y0025482D01*
G01X0019268Y0025482D02*
G01X0019325Y0025539D01*
G01X0019325Y0025539D02*
G01X0019325Y0025709D01*
G01X0019382Y0025709D02*
G01X0019098Y0025709D01*
G01X0019382Y0025709D02*
G01X0019438Y0025652D01*
G01X0019438Y0025652D02*
G01X0019438Y0025595D01*
G01X0019617Y0025639D02*
G01X0019673Y0025582D01*
G01X0019673Y0025582D02*
G01X0019787Y0025582D01*
G01X0019787Y0025582D02*
G01X0019844Y0025639D01*
G01X0019844Y0025639D02*
G01X0019844Y0025696D01*
G01X0019844Y0025696D02*
G01X0019787Y0025753D01*
G01X0019787Y0025753D02*
G01X0019730Y0025753D01*
G01X0019787Y0025753D02*
G01X0019844Y0025809D01*
G01X0019844Y0025809D02*
G01X0019844Y0025866D01*
G01X0019844Y0025866D02*
G01X0019787Y0025923D01*
G01X0019787Y0025923D02*
G01X0019673Y0025923D01*
G01X0019673Y0025923D02*
G01X0019617Y0025866D01*
G01X0019268Y0025340D02*
G01X0019155Y0025340D01*
G01X0019155Y0025340D02*
G01X0019098Y0025284D01*
G01X0019098Y0025284D02*
G01X0019098Y0025170D01*
G01X0019098Y0025170D02*
G01X0019155Y0025114D01*
G01X0019155Y0025114D02*
G01X0019268Y0025114D01*
G01X0019268Y0025114D02*
G01X0019325Y0025170D01*
G01X0019325Y0025170D02*
G01X0019325Y0025284D01*
G01X0019325Y0025284D02*
G01X0019268Y0025340D01*
G01X0019325Y0024981D02*
G01X0019325Y0024868D01*
G01X0019325Y0024925D02*
G01X0018985Y0024925D01*
G01X0018985Y0024925D02*
G01X0018985Y0024868D01*
G01X0019155Y0024727D02*
G01X0019325Y0024727D01*
G01X0019325Y0024727D02*
G01X0019325Y0024556D01*
G01X0019325Y0024556D02*
G01X0019268Y0024500D01*
G01X0019268Y0024500D02*
G01X0019212Y0024556D01*
G01X0019212Y0024556D02*
G01X0019212Y0024727D01*
G01X0019155Y0024727D02*
G01X0019098Y0024670D01*
G01X0019098Y0024670D02*
G01X0019098Y0024556D01*
G01X0019155Y0024358D02*
G01X0019325Y0024358D01*
G01X0019155Y0024358D02*
G01X0019098Y0024302D01*
G01X0019098Y0024302D02*
G01X0019098Y0024131D01*
G01X0019098Y0024131D02*
G01X0019325Y0024131D01*
G01X0019325Y0023990D02*
G01X0019098Y0023990D01*
G01X0019098Y0023990D02*
G01X0018985Y0023877D01*
G01X0018985Y0023877D02*
G01X0019098Y0023763D01*
G01X0019098Y0023763D02*
G01X0019325Y0023763D01*
G01X0019155Y0023763D02*
G01X0019155Y0023990D01*
G01X0019617Y0023809D02*
G01X0019730Y0023923D01*
G01X0019730Y0023923D02*
G01X0019730Y0023582D01*
G01X0019617Y0023582D02*
G01X0019844Y0023582D01*
G01X0019787Y0022923D02*
G01X0019673Y0022923D01*
G01X0019673Y0022923D02*
G01X0019617Y0022866D01*
G01X0019617Y0022866D02*
G01X0019617Y0022639D01*
G01X0019617Y0022639D02*
G01X0019844Y0022866D01*
G01X0019844Y0022866D02*
G01X0019844Y0022639D01*
G01X0019844Y0022639D02*
G01X0019787Y0022582D01*
G01X0019787Y0022582D02*
G01X0019673Y0022582D01*
G01X0019673Y0022582D02*
G01X0019617Y0022639D01*
G01X0019844Y0022866D02*
G01X0019787Y0022923D01*
G01X0019844Y0024582D02*
G01X0019617Y0024582D01*
G01X0019617Y0024582D02*
G01X0019844Y0024809D01*
G01X0019844Y0024809D02*
G01X0019844Y0024866D01*
G01X0019844Y0024866D02*
G01X0019787Y0024923D01*
G01X0019787Y0024923D02*
G01X0019673Y0024923D01*
G01X0019673Y0024923D02*
G01X0019617Y0024866D01*
G01X0019787Y0026582D02*
G01X0019787Y0026923D01*
G01X0019787Y0026923D02*
G01X0019617Y0026753D01*
G01X0019617Y0026753D02*
G01X0019844Y0026753D01*
G01X0019787Y0027582D02*
G01X0019673Y0027582D01*
G01X0019673Y0027582D02*
G01X0019617Y0027639D01*
G01X0019617Y0027753D02*
G01X0019730Y0027809D01*
G01X0019730Y0027809D02*
G01X0019787Y0027809D01*
G01X0019787Y0027809D02*
G01X0019844Y0027753D01*
G01X0019844Y0027753D02*
G01X0019844Y0027639D01*
G01X0019844Y0027639D02*
G01X0019787Y0027582D01*
G01X0019617Y0027753D02*
G01X0019617Y0027923D01*
G01X0019617Y0027923D02*
G01X0019844Y0027923D01*
G01X0019844Y0020923D02*
G01X0019844Y0020582D01*
G01X0019844Y0020582D02*
G01X0019617Y0020923D01*
G01X0019617Y0020923D02*
G01X0019617Y0020582D01*
G01X0019485Y0020582D02*
G01X0019371Y0020582D01*
G01X0019428Y0020582D02*
G01X0019428Y0020923D01*
G01X0019371Y0020923D02*
G01X0019485Y0020923D01*
G01X0019230Y0020923D02*
G01X0019230Y0020696D01*
G01X0019230Y0020696D02*
G01X0019116Y0020582D01*
G01X0019116Y0020582D02*
G01X0019003Y0020696D01*
G01X0019003Y0020696D02*
G01X0019003Y0020923D01*
G01X0019050Y0019923D02*
G01X0018937Y0019923D01*
G01X0018937Y0019923D02*
G01X0018880Y0019866D01*
G01X0018880Y0019866D02*
G01X0018880Y0019639D01*
G01X0018880Y0019639D02*
G01X0018937Y0019582D01*
G01X0018937Y0019582D02*
G01X0019050Y0019582D01*
G01X0019050Y0019582D02*
G01X0019107Y0019639D01*
G01X0019107Y0019639D02*
G01X0019107Y0019753D01*
G01X0019107Y0019753D02*
G01X0018993Y0019753D01*
G01X0019107Y0019866D02*
G01X0019050Y0019923D01*
G01X0019248Y0019923D02*
G01X0019248Y0019582D01*
G01X0019475Y0019582D02*
G01X0019248Y0019923D01*
G01X0019475Y0019923D02*
G01X0019475Y0019582D01*
G01X0019617Y0019582D02*
G01X0019617Y0019923D01*
G01X0019617Y0019923D02*
G01X0019787Y0019923D01*
G01X0019787Y0019923D02*
G01X0019844Y0019866D01*
G01X0019844Y0019866D02*
G01X0019844Y0019639D01*
G01X0019844Y0019639D02*
G01X0019787Y0019582D01*
G01X0019787Y0019582D02*
G01X0019617Y0019582D01*
G01X0019617Y0018923D02*
G01X0019787Y0018923D01*
G01X0019787Y0018923D02*
G01X0019844Y0018866D01*
G01X0019844Y0018866D02*
G01X0019844Y0018639D01*
G01X0019844Y0018639D02*
G01X0019787Y0018582D01*
G01X0019787Y0018582D02*
G01X0019617Y0018582D01*
G01X0019617Y0018582D02*
G01X0019617Y0018923D01*
G01X0019475Y0018923D02*
G01X0019475Y0018582D01*
G01X0019475Y0018582D02*
G01X0019248Y0018923D01*
G01X0019248Y0018923D02*
G01X0019248Y0018582D01*
G01X0019107Y0018639D02*
G01X0019107Y0018753D01*
G01X0019107Y0018753D02*
G01X0018993Y0018753D01*
G01X0018880Y0018866D02*
G01X0018880Y0018639D01*
G01X0018880Y0018639D02*
G01X0018937Y0018582D01*
G01X0018937Y0018582D02*
G01X0019050Y0018582D01*
G01X0019050Y0018582D02*
G01X0019107Y0018639D01*
G01X0019107Y0018866D02*
G01X0019050Y0018923D01*
G01X0019050Y0018923D02*
G01X0018937Y0018923D01*
G01X0018937Y0018923D02*
G01X0018880Y0018866D01*
G01X0018993Y0017866D02*
G01X0018993Y0017639D01*
G01X0018880Y0017753D02*
G01X0019107Y0017753D01*
G01X0019248Y0017753D02*
G01X0019362Y0017809D01*
G01X0019362Y0017809D02*
G01X0019419Y0017809D01*
G01X0019419Y0017809D02*
G01X0019475Y0017753D01*
G01X0019475Y0017753D02*
G01X0019475Y0017639D01*
G01X0019475Y0017639D02*
G01X0019419Y0017582D01*
G01X0019419Y0017582D02*
G01X0019305Y0017582D01*
G01X0019305Y0017582D02*
G01X0019248Y0017639D01*
G01X0019248Y0017753D02*
G01X0019248Y0017923D01*
G01X0019248Y0017923D02*
G01X0019475Y0017923D01*
G01X0019617Y0017923D02*
G01X0019617Y0017696D01*
G01X0019617Y0017696D02*
G01X0019730Y0017582D01*
G01X0019730Y0017582D02*
G01X0019844Y0017696D01*
G01X0019844Y0017696D02*
G01X0019844Y0017923D01*
G01X0019844Y0016923D02*
G01X0019844Y0016696D01*
G01X0019844Y0016696D02*
G01X0019730Y0016582D01*
G01X0019730Y0016582D02*
G01X0019617Y0016696D01*
G01X0019617Y0016696D02*
G01X0019617Y0016923D01*
G01X0019475Y0016866D02*
G01X0019475Y0016809D01*
G01X0019475Y0016809D02*
G01X0019419Y0016753D01*
G01X0019419Y0016753D02*
G01X0019475Y0016696D01*
G01X0019475Y0016696D02*
G01X0019475Y0016639D01*
G01X0019475Y0016639D02*
G01X0019419Y0016582D01*
G01X0019419Y0016582D02*
G01X0019305Y0016582D01*
G01X0019305Y0016582D02*
G01X0019248Y0016639D01*
G01X0019121Y0016639D02*
G01X0019121Y0016582D01*
G01X0019121Y0016582D02*
G01X0019064Y0016582D01*
G01X0019064Y0016582D02*
G01X0019064Y0016639D01*
G01X0019064Y0016639D02*
G01X0019121Y0016639D01*
G01X0018923Y0016639D02*
G01X0018866Y0016582D01*
G01X0018866Y0016582D02*
G01X0018753Y0016582D01*
G01X0018753Y0016582D02*
G01X0018696Y0016639D01*
G01X0018809Y0016753D02*
G01X0018866Y0016753D01*
G01X0018866Y0016753D02*
G01X0018923Y0016696D01*
G01X0018923Y0016696D02*
G01X0018923Y0016639D01*
G01X0018866Y0016753D02*
G01X0018923Y0016809D01*
G01X0018923Y0016809D02*
G01X0018923Y0016866D01*
G01X0018923Y0016866D02*
G01X0018866Y0016923D01*
G01X0018866Y0016923D02*
G01X0018753Y0016923D01*
G01X0018753Y0016923D02*
G01X0018696Y0016866D01*
G01X0018554Y0016753D02*
G01X0018328Y0016753D01*
G01X0018441Y0016866D02*
G01X0018441Y0016639D01*
G01X0018880Y0015923D02*
G01X0019050Y0015923D01*
G01X0019050Y0015923D02*
G01X0019107Y0015866D01*
G01X0019107Y0015866D02*
G01X0019107Y0015753D01*
G01X0019107Y0015753D02*
G01X0019050Y0015696D01*
G01X0019050Y0015696D02*
G01X0018880Y0015696D01*
G01X0018993Y0015696D02*
G01X0019107Y0015582D01*
G01X0019248Y0015639D02*
G01X0019305Y0015582D01*
G01X0019305Y0015582D02*
G01X0019419Y0015582D01*
G01X0019419Y0015582D02*
G01X0019475Y0015639D01*
G01X0019475Y0015639D02*
G01X0019475Y0015696D01*
G01X0019475Y0015696D02*
G01X0019419Y0015753D01*
G01X0019419Y0015753D02*
G01X0019305Y0015753D01*
G01X0019305Y0015753D02*
G01X0019248Y0015809D01*
G01X0019248Y0015809D02*
G01X0019248Y0015866D01*
G01X0019248Y0015866D02*
G01X0019305Y0015923D01*
G01X0019305Y0015923D02*
G01X0019419Y0015923D01*
G01X0019419Y0015923D02*
G01X0019475Y0015866D01*
G01X0019617Y0015923D02*
G01X0019844Y0015923D01*
G01X0019730Y0015923D02*
G01X0019730Y0015582D01*
G01X0019419Y0016753D02*
G01X0019362Y0016753D01*
G01X0019475Y0016866D02*
G01X0019419Y0016923D01*
G01X0019419Y0016923D02*
G01X0019305Y0016923D01*
G01X0019305Y0016923D02*
G01X0019248Y0016866D01*
G01X0018880Y0015923D02*
G01X0018880Y0015582D01*
G01X0010900Y0023602D02*
G01X0010750Y0023602D01*
G01X0010750Y0023602D02*
G01X0010700Y0023652D01*
G01X0010700Y0023652D02*
G01X0009300Y0023652D01*
G01X0009300Y0023652D02*
G01X0009250Y0023602D01*
G01X0009250Y0023602D02*
G01X0009100Y0023602D01*
G01X0009100Y0023602D02*
G01X0009083Y0023604D01*
G01X0009083Y0023604D02*
G01X0009066Y0023608D01*
G01X0009066Y0023608D02*
G01X0009050Y0023615D01*
G01X0009050Y0023615D02*
G01X0009036Y0023625D01*
G01X0009036Y0023625D02*
G01X0009023Y0023638D01*
G01X0009023Y0023638D02*
G01X0009013Y0023652D01*
G01X0009013Y0023652D02*
G01X0009006Y0023668D01*
G01X0009006Y0023668D02*
G01X0009002Y0023685D01*
G01X0009002Y0023685D02*
G01X0009000Y0023702D01*
G01X0009000Y0023702D02*
G01X0009000Y0024302D01*
G01X0009000Y0024302D02*
G01X0009002Y0024319D01*
G01X0009002Y0024319D02*
G01X0009006Y0024336D01*
G01X0009006Y0024336D02*
G01X0009013Y0024352D01*
G01X0009013Y0024352D02*
G01X0009023Y0024366D01*
G01X0009023Y0024366D02*
G01X0009036Y0024379D01*
G01X0009036Y0024379D02*
G01X0009050Y0024389D01*
G01X0009050Y0024389D02*
G01X0009066Y0024396D01*
G01X0009066Y0024396D02*
G01X0009083Y0024400D01*
G01X0009083Y0024400D02*
G01X0009100Y0024402D01*
G01X0009100Y0024402D02*
G01X0009250Y0024402D01*
G01X0009250Y0024402D02*
G01X0009300Y0024352D01*
G01X0009300Y0024352D02*
G01X0010700Y0024352D01*
G01X0010700Y0024352D02*
G01X0010750Y0024402D01*
G01X0010750Y0024402D02*
G01X0010900Y0024402D01*
G01X0010900Y0024402D02*
G01X0010917Y0024400D01*
G01X0010917Y0024400D02*
G01X0010934Y0024396D01*
G01X0010934Y0024396D02*
G01X0010950Y0024389D01*
G01X0010950Y0024389D02*
G01X0010964Y0024379D01*
G01X0010964Y0024379D02*
G01X0010977Y0024366D01*
G01X0010977Y0024366D02*
G01X0010987Y0024352D01*
G01X0010987Y0024352D02*
G01X0010994Y0024336D01*
G01X0010994Y0024336D02*
G01X0010998Y0024319D01*
G01X0010998Y0024319D02*
G01X0011000Y0024302D01*
G01X0011000Y0024302D02*
G01X0011000Y0023702D01*
G01X0011000Y0023702D02*
G01X0010998Y0023685D01*
G01X0010998Y0023685D02*
G01X0010994Y0023668D01*
G01X0010994Y0023668D02*
G01X0010987Y0023652D01*
G01X0010987Y0023652D02*
G01X0010977Y0023638D01*
G01X0010977Y0023638D02*
G01X0010964Y0023625D01*
G01X0010964Y0023625D02*
G01X0010950Y0023615D01*
G01X0010950Y0023615D02*
G01X0010934Y0023608D01*
G01X0010934Y0023608D02*
G01X0010917Y0023604D01*
G01X0010917Y0023604D02*
G01X0010900Y0023602D01*
G01X0002937Y0013423D02*
G01X0002767Y0013423D01*
G01X0002767Y0013423D02*
G01X0002767Y0013082D01*
G01X0002767Y0013082D02*
G01X0002937Y0013082D01*
G01X0002937Y0013082D02*
G01X0002993Y0013139D01*
G01X0002993Y0013139D02*
G01X0002993Y0013366D01*
G01X0002993Y0013366D02*
G01X0002937Y0013423D01*
G01X0002625Y0013423D02*
G01X0002625Y0013082D01*
G01X0002625Y0013082D02*
G01X0002398Y0013423D01*
G01X0002398Y0013423D02*
G01X0002398Y0013082D01*
G01X0002257Y0013139D02*
G01X0002257Y0013253D01*
G01X0002257Y0013253D02*
G01X0002143Y0013253D01*
G01X0002030Y0013366D02*
G01X0002030Y0013139D01*
G01X0002030Y0013139D02*
G01X0002087Y0013082D01*
G01X0002087Y0013082D02*
G01X0002200Y0013082D01*
G01X0002200Y0013082D02*
G01X0002257Y0013139D01*
G01X0002257Y0013366D02*
G01X0002200Y0013423D01*
G01X0002200Y0013423D02*
G01X0002087Y0013423D01*
G01X0002087Y0013423D02*
G01X0002030Y0013366D01*
G01X0002030Y0014082D02*
G01X0002257Y0014082D01*
G01X0002143Y0014082D02*
G01X0002143Y0014423D01*
G01X0002143Y0014423D02*
G01X0002030Y0014309D01*
G01X0002398Y0014366D02*
G01X0002455Y0014423D01*
G01X0002455Y0014423D02*
G01X0002568Y0014423D01*
G01X0002568Y0014423D02*
G01X0002625Y0014366D01*
G01X0002625Y0014366D02*
G01X0002625Y0014309D01*
G01X0002625Y0014309D02*
G01X0002568Y0014253D01*
G01X0002568Y0014253D02*
G01X0002625Y0014196D01*
G01X0002625Y0014196D02*
G01X0002625Y0014139D01*
G01X0002625Y0014139D02*
G01X0002568Y0014082D01*
G01X0002568Y0014082D02*
G01X0002455Y0014082D01*
G01X0002455Y0014082D02*
G01X0002398Y0014139D01*
G01X0002512Y0014253D02*
G01X0002568Y0014253D01*
G01X0002625Y0015082D02*
G01X0002398Y0015082D01*
G01X0002398Y0015082D02*
G01X0002625Y0015309D01*
G01X0002625Y0015309D02*
G01X0002625Y0015366D01*
G01X0002625Y0015366D02*
G01X0002568Y0015423D01*
G01X0002568Y0015423D02*
G01X0002455Y0015423D01*
G01X0002455Y0015423D02*
G01X0002398Y0015366D01*
G01X0002257Y0015082D02*
G01X0002030Y0015082D01*
G01X0002143Y0015082D02*
G01X0002143Y0015423D01*
G01X0002143Y0015423D02*
G01X0002030Y0015309D01*
G01X0002030Y0016082D02*
G01X0002257Y0016082D01*
G01X0002143Y0016082D02*
G01X0002143Y0016423D01*
G01X0002143Y0016423D02*
G01X0002030Y0016309D01*
G01X0002398Y0016309D02*
G01X0002512Y0016423D01*
G01X0002512Y0016423D02*
G01X0002512Y0016082D01*
G01X0002625Y0016082D02*
G01X0002398Y0016082D01*
G01X0002455Y0017082D02*
G01X0002398Y0017139D01*
G01X0002398Y0017139D02*
G01X0002625Y0017366D01*
G01X0002625Y0017366D02*
G01X0002625Y0017139D01*
G01X0002625Y0017139D02*
G01X0002568Y0017082D01*
G01X0002568Y0017082D02*
G01X0002455Y0017082D01*
G01X0002398Y0017139D02*
G01X0002398Y0017366D01*
G01X0002398Y0017366D02*
G01X0002455Y0017423D01*
G01X0002455Y0017423D02*
G01X0002568Y0017423D01*
G01X0002568Y0017423D02*
G01X0002625Y0017366D01*
G01X0002257Y0017082D02*
G01X0002030Y0017082D01*
G01X0002143Y0017082D02*
G01X0002143Y0017423D01*
G01X0002143Y0017423D02*
G01X0002030Y0017309D01*
G01X0002087Y0018082D02*
G01X0002200Y0018082D01*
G01X0002200Y0018082D02*
G01X0002257Y0018139D01*
G01X0002257Y0018139D02*
G01X0002257Y0018366D01*
G01X0002257Y0018366D02*
G01X0002200Y0018423D01*
G01X0002200Y0018423D02*
G01X0002087Y0018423D01*
G01X0002087Y0018423D02*
G01X0002030Y0018366D01*
G01X0002030Y0018366D02*
G01X0002030Y0018309D01*
G01X0002030Y0018309D02*
G01X0002087Y0018253D01*
G01X0002087Y0018253D02*
G01X0002257Y0018253D01*
G01X0002087Y0018082D02*
G01X0002030Y0018139D01*
G01X0002087Y0019082D02*
G01X0002030Y0019139D01*
G01X0002030Y0019139D02*
G01X0002030Y0019196D01*
G01X0002030Y0019196D02*
G01X0002087Y0019253D01*
G01X0002087Y0019253D02*
G01X0002200Y0019253D01*
G01X0002200Y0019253D02*
G01X0002257Y0019196D01*
G01X0002257Y0019196D02*
G01X0002257Y0019139D01*
G01X0002257Y0019139D02*
G01X0002200Y0019082D01*
G01X0002200Y0019082D02*
G01X0002087Y0019082D01*
G01X0002087Y0019253D02*
G01X0002030Y0019309D01*
G01X0002030Y0019309D02*
G01X0002030Y0019366D01*
G01X0002030Y0019366D02*
G01X0002087Y0019423D01*
G01X0002087Y0019423D02*
G01X0002200Y0019423D01*
G01X0002200Y0019423D02*
G01X0002257Y0019366D01*
G01X0002257Y0019366D02*
G01X0002257Y0019309D01*
G01X0002257Y0019309D02*
G01X0002200Y0019253D01*
G01X0002030Y0020582D02*
G01X0002030Y0020639D01*
G01X0002030Y0020639D02*
G01X0002257Y0020866D01*
G01X0002257Y0020866D02*
G01X0002257Y0020923D01*
G01X0002257Y0020923D02*
G01X0002030Y0020923D01*
G01X0002087Y0021582D02*
G01X0002200Y0021582D01*
G01X0002200Y0021582D02*
G01X0002257Y0021639D01*
G01X0002257Y0021639D02*
G01X0002257Y0021696D01*
G01X0002257Y0021696D02*
G01X0002200Y0021753D01*
G01X0002200Y0021753D02*
G01X0002030Y0021753D01*
G01X0002030Y0021753D02*
G01X0002030Y0021639D01*
G01X0002030Y0021639D02*
G01X0002087Y0021582D01*
G01X0002030Y0021753D02*
G01X0002143Y0021866D01*
G01X0002143Y0021866D02*
G01X0002257Y0021923D01*
G01X0002200Y0022582D02*
G01X0002087Y0022582D01*
G01X0002087Y0022582D02*
G01X0002030Y0022639D01*
G01X0002030Y0022753D02*
G01X0002143Y0022809D01*
G01X0002143Y0022809D02*
G01X0002200Y0022809D01*
G01X0002200Y0022809D02*
G01X0002257Y0022753D01*
G01X0002257Y0022753D02*
G01X0002257Y0022639D01*
G01X0002257Y0022639D02*
G01X0002200Y0022582D01*
G01X0002030Y0022753D02*
G01X0002030Y0022923D01*
G01X0002030Y0022923D02*
G01X0002257Y0022923D01*
G01X0002200Y0023582D02*
G01X0002200Y0023923D01*
G01X0002200Y0023923D02*
G01X0002030Y0023753D01*
G01X0002030Y0023753D02*
G01X0002257Y0023753D01*
G01X0002200Y0024582D02*
G01X0002087Y0024582D01*
G01X0002087Y0024582D02*
G01X0002030Y0024639D01*
G01X0002143Y0024753D02*
G01X0002200Y0024753D01*
G01X0002200Y0024753D02*
G01X0002257Y0024696D01*
G01X0002257Y0024696D02*
G01X0002257Y0024639D01*
G01X0002257Y0024639D02*
G01X0002200Y0024582D01*
G01X0002200Y0024753D02*
G01X0002257Y0024809D01*
G01X0002257Y0024809D02*
G01X0002257Y0024866D01*
G01X0002257Y0024866D02*
G01X0002200Y0024923D01*
G01X0002200Y0024923D02*
G01X0002087Y0024923D01*
G01X0002087Y0024923D02*
G01X0002030Y0024866D01*
G01X0002030Y0025582D02*
G01X0002257Y0025809D01*
G01X0002257Y0025809D02*
G01X0002257Y0025866D01*
G01X0002257Y0025866D02*
G01X0002200Y0025923D01*
G01X0002200Y0025923D02*
G01X0002087Y0025923D01*
G01X0002087Y0025923D02*
G01X0002030Y0025866D01*
G01X0002030Y0025582D02*
G01X0002257Y0025582D01*
G01X0002143Y0026582D02*
G01X0002143Y0026923D01*
G01X0002030Y0026923D02*
G01X0002257Y0026923D01*
G01X0002398Y0026923D02*
G01X0002625Y0026582D01*
G01X0002398Y0026582D02*
G01X0002625Y0026923D01*
G01X0002625Y0027582D02*
G01X0002398Y0027923D01*
G01X0002257Y0027866D02*
G01X0002257Y0027753D01*
G01X0002257Y0027753D02*
G01X0002200Y0027696D01*
G01X0002200Y0027696D02*
G01X0002030Y0027696D01*
G01X0002143Y0027696D02*
G01X0002257Y0027582D01*
G01X0002398Y0027582D02*
G01X0002625Y0027923D01*
G01X0002257Y0027866D02*
G01X0002200Y0027923D01*
G01X0002200Y0027923D02*
G01X0002030Y0027923D01*
G01X0002030Y0027923D02*
G01X0002030Y0027582D01*
G01X0002143Y0012423D02*
G01X0002257Y0012309D01*
G01X0002257Y0012309D02*
G01X0002257Y0012082D01*
G01X0002398Y0012082D02*
G01X0002398Y0012423D01*
G01X0002398Y0012423D02*
G01X0002568Y0012423D01*
G01X0002568Y0012423D02*
G01X0002625Y0012366D01*
G01X0002625Y0012366D02*
G01X0002625Y0012253D01*
G01X0002625Y0012253D02*
G01X0002568Y0012196D01*
G01X0002568Y0012196D02*
G01X0002398Y0012196D01*
G01X0002512Y0012196D02*
G01X0002625Y0012082D01*
G01X0002767Y0012082D02*
G01X0002993Y0012082D01*
G01X0003135Y0012082D02*
G01X0003135Y0012423D01*
G01X0003135Y0012423D02*
G01X0003362Y0012423D01*
G01X0003248Y0012253D02*
G01X0003135Y0012253D01*
G01X0002993Y0012423D02*
G01X0002767Y0012423D01*
G01X0002767Y0012423D02*
G01X0002767Y0012082D01*
G01X0002767Y0012253D02*
G01X0002880Y0012253D01*
G01X0003350Y0011652D02*
G01X0003500Y0011652D01*
G01X0003500Y0011652D02*
G01X0003550Y0011602D01*
G01X0003550Y0011602D02*
G01X0004950Y0011602D01*
G01X0004950Y0011602D02*
G01X0005000Y0011652D01*
G01X0005000Y0011652D02*
G01X0005150Y0011652D01*
G01X0005150Y0011652D02*
G01X0005167Y0011650D01*
G01X0005167Y0011650D02*
G01X0005184Y0011646D01*
G01X0005184Y0011646D02*
G01X0005200Y0011639D01*
G01X0005200Y0011639D02*
G01X0005214Y0011629D01*
G01X0005214Y0011629D02*
G01X0005227Y0011616D01*
G01X0005227Y0011616D02*
G01X0005237Y0011602D01*
G01X0005237Y0011602D02*
G01X0005244Y0011586D01*
G01X0005244Y0011586D02*
G01X0005248Y0011569D01*
G01X0005248Y0011569D02*
G01X0005250Y0011552D01*
G01X0005250Y0011552D02*
G01X0005250Y0010952D01*
G01X0005250Y0010952D02*
G01X0005248Y0010935D01*
G01X0005248Y0010935D02*
G01X0005244Y0010918D01*
G01X0005244Y0010918D02*
G01X0005237Y0010902D01*
G01X0005237Y0010902D02*
G01X0005227Y0010888D01*
G01X0005227Y0010888D02*
G01X0005214Y0010875D01*
G01X0005214Y0010875D02*
G01X0005200Y0010865D01*
G01X0005200Y0010865D02*
G01X0005184Y0010858D01*
G01X0005184Y0010858D02*
G01X0005167Y0010854D01*
G01X0005167Y0010854D02*
G01X0005150Y0010852D01*
G01X0005150Y0010852D02*
G01X0005000Y0010852D01*
G01X0005000Y0010852D02*
G01X0004950Y0010902D01*
G01X0004950Y0010902D02*
G01X0003550Y0010902D01*
G01X0003550Y0010902D02*
G01X0003500Y0010852D01*
G01X0003500Y0010852D02*
G01X0003350Y0010852D01*
G01X0003350Y0010852D02*
G01X0003333Y0010854D01*
G01X0003333Y0010854D02*
G01X0003316Y0010858D01*
G01X0003316Y0010858D02*
G01X0003300Y0010865D01*
G01X0003300Y0010865D02*
G01X0003286Y0010875D01*
G01X0003286Y0010875D02*
G01X0003273Y0010888D01*
G01X0003273Y0010888D02*
G01X0003263Y0010902D01*
G01X0003263Y0010902D02*
G01X0003256Y0010918D01*
G01X0003256Y0010918D02*
G01X0003252Y0010935D01*
G01X0003252Y0010935D02*
G01X0003250Y0010952D01*
G01X0003250Y0010952D02*
G01X0003250Y0011552D01*
G01X0003250Y0011552D02*
G01X0003252Y0011569D01*
G01X0003252Y0011569D02*
G01X0003256Y0011586D01*
G01X0003256Y0011586D02*
G01X0003263Y0011602D01*
G01X0003263Y0011602D02*
G01X0003273Y0011616D01*
G01X0003273Y0011616D02*
G01X0003286Y0011629D01*
G01X0003286Y0011629D02*
G01X0003300Y0011639D01*
G01X0003300Y0011639D02*
G01X0003316Y0011646D01*
G01X0003316Y0011646D02*
G01X0003333Y0011650D01*
G01X0003333Y0011650D02*
G01X0003350Y0011652D01*
G01X0002257Y0012253D02*
G01X0002030Y0012253D01*
G01X0002030Y0012309D02*
G01X0002030Y0012082D01*
G01X0002030Y0012309D02*
G01X0002143Y0012423D01*
G54D12*
G01X0007000Y0010752D02*
G01X0007000Y0010252D01*
G01X0007000Y0010002D02*
G01X0007000Y0009502D01*
G01X0012500Y0020752D02*
G01X0013000Y0020752D01*
G01X0013000Y0023252D02*
G01X0012500Y0023252D01*
G54D13*
G01X0013255Y0023288D02*
G01X0013280Y0023263D01*
G01X0013280Y0023263D02*
G01X0013380Y0023263D01*
G01X0013380Y0023263D02*
G01X0013405Y0023288D01*
G01X0013405Y0023288D02*
G01X0013405Y0023338D01*
G01X0013405Y0023338D02*
G01X0013380Y0023363D01*
G01X0013405Y0023410D02*
G01X0013405Y0023510D01*
G01X0013405Y0023460D02*
G01X0013255Y0023460D01*
G01X0013255Y0023460D02*
G01X0013305Y0023410D01*
G01X0013280Y0023363D02*
G01X0013255Y0023338D01*
G01X0013255Y0023338D02*
G01X0013255Y0023288D01*
G01X0012245Y0020705D02*
G01X0012245Y0020605D01*
G01X0012245Y0020605D02*
G01X0012145Y0020705D01*
G01X0012145Y0020705D02*
G01X0012120Y0020705D01*
G01X0012120Y0020705D02*
G01X0012095Y0020680D01*
G01X0012095Y0020680D02*
G01X0012095Y0020630D01*
G01X0012095Y0020630D02*
G01X0012120Y0020605D01*
G01X0012120Y0020557D02*
G01X0012095Y0020532D01*
G01X0012095Y0020532D02*
G01X0012095Y0020482D01*
G01X0012095Y0020482D02*
G01X0012120Y0020457D01*
G01X0012120Y0020457D02*
G01X0012220Y0020457D01*
G01X0012220Y0020457D02*
G01X0012245Y0020482D01*
G01X0012245Y0020482D02*
G01X0012245Y0020532D01*
G01X0012245Y0020532D02*
G01X0012220Y0020557D01*
G01X0007233Y0009997D02*
G01X0007258Y0009972D01*
G01X0007258Y0009972D02*
G01X0007258Y0009947D01*
G01X0007258Y0009947D02*
G01X0007233Y0009922D01*
G01X0007233Y0009922D02*
G01X0007258Y0009897D01*
G01X0007258Y0009897D02*
G01X0007258Y0009872D01*
G01X0007258Y0009872D02*
G01X0007233Y0009847D01*
G01X0007233Y0009847D02*
G01X0007183Y0009847D01*
G01X0007183Y0009847D02*
G01X0007158Y0009872D01*
G01X0007110Y0009872D02*
G01X0007085Y0009847D01*
G01X0007085Y0009847D02*
G01X0007035Y0009847D01*
G01X0007035Y0009847D02*
G01X0007010Y0009872D01*
G01X0007010Y0009872D02*
G01X0007010Y0009972D01*
G01X0007010Y0009972D02*
G01X0007035Y0009997D01*
G01X0007035Y0009997D02*
G01X0007085Y0009997D01*
G01X0007085Y0009997D02*
G01X0007110Y0009972D01*
G01X0007158Y0009972D02*
G01X0007183Y0009997D01*
G01X0007183Y0009997D02*
G01X0007233Y0009997D01*
G01X0007233Y0009922D02*
G01X0007208Y0009922D01*
G01X0007233Y0009247D02*
G01X0007158Y0009172D01*
G01X0007158Y0009172D02*
G01X0007258Y0009172D01*
G01X0007233Y0009097D02*
G01X0007233Y0009247D01*
G01X0007110Y0009222D02*
G01X0007085Y0009247D01*
G01X0007085Y0009247D02*
G01X0007035Y0009247D01*
G01X0007035Y0009247D02*
G01X0007010Y0009222D01*
G01X0007010Y0009222D02*
G01X0007010Y0009122D01*
G01X0007010Y0009122D02*
G01X0007035Y0009097D01*
G01X0007035Y0009097D02*
G01X0007085Y0009097D01*
G01X0007085Y0009097D02*
G01X0007110Y0009122D01*
G54D14*
G01X0008750Y0011272D02*
G01X0008903Y0011272D01*
G01X0008903Y0011272D02*
G01X0008980Y0011349D01*
G01X0008980Y0011349D02*
G01X0008980Y0011579D01*
G01X0008903Y0011733D02*
G01X0008827Y0011809D01*
G01X0008827Y0011809D02*
G01X0008827Y0012040D01*
G01X0008750Y0012040D02*
G01X0008980Y0012040D01*
G01X0008980Y0012040D02*
G01X0008980Y0011809D01*
G01X0008980Y0011809D02*
G01X0008903Y0011733D01*
G01X0008673Y0011809D02*
G01X0008673Y0011963D01*
G01X0008673Y0011963D02*
G01X0008750Y0012040D01*
G01X0008673Y0012193D02*
G01X0008673Y0012347D01*
G01X0008596Y0012270D02*
G01X0008903Y0012270D01*
G01X0008903Y0012270D02*
G01X0008980Y0012347D01*
G01X0008750Y0012500D02*
G01X0008750Y0012807D01*
G01X0008903Y0012960D02*
G01X0008596Y0012960D01*
G01X0008596Y0012960D02*
G01X0008520Y0013037D01*
G01X0008520Y0013037D02*
G01X0008520Y0013191D01*
G01X0008520Y0013191D02*
G01X0008596Y0013267D01*
G01X0008596Y0013267D02*
G01X0008903Y0012960D01*
G01X0008903Y0012960D02*
G01X0008980Y0013037D01*
G01X0008980Y0013037D02*
G01X0008980Y0013191D01*
G01X0008980Y0013191D02*
G01X0008903Y0013267D01*
G01X0008903Y0013267D02*
G01X0008596Y0013267D01*
G01X0008673Y0013421D02*
G01X0008520Y0013574D01*
G01X0008520Y0013574D02*
G01X0008980Y0013574D01*
G01X0008980Y0013421D02*
G01X0008980Y0013728D01*
G01X0008903Y0013881D02*
G01X0008750Y0013881D01*
G01X0008750Y0013881D02*
G01X0008750Y0014111D01*
G01X0008750Y0014111D02*
G01X0008827Y0014188D01*
G01X0008827Y0014188D02*
G01X0008903Y0014188D01*
G01X0008903Y0014188D02*
G01X0008980Y0014111D01*
G01X0008980Y0014111D02*
G01X0008980Y0013958D01*
G01X0008980Y0013958D02*
G01X0008903Y0013881D01*
G01X0008750Y0013881D02*
G01X0008596Y0014035D01*
G01X0008596Y0014035D02*
G01X0008520Y0014188D01*
G01X0008673Y0014342D02*
G01X0008903Y0014342D01*
G01X0008903Y0014342D02*
G01X0008980Y0014418D01*
G01X0008980Y0014418D02*
G01X0008903Y0014495D01*
G01X0008903Y0014495D02*
G01X0008980Y0014572D01*
G01X0008980Y0014572D02*
G01X0008903Y0014649D01*
G01X0008903Y0014649D02*
G01X0008673Y0014649D01*
G01X0008520Y0012730D02*
G01X0008750Y0012500D01*
G01X0008980Y0012730D02*
G01X0008520Y0012730D01*
G01X0008673Y0011579D02*
G01X0008673Y0011349D01*
G01X0008673Y0011349D02*
G01X0008750Y0011272D01*
G01X0004956Y0013252D02*
G01X0004958Y0013298D01*
G01X0004958Y0013298D02*
G01X0004964Y0013344D01*
G01X0004964Y0013344D02*
G01X0004974Y0013389D01*
G01X0004974Y0013389D02*
G01X0004987Y0013433D01*
G01X0004987Y0013433D02*
G01X0005004Y0013476D01*
G01X0005004Y0013476D02*
G01X0005025Y0013517D01*
G01X0005025Y0013517D02*
G01X0005049Y0013557D01*
G01X0005049Y0013557D02*
G01X0005077Y0013594D01*
G01X0005077Y0013594D02*
G01X0005107Y0013628D01*
G01X0005107Y0013628D02*
G01X0005141Y0013660D01*
G01X0005141Y0013660D02*
G01X0005177Y0013689D01*
G01X0005177Y0013689D02*
G01X0005215Y0013715D01*
G01X0005215Y0013715D02*
G01X0005255Y0013738D01*
G01X0005255Y0013738D02*
G01X0005297Y0013757D01*
G01X0005297Y0013757D02*
G01X0005341Y0013772D01*
G01X0005341Y0013772D02*
G01X0005385Y0013784D01*
G01X0005385Y0013784D02*
G01X0005431Y0013792D01*
G01X0005431Y0013792D02*
G01X0005477Y0013796D01*
G01X0005477Y0013796D02*
G01X0005523Y0013796D01*
G01X0005523Y0013796D02*
G01X0005569Y0013792D01*
G01X0005569Y0013792D02*
G01X0005615Y0013784D01*
G01X0005615Y0013784D02*
G01X0005659Y0013772D01*
G01X0005659Y0013772D02*
G01X0005703Y0013757D01*
G01X0005703Y0013757D02*
G01X0005745Y0013738D01*
G01X0005745Y0013738D02*
G01X0005785Y0013715D01*
G01X0005785Y0013715D02*
G01X0005823Y0013689D01*
G01X0005823Y0013689D02*
G01X0005859Y0013660D01*
G01X0005859Y0013660D02*
G01X0005893Y0013628D01*
G01X0005893Y0013628D02*
G01X0005923Y0013594D01*
G01X0005923Y0013594D02*
G01X0005951Y0013557D01*
G01X0005951Y0013557D02*
G01X0005975Y0013517D01*
G01X0005975Y0013517D02*
G01X0005996Y0013476D01*
G01X0005996Y0013476D02*
G01X0006013Y0013433D01*
G01X0006013Y0013433D02*
G01X0006026Y0013389D01*
G01X0006026Y0013389D02*
G01X0006036Y0013344D01*
G01X0006036Y0013344D02*
G01X0006042Y0013298D01*
G01X0006042Y0013298D02*
G01X0006044Y0013252D01*
G01X0006044Y0013252D02*
G01X0006042Y0013206D01*
G01X0006042Y0013206D02*
G01X0006036Y0013160D01*
G01X0006036Y0013160D02*
G01X0006026Y0013115D01*
G01X0006026Y0013115D02*
G01X0006013Y0013071D01*
G01X0006013Y0013071D02*
G01X0005996Y0013028D01*
G01X0005996Y0013028D02*
G01X0005975Y0012987D01*
G01X0005975Y0012987D02*
G01X0005951Y0012947D01*
G01X0005951Y0012947D02*
G01X0005923Y0012910D01*
G01X0005923Y0012910D02*
G01X0005893Y0012876D01*
G01X0005893Y0012876D02*
G01X0005859Y0012844D01*
G01X0005859Y0012844D02*
G01X0005823Y0012815D01*
G01X0005823Y0012815D02*
G01X0005785Y0012789D01*
G01X0005785Y0012789D02*
G01X0005745Y0012766D01*
G01X0005745Y0012766D02*
G01X0005703Y0012747D01*
G01X0005703Y0012747D02*
G01X0005659Y0012732D01*
G01X0005659Y0012732D02*
G01X0005615Y0012720D01*
G01X0005615Y0012720D02*
G01X0005569Y0012712D01*
G01X0005569Y0012712D02*
G01X0005523Y0012708D01*
G01X0005523Y0012708D02*
G01X0005477Y0012708D01*
G01X0005477Y0012708D02*
G01X0005431Y0012712D01*
G01X0005431Y0012712D02*
G01X0005385Y0012720D01*
G01X0005385Y0012720D02*
G01X0005341Y0012732D01*
G01X0005341Y0012732D02*
G01X0005297Y0012747D01*
G01X0005297Y0012747D02*
G01X0005255Y0012766D01*
G01X0005255Y0012766D02*
G01X0005215Y0012789D01*
G01X0005215Y0012789D02*
G01X0005177Y0012815D01*
G01X0005177Y0012815D02*
G01X0005141Y0012844D01*
G01X0005141Y0012844D02*
G01X0005107Y0012876D01*
G01X0005107Y0012876D02*
G01X0005077Y0012910D01*
G01X0005077Y0012910D02*
G01X0005049Y0012947D01*
G01X0005049Y0012947D02*
G01X0005025Y0012987D01*
G01X0005025Y0012987D02*
G01X0005004Y0013028D01*
G01X0005004Y0013028D02*
G01X0004987Y0013071D01*
G01X0004987Y0013071D02*
G01X0004974Y0013115D01*
G01X0004974Y0013115D02*
G01X0004964Y0013160D01*
G01X0004964Y0013160D02*
G01X0004958Y0013206D01*
G01X0004958Y0013206D02*
G01X0004956Y0013252D01*
G01X0004849Y0012461D02*
G01X0005012Y0012298D01*
G01X0005012Y0012298D02*
G01X0005012Y0012190D01*
G01X0005012Y0012190D02*
G01X0004903Y0012081D01*
G01X0004903Y0012081D02*
G01X0004795Y0012081D01*
G01X0004795Y0012081D02*
G01X0004632Y0012244D01*
G01X0004524Y0012136D02*
G01X0004849Y0012461D01*
G01X0004741Y0012136D02*
G01X0004741Y0011919D01*
G01X0004903Y0011864D02*
G01X0004903Y0011756D01*
G01X0004903Y0011756D02*
G01X0005012Y0011647D01*
G01X0005012Y0011647D02*
G01X0005120Y0011647D01*
G01X0005120Y0011647D02*
G01X0005229Y0011756D01*
G01X0005229Y0011756D02*
G01X0005229Y0011864D01*
G01X0005229Y0011864D02*
G01X0005175Y0011919D01*
G01X0005175Y0011919D02*
G01X0005012Y0011973D01*
G01X0005012Y0011973D02*
G01X0005175Y0012136D01*
G01X0005175Y0012136D02*
G01X0005392Y0011919D01*
G01X0003863Y0012016D02*
G01X0003863Y0012074D01*
G01X0003863Y0012074D02*
G01X0003804Y0012133D01*
G01X0003804Y0012133D02*
G01X0003687Y0012133D01*
G01X0003687Y0012133D02*
G01X0003629Y0012074D01*
G01X0003504Y0012074D02*
G01X0003504Y0011958D01*
G01X0003504Y0011958D02*
G01X0003445Y0011899D01*
G01X0003445Y0011899D02*
G01X0003270Y0011899D01*
G01X0003270Y0011782D02*
G01X0003270Y0012133D01*
G01X0003270Y0012133D02*
G01X0003445Y0012133D01*
G01X0003445Y0012133D02*
G01X0003504Y0012074D01*
G01X0003387Y0011899D02*
G01X0003504Y0011782D01*
G01X0003629Y0011782D02*
G01X0003863Y0012016D01*
G01X0003863Y0011782D02*
G01X0003629Y0011782D01*
G01X0010250Y0019743D02*
G01X0010173Y0019819D01*
G01X0010173Y0019819D02*
G01X0010173Y0020050D01*
G01X0010173Y0020280D02*
G01X0010173Y0020433D01*
G01X0010173Y0020433D02*
G01X0010250Y0020510D01*
G01X0010250Y0020510D02*
G01X0010480Y0020510D01*
G01X0010480Y0020510D02*
G01X0010480Y0020280D01*
G01X0010480Y0020280D02*
G01X0010403Y0020203D01*
G01X0010403Y0020203D02*
G01X0010327Y0020280D01*
G01X0010327Y0020280D02*
G01X0010327Y0020510D01*
G01X0010173Y0020663D02*
G01X0010173Y0020817D01*
G01X0010096Y0020740D02*
G01X0010403Y0020740D01*
G01X0010403Y0020740D02*
G01X0010480Y0020817D01*
G01X0010250Y0020970D02*
G01X0010250Y0021277D01*
G01X0010403Y0021431D02*
G01X0010096Y0021738D01*
G01X0010096Y0021738D02*
G01X0010403Y0021738D01*
G01X0010403Y0021738D02*
G01X0010480Y0021661D01*
G01X0010480Y0021661D02*
G01X0010480Y0021508D01*
G01X0010480Y0021508D02*
G01X0010403Y0021431D01*
G01X0010403Y0021431D02*
G01X0010096Y0021431D01*
G01X0010096Y0021431D02*
G01X0010020Y0021508D01*
G01X0010020Y0021508D02*
G01X0010020Y0021661D01*
G01X0010020Y0021661D02*
G01X0010096Y0021738D01*
G01X0010173Y0021891D02*
G01X0010020Y0022045D01*
G01X0010020Y0022045D02*
G01X0010480Y0022045D01*
G01X0010480Y0022198D02*
G01X0010480Y0021891D01*
G01X0010403Y0022352D02*
G01X0010480Y0022428D01*
G01X0010480Y0022428D02*
G01X0010480Y0022582D01*
G01X0010480Y0022582D02*
G01X0010403Y0022658D01*
G01X0010403Y0022658D02*
G01X0010327Y0022658D01*
G01X0010327Y0022658D02*
G01X0010250Y0022582D01*
G01X0010250Y0022582D02*
G01X0010250Y0022352D01*
G01X0010250Y0022352D02*
G01X0010403Y0022352D01*
G01X0010250Y0022352D02*
G01X0010096Y0022505D01*
G01X0010096Y0022505D02*
G01X0010020Y0022658D01*
G01X0010173Y0022812D02*
G01X0010403Y0022812D01*
G01X0010403Y0022812D02*
G01X0010480Y0022889D01*
G01X0010480Y0022889D02*
G01X0010403Y0022965D01*
G01X0010403Y0022965D02*
G01X0010480Y0023042D01*
G01X0010480Y0023042D02*
G01X0010403Y0023119D01*
G01X0010403Y0023119D02*
G01X0010173Y0023119D01*
G01X0009554Y0024532D02*
G01X0009437Y0024532D01*
G01X0009437Y0024532D02*
G01X0009379Y0024591D01*
G01X0009254Y0024532D02*
G01X0009137Y0024649D01*
G01X0009195Y0024649D02*
G01X0009020Y0024649D01*
G01X0009020Y0024532D02*
G01X0009020Y0024883D01*
G01X0009020Y0024883D02*
G01X0009195Y0024883D01*
G01X0009195Y0024883D02*
G01X0009254Y0024824D01*
G01X0009254Y0024824D02*
G01X0009254Y0024708D01*
G01X0009254Y0024708D02*
G01X0009195Y0024649D01*
G01X0009379Y0024824D02*
G01X0009437Y0024883D01*
G01X0009437Y0024883D02*
G01X0009554Y0024883D01*
G01X0009554Y0024883D02*
G01X0009613Y0024824D01*
G01X0009613Y0024824D02*
G01X0009613Y0024766D01*
G01X0009613Y0024766D02*
G01X0009554Y0024708D01*
G01X0009554Y0024708D02*
G01X0009613Y0024649D01*
G01X0009613Y0024649D02*
G01X0009613Y0024591D01*
G01X0009613Y0024591D02*
G01X0009554Y0024532D01*
G01X0009554Y0024708D02*
G01X0009496Y0024708D01*
G01X0010020Y0021201D02*
G01X0010250Y0020970D01*
G01X0010480Y0021201D02*
G01X0010020Y0021201D01*
G01X0010480Y0020050D02*
G01X0010480Y0019819D01*
G01X0010480Y0019819D02*
G01X0010403Y0019743D01*
G01X0010403Y0019743D02*
G01X0010250Y0019743D01*
G01X0012956Y0018502D02*
G01X0012958Y0018548D01*
G01X0012958Y0018548D02*
G01X0012964Y0018594D01*
G01X0012964Y0018594D02*
G01X0012974Y0018639D01*
G01X0012974Y0018639D02*
G01X0012987Y0018683D01*
G01X0012987Y0018683D02*
G01X0013004Y0018726D01*
G01X0013004Y0018726D02*
G01X0013025Y0018767D01*
G01X0013025Y0018767D02*
G01X0013049Y0018807D01*
G01X0013049Y0018807D02*
G01X0013077Y0018844D01*
G01X0013077Y0018844D02*
G01X0013107Y0018878D01*
G01X0013107Y0018878D02*
G01X0013141Y0018910D01*
G01X0013141Y0018910D02*
G01X0013177Y0018939D01*
G01X0013177Y0018939D02*
G01X0013215Y0018965D01*
G01X0013215Y0018965D02*
G01X0013255Y0018988D01*
G01X0013255Y0018988D02*
G01X0013297Y0019007D01*
G01X0013297Y0019007D02*
G01X0013341Y0019022D01*
G01X0013341Y0019022D02*
G01X0013385Y0019034D01*
G01X0013385Y0019034D02*
G01X0013431Y0019042D01*
G01X0013431Y0019042D02*
G01X0013477Y0019046D01*
G01X0013477Y0019046D02*
G01X0013523Y0019046D01*
G01X0013523Y0019046D02*
G01X0013569Y0019042D01*
G01X0013569Y0019042D02*
G01X0013615Y0019034D01*
G01X0013615Y0019034D02*
G01X0013659Y0019022D01*
G01X0013659Y0019022D02*
G01X0013703Y0019007D01*
G01X0013703Y0019007D02*
G01X0013745Y0018988D01*
G01X0013745Y0018988D02*
G01X0013785Y0018965D01*
G01X0013785Y0018965D02*
G01X0013823Y0018939D01*
G01X0013823Y0018939D02*
G01X0013859Y0018910D01*
G01X0013859Y0018910D02*
G01X0013893Y0018878D01*
G01X0013893Y0018878D02*
G01X0013923Y0018844D01*
G01X0013923Y0018844D02*
G01X0013951Y0018807D01*
G01X0013951Y0018807D02*
G01X0013975Y0018767D01*
G01X0013975Y0018767D02*
G01X0013996Y0018726D01*
G01X0013996Y0018726D02*
G01X0014013Y0018683D01*
G01X0014013Y0018683D02*
G01X0014026Y0018639D01*
G01X0014026Y0018639D02*
G01X0014036Y0018594D01*
G01X0014036Y0018594D02*
G01X0014042Y0018548D01*
G01X0014042Y0018548D02*
G01X0014044Y0018502D01*
G01X0014044Y0018502D02*
G01X0014042Y0018456D01*
G01X0014042Y0018456D02*
G01X0014036Y0018410D01*
G01X0014036Y0018410D02*
G01X0014026Y0018365D01*
G01X0014026Y0018365D02*
G01X0014013Y0018321D01*
G01X0014013Y0018321D02*
G01X0013996Y0018278D01*
G01X0013996Y0018278D02*
G01X0013975Y0018237D01*
G01X0013975Y0018237D02*
G01X0013951Y0018197D01*
G01X0013951Y0018197D02*
G01X0013923Y0018160D01*
G01X0013923Y0018160D02*
G01X0013893Y0018126D01*
G01X0013893Y0018126D02*
G01X0013859Y0018094D01*
G01X0013859Y0018094D02*
G01X0013823Y0018065D01*
G01X0013823Y0018065D02*
G01X0013785Y0018039D01*
G01X0013785Y0018039D02*
G01X0013745Y0018016D01*
G01X0013745Y0018016D02*
G01X0013703Y0017997D01*
G01X0013703Y0017997D02*
G01X0013659Y0017982D01*
G01X0013659Y0017982D02*
G01X0013615Y0017970D01*
G01X0013615Y0017970D02*
G01X0013569Y0017962D01*
G01X0013569Y0017962D02*
G01X0013523Y0017958D01*
G01X0013523Y0017958D02*
G01X0013477Y0017958D01*
G01X0013477Y0017958D02*
G01X0013431Y0017962D01*
G01X0013431Y0017962D02*
G01X0013385Y0017970D01*
G01X0013385Y0017970D02*
G01X0013341Y0017982D01*
G01X0013341Y0017982D02*
G01X0013297Y0017997D01*
G01X0013297Y0017997D02*
G01X0013255Y0018016D01*
G01X0013255Y0018016D02*
G01X0013215Y0018039D01*
G01X0013215Y0018039D02*
G01X0013177Y0018065D01*
G01X0013177Y0018065D02*
G01X0013141Y0018094D01*
G01X0013141Y0018094D02*
G01X0013107Y0018126D01*
G01X0013107Y0018126D02*
G01X0013077Y0018160D01*
G01X0013077Y0018160D02*
G01X0013049Y0018197D01*
G01X0013049Y0018197D02*
G01X0013025Y0018237D01*
G01X0013025Y0018237D02*
G01X0013004Y0018278D01*
G01X0013004Y0018278D02*
G01X0012987Y0018321D01*
G01X0012987Y0018321D02*
G01X0012974Y0018365D01*
G01X0012974Y0018365D02*
G01X0012964Y0018410D01*
G01X0012964Y0018410D02*
G01X0012958Y0018456D01*
G01X0012958Y0018456D02*
G01X0012956Y0018502D01*
G01X0014520Y0018602D02*
G01X0014520Y0018832D01*
G01X0014520Y0018832D02*
G01X0014596Y0018909D01*
G01X0014596Y0018909D02*
G01X0014750Y0018909D01*
G01X0014750Y0018909D02*
G01X0014827Y0018832D01*
G01X0014827Y0018832D02*
G01X0014827Y0018602D01*
G01X0014980Y0018602D02*
G01X0014520Y0018602D01*
G01X0014673Y0019062D02*
G01X0014520Y0019215D01*
G01X0014520Y0019215D02*
G01X0014980Y0019215D01*
G01X0014980Y0019062D02*
G01X0014980Y0019369D01*
G01X0014980Y0018909D02*
G01X0014827Y0018755D01*
G01X0015718Y0019022D02*
G01X0015948Y0019022D01*
G01X0015948Y0019022D02*
G01X0016025Y0019099D01*
G01X0016025Y0019099D02*
G01X0016025Y0019176D01*
G01X0016025Y0019176D02*
G01X0015948Y0019253D01*
G01X0015948Y0019253D02*
G01X0015718Y0019253D01*
G01X0015718Y0019483D02*
G01X0015718Y0019022D01*
G01X0015948Y0019253D02*
G01X0016025Y0019329D01*
G01X0016025Y0019329D02*
G01X0016025Y0019406D01*
G01X0016025Y0019406D02*
G01X0015948Y0019483D01*
G01X0015948Y0019483D02*
G01X0015718Y0019483D01*
G01X0015718Y0020022D02*
G01X0015718Y0020483D01*
G01X0015718Y0020483D02*
G01X0015948Y0020483D01*
G01X0015948Y0020483D02*
G01X0016025Y0020406D01*
G01X0016025Y0020406D02*
G01X0016025Y0020253D01*
G01X0016025Y0020253D02*
G01X0015948Y0020176D01*
G01X0015948Y0020176D02*
G01X0015718Y0020176D01*
G01X0015871Y0020176D02*
G01X0016025Y0020022D01*
G01X0016178Y0020022D02*
G01X0016485Y0020022D01*
G01X0016639Y0020022D02*
G01X0016946Y0020022D01*
G01X0017099Y0020022D02*
G01X0017099Y0020483D01*
G01X0017099Y0020483D02*
G01X0017406Y0020022D01*
G01X0017406Y0020022D02*
G01X0017406Y0020483D01*
G01X0017560Y0020406D02*
G01X0017636Y0020483D01*
G01X0017636Y0020483D02*
G01X0017790Y0020483D01*
G01X0017790Y0020483D02*
G01X0017867Y0020406D01*
G01X0017867Y0020406D02*
G01X0017867Y0020329D01*
G01X0017867Y0020329D02*
G01X0017560Y0020022D01*
G01X0017560Y0020022D02*
G01X0017867Y0020022D01*
G01X0017860Y0019721D02*
G01X0016640Y0019721D01*
G01X0016679Y0019626D02*
G01X0016910Y0019626D01*
G01X0016910Y0019626D02*
G01X0016986Y0019550D01*
G01X0016986Y0019550D02*
G01X0016986Y0019396D01*
G01X0016986Y0019396D02*
G01X0016910Y0019320D01*
G01X0016910Y0019320D02*
G01X0016679Y0019320D01*
G01X0016833Y0019320D02*
G01X0016986Y0019166D01*
G01X0016946Y0019099D02*
G01X0016869Y0019022D01*
G01X0016869Y0019022D02*
G01X0016716Y0019022D01*
G01X0016716Y0019022D02*
G01X0016639Y0019099D01*
G01X0016639Y0019099D02*
G01X0016639Y0019483D01*
G01X0016679Y0019626D02*
G01X0016679Y0019166D01*
G01X0016485Y0019022D02*
G01X0016178Y0019022D01*
G01X0016178Y0019022D02*
G01X0016178Y0019483D01*
G01X0016178Y0020022D02*
G01X0016178Y0020483D01*
G01X0016178Y0020483D02*
G01X0016485Y0020483D01*
G01X0016639Y0020483D02*
G01X0016639Y0020022D01*
G01X0016639Y0020253D02*
G01X0016792Y0020253D01*
G01X0016946Y0020483D02*
G01X0016639Y0020483D01*
G01X0016640Y0020715D02*
G01X0016856Y0020715D01*
G01X0016856Y0020715D02*
G01X0016925Y0020784D01*
G01X0016925Y0020784D02*
G01X0016640Y0020784D01*
G01X0016640Y0020784D02*
G01X0016640Y0020715D01*
G01X0016640Y0020721D02*
G01X0017860Y0020721D01*
G01X0017860Y0020784D02*
G01X0016640Y0020784D01*
G01X0016640Y0020767D02*
G01X0016908Y0020767D01*
G01X0016870Y0020728D02*
G01X0016640Y0020728D01*
G01X0016332Y0020253D02*
G01X0016178Y0020253D01*
G01X0015565Y0020253D02*
G01X0015411Y0020253D01*
G01X0015565Y0020253D02*
G01X0015565Y0020099D01*
G01X0015565Y0020099D02*
G01X0015488Y0020022D01*
G01X0015488Y0020022D02*
G01X0015334Y0020022D01*
G01X0015334Y0020022D02*
G01X0015258Y0020099D01*
G01X0015258Y0020099D02*
G01X0015258Y0020406D01*
G01X0015258Y0020406D02*
G01X0015334Y0020483D01*
G01X0015334Y0020483D02*
G01X0015488Y0020483D01*
G01X0015488Y0020483D02*
G01X0015565Y0020406D01*
G01X0016640Y0021715D02*
G01X0016856Y0021715D01*
G01X0016856Y0021715D02*
G01X0016925Y0021784D01*
G01X0016925Y0021784D02*
G01X0016640Y0021784D01*
G01X0016640Y0021784D02*
G01X0016640Y0021715D01*
G01X0016640Y0021729D02*
G01X0016871Y0021729D01*
G01X0016909Y0021768D02*
G01X0016640Y0021768D01*
G01X0016640Y0021784D02*
G01X0017860Y0021784D01*
G01X0017867Y0022522D02*
G01X0017560Y0022522D01*
G01X0017600Y0022666D02*
G01X0017830Y0022666D01*
G01X0017830Y0022666D02*
G01X0017907Y0022743D01*
G01X0017907Y0022743D02*
G01X0017907Y0023050D01*
G01X0017907Y0023050D02*
G01X0017830Y0023126D01*
G01X0017830Y0023126D02*
G01X0017600Y0023126D01*
G01X0017600Y0023126D02*
G01X0017600Y0022666D01*
G01X0017447Y0022666D02*
G01X0017140Y0022666D01*
G01X0017140Y0022666D02*
G01X0017140Y0023126D01*
G01X0017140Y0023126D02*
G01X0017447Y0023126D01*
G01X0017406Y0022983D02*
G01X0017099Y0022983D01*
G01X0017099Y0022983D02*
G01X0017099Y0022522D01*
G01X0017099Y0022522D02*
G01X0017406Y0022522D01*
G01X0017253Y0022753D02*
G01X0017099Y0022753D01*
G01X0016986Y0022666D02*
G01X0016833Y0022820D01*
G01X0016910Y0022820D02*
G01X0016679Y0022820D01*
G01X0016679Y0022666D02*
G01X0016679Y0023126D01*
G01X0016679Y0023126D02*
G01X0016910Y0023126D01*
G01X0016910Y0023126D02*
G01X0016986Y0023050D01*
G01X0016986Y0023050D02*
G01X0016986Y0022896D01*
G01X0016986Y0022896D02*
G01X0016910Y0022820D01*
G01X0016946Y0022983D02*
G01X0016946Y0022599D01*
G01X0016946Y0022599D02*
G01X0016869Y0022522D01*
G01X0016869Y0022522D02*
G01X0016716Y0022522D01*
G01X0016716Y0022522D02*
G01X0016639Y0022599D01*
G01X0016639Y0022599D02*
G01X0016639Y0022983D01*
G01X0016640Y0023221D02*
G01X0017860Y0023221D01*
G01X0018061Y0023050D02*
G01X0018137Y0023126D01*
G01X0018137Y0023126D02*
G01X0018291Y0023126D01*
G01X0018291Y0023126D02*
G01X0018368Y0023050D01*
G01X0018368Y0023050D02*
G01X0018368Y0022973D01*
G01X0018368Y0022973D02*
G01X0018061Y0022666D01*
G01X0018061Y0022666D02*
G01X0018368Y0022666D01*
G01X0017713Y0022522D02*
G01X0017713Y0022983D01*
G01X0017713Y0022983D02*
G01X0017560Y0022829D01*
G01X0017293Y0022896D02*
G01X0017140Y0022896D01*
G01X0017099Y0023522D02*
G01X0017099Y0023983D01*
G01X0017099Y0023983D02*
G01X0017406Y0023522D01*
G01X0017406Y0023522D02*
G01X0017406Y0023983D01*
G01X0017560Y0023829D02*
G01X0017713Y0023983D01*
G01X0017713Y0023983D02*
G01X0017713Y0023522D01*
G01X0017560Y0023522D02*
G01X0017867Y0023522D01*
G01X0017860Y0024221D02*
G01X0016640Y0024221D01*
G01X0016640Y0024215D02*
G01X0016856Y0024215D01*
G01X0016856Y0024215D02*
G01X0016925Y0024284D01*
G01X0016925Y0024284D02*
G01X0016640Y0024284D01*
G01X0016640Y0024284D02*
G01X0016640Y0024215D01*
G01X0016640Y0024232D02*
G01X0016873Y0024232D01*
G01X0016912Y0024270D02*
G01X0016640Y0024270D01*
G01X0016640Y0024284D02*
G01X0017860Y0024284D01*
G01X0017506Y0025126D02*
G01X0017470Y0025148D01*
G01X0017470Y0025148D02*
G01X0017433Y0025167D01*
G01X0017433Y0025167D02*
G01X0017394Y0025182D01*
G01X0017394Y0025182D02*
G01X0017354Y0025193D01*
G01X0017354Y0025193D02*
G01X0017312Y0025201D01*
G01X0017312Y0025201D02*
G01X0017271Y0025205D01*
G01X0017271Y0025205D02*
G01X0017229Y0025205D01*
G01X0017229Y0025205D02*
G01X0017188Y0025201D01*
G01X0017188Y0025201D02*
G01X0017146Y0025193D01*
G01X0017146Y0025193D02*
G01X0017106Y0025182D01*
G01X0017106Y0025182D02*
G01X0017067Y0025167D01*
G01X0017067Y0025167D02*
G01X0017030Y0025148D01*
G01X0017030Y0025148D02*
G01X0016994Y0025126D01*
G01X0016874Y0025233D02*
G01X0016640Y0025233D01*
G01X0016640Y0025215D02*
G01X0016856Y0025215D01*
G01X0016856Y0025215D02*
G01X0016925Y0025284D01*
G01X0016925Y0025284D02*
G01X0016640Y0025284D01*
G01X0016640Y0025284D02*
G01X0016640Y0025215D01*
G01X0016640Y0025271D02*
G01X0016913Y0025271D01*
G01X0016640Y0025284D02*
G01X0017860Y0025284D01*
G01X0017506Y0024379D02*
G01X0017470Y0024357D01*
G01X0017470Y0024357D02*
G01X0017433Y0024338D01*
G01X0017433Y0024338D02*
G01X0017394Y0024323D01*
G01X0017394Y0024323D02*
G01X0017354Y0024312D01*
G01X0017354Y0024312D02*
G01X0017312Y0024304D01*
G01X0017312Y0024304D02*
G01X0017271Y0024300D01*
G01X0017271Y0024300D02*
G01X0017229Y0024300D01*
G01X0017229Y0024300D02*
G01X0017188Y0024304D01*
G01X0017188Y0024304D02*
G01X0017146Y0024312D01*
G01X0017146Y0024312D02*
G01X0017106Y0024323D01*
G01X0017106Y0024323D02*
G01X0017067Y0024338D01*
G01X0017067Y0024338D02*
G01X0017030Y0024357D01*
G01X0017030Y0024357D02*
G01X0016994Y0024379D01*
G01X0016946Y0023983D02*
G01X0016639Y0023983D01*
G01X0016639Y0023983D02*
G01X0016639Y0023522D01*
G01X0016639Y0023522D02*
G01X0016946Y0023522D01*
G01X0016792Y0023753D02*
G01X0016639Y0023753D01*
G01X0016485Y0023983D02*
G01X0016178Y0023983D01*
G01X0016178Y0023983D02*
G01X0016178Y0023522D01*
G01X0016178Y0023522D02*
G01X0016485Y0023522D01*
G01X0016332Y0023753D02*
G01X0016178Y0023753D01*
G01X0016025Y0023753D02*
G01X0015948Y0023676D01*
G01X0015948Y0023676D02*
G01X0015718Y0023676D01*
G01X0015871Y0023676D02*
G01X0016025Y0023522D01*
G01X0016025Y0023753D02*
G01X0016025Y0023906D01*
G01X0016025Y0023906D02*
G01X0015948Y0023983D01*
G01X0015948Y0023983D02*
G01X0015718Y0023983D01*
G01X0015718Y0023983D02*
G01X0015718Y0023522D01*
G01X0015565Y0023599D02*
G01X0015565Y0023753D01*
G01X0015565Y0023753D02*
G01X0015411Y0023753D01*
G01X0015258Y0023906D02*
G01X0015258Y0023599D01*
G01X0015258Y0023599D02*
G01X0015334Y0023522D01*
G01X0015334Y0023522D02*
G01X0015488Y0023522D01*
G01X0015488Y0023522D02*
G01X0015565Y0023599D01*
G01X0015565Y0023906D02*
G01X0015488Y0023983D01*
G01X0015488Y0023983D02*
G01X0015334Y0023983D01*
G01X0015334Y0023983D02*
G01X0015258Y0023906D01*
G01X0015718Y0022983D02*
G01X0015948Y0022983D01*
G01X0015948Y0022983D02*
G01X0016025Y0022906D01*
G01X0016025Y0022906D02*
G01X0016025Y0022829D01*
G01X0016025Y0022829D02*
G01X0015948Y0022753D01*
G01X0015948Y0022753D02*
G01X0015718Y0022753D01*
G01X0015718Y0022983D02*
G01X0015718Y0022522D01*
G01X0015718Y0022522D02*
G01X0015948Y0022522D01*
G01X0015948Y0022522D02*
G01X0016025Y0022599D01*
G01X0016025Y0022599D02*
G01X0016025Y0022676D01*
G01X0016025Y0022676D02*
G01X0015948Y0022753D01*
G01X0016178Y0022983D02*
G01X0016178Y0022522D01*
G01X0016178Y0022522D02*
G01X0016485Y0022522D01*
G01X0016994Y0024126D02*
G01X0017030Y0024148D01*
G01X0017030Y0024148D02*
G01X0017067Y0024167D01*
G01X0017067Y0024167D02*
G01X0017106Y0024182D01*
G01X0017106Y0024182D02*
G01X0017146Y0024193D01*
G01X0017146Y0024193D02*
G01X0017188Y0024201D01*
G01X0017188Y0024201D02*
G01X0017229Y0024205D01*
G01X0017229Y0024205D02*
G01X0017271Y0024205D01*
G01X0017271Y0024205D02*
G01X0017312Y0024201D01*
G01X0017312Y0024201D02*
G01X0017354Y0024193D01*
G01X0017354Y0024193D02*
G01X0017394Y0024182D01*
G01X0017394Y0024182D02*
G01X0017433Y0024167D01*
G01X0017433Y0024167D02*
G01X0017470Y0024148D01*
G01X0017470Y0024148D02*
G01X0017506Y0024126D01*
G01X0017506Y0023379D02*
G01X0017470Y0023357D01*
G01X0017470Y0023357D02*
G01X0017433Y0023338D01*
G01X0017433Y0023338D02*
G01X0017394Y0023323D01*
G01X0017394Y0023323D02*
G01X0017354Y0023312D01*
G01X0017354Y0023312D02*
G01X0017312Y0023304D01*
G01X0017312Y0023304D02*
G01X0017271Y0023300D01*
G01X0017271Y0023300D02*
G01X0017229Y0023300D01*
G01X0017229Y0023300D02*
G01X0017188Y0023304D01*
G01X0017188Y0023304D02*
G01X0017146Y0023312D01*
G01X0017146Y0023312D02*
G01X0017106Y0023323D01*
G01X0017106Y0023323D02*
G01X0017067Y0023338D01*
G01X0017067Y0023338D02*
G01X0017030Y0023357D01*
G01X0017030Y0023357D02*
G01X0016994Y0023379D01*
G01X0016994Y0020879D02*
G01X0017030Y0020857D01*
G01X0017030Y0020857D02*
G01X0017067Y0020838D01*
G01X0017067Y0020838D02*
G01X0017106Y0020823D01*
G01X0017106Y0020823D02*
G01X0017146Y0020812D01*
G01X0017146Y0020812D02*
G01X0017188Y0020804D01*
G01X0017188Y0020804D02*
G01X0017229Y0020800D01*
G01X0017229Y0020800D02*
G01X0017271Y0020800D01*
G01X0017271Y0020800D02*
G01X0017312Y0020804D01*
G01X0017312Y0020804D02*
G01X0017354Y0020812D01*
G01X0017354Y0020812D02*
G01X0017394Y0020823D01*
G01X0017394Y0020823D02*
G01X0017433Y0020838D01*
G01X0017433Y0020838D02*
G01X0017470Y0020857D01*
G01X0017470Y0020857D02*
G01X0017506Y0020879D01*
G01X0017506Y0021626D02*
G01X0017470Y0021648D01*
G01X0017470Y0021648D02*
G01X0017433Y0021667D01*
G01X0017433Y0021667D02*
G01X0017394Y0021682D01*
G01X0017394Y0021682D02*
G01X0017354Y0021693D01*
G01X0017354Y0021693D02*
G01X0017312Y0021701D01*
G01X0017312Y0021701D02*
G01X0017271Y0021705D01*
G01X0017271Y0021705D02*
G01X0017229Y0021705D01*
G01X0017229Y0021705D02*
G01X0017188Y0021701D01*
G01X0017188Y0021701D02*
G01X0017146Y0021693D01*
G01X0017146Y0021693D02*
G01X0017106Y0021682D01*
G01X0017106Y0021682D02*
G01X0017067Y0021667D01*
G01X0017067Y0021667D02*
G01X0017030Y0021648D01*
G01X0017030Y0021648D02*
G01X0016994Y0021626D01*
G01X0016994Y0019879D02*
G01X0017030Y0019857D01*
G01X0017030Y0019857D02*
G01X0017067Y0019838D01*
G01X0017067Y0019838D02*
G01X0017106Y0019823D01*
G01X0017106Y0019823D02*
G01X0017146Y0019812D01*
G01X0017146Y0019812D02*
G01X0017188Y0019804D01*
G01X0017188Y0019804D02*
G01X0017229Y0019800D01*
G01X0017229Y0019800D02*
G01X0017271Y0019800D01*
G01X0017271Y0019800D02*
G01X0017312Y0019804D01*
G01X0017312Y0019804D02*
G01X0017354Y0019812D01*
G01X0017354Y0019812D02*
G01X0017394Y0019823D01*
G01X0017394Y0019823D02*
G01X0017433Y0019838D01*
G01X0017433Y0019838D02*
G01X0017470Y0019857D01*
G01X0017470Y0019857D02*
G01X0017506Y0019879D01*
G01X0017447Y0019626D02*
G01X0017140Y0019626D01*
G01X0017140Y0019626D02*
G01X0017140Y0019166D01*
G01X0017140Y0019166D02*
G01X0017447Y0019166D01*
G01X0017406Y0019022D02*
G01X0017099Y0019022D01*
G01X0017099Y0019022D02*
G01X0017099Y0019483D01*
G01X0017099Y0019483D02*
G01X0017406Y0019483D01*
G01X0017293Y0019396D02*
G01X0017140Y0019396D01*
G01X0017099Y0019253D02*
G01X0017253Y0019253D01*
G01X0017560Y0019406D02*
G01X0017636Y0019483D01*
G01X0017636Y0019483D02*
G01X0017790Y0019483D01*
G01X0017790Y0019483D02*
G01X0017867Y0019406D01*
G01X0017867Y0019406D02*
G01X0017867Y0019329D01*
G01X0017867Y0019329D02*
G01X0017560Y0019022D01*
G01X0017560Y0019022D02*
G01X0017867Y0019022D01*
G01X0017830Y0019166D02*
G01X0017600Y0019166D01*
G01X0017600Y0019166D02*
G01X0017600Y0019626D01*
G01X0017600Y0019626D02*
G01X0017830Y0019626D01*
G01X0017830Y0019626D02*
G01X0017907Y0019550D01*
G01X0017907Y0019550D02*
G01X0017907Y0019243D01*
G01X0017907Y0019243D02*
G01X0017830Y0019166D01*
G01X0018061Y0019243D02*
G01X0018137Y0019166D01*
G01X0018137Y0019166D02*
G01X0018291Y0019166D01*
G01X0018291Y0019166D02*
G01X0018368Y0019243D01*
G01X0018368Y0019243D02*
G01X0018368Y0019320D01*
G01X0018368Y0019320D02*
G01X0018291Y0019396D01*
G01X0018291Y0019396D02*
G01X0018214Y0019396D01*
G01X0018291Y0019396D02*
G01X0018368Y0019473D01*
G01X0018368Y0019473D02*
G01X0018368Y0019550D01*
G01X0018368Y0019550D02*
G01X0018291Y0019626D01*
G01X0018291Y0019626D02*
G01X0018137Y0019626D01*
G01X0018137Y0019626D02*
G01X0018061Y0019550D01*
G01X0017506Y0020626D02*
G01X0017470Y0020648D01*
G01X0017470Y0020648D02*
G01X0017433Y0020667D01*
G01X0017433Y0020667D02*
G01X0017394Y0020682D01*
G01X0017394Y0020682D02*
G01X0017354Y0020693D01*
G01X0017354Y0020693D02*
G01X0017312Y0020701D01*
G01X0017312Y0020701D02*
G01X0017271Y0020705D01*
G01X0017271Y0020705D02*
G01X0017229Y0020705D01*
G01X0017229Y0020705D02*
G01X0017188Y0020701D01*
G01X0017188Y0020701D02*
G01X0017146Y0020693D01*
G01X0017146Y0020693D02*
G01X0017106Y0020682D01*
G01X0017106Y0020682D02*
G01X0017067Y0020667D01*
G01X0017067Y0020667D02*
G01X0017030Y0020648D01*
G01X0017030Y0020648D02*
G01X0016994Y0020626D01*
G01X0016946Y0019483D02*
G01X0016946Y0019099D01*
G01X0016925Y0018284D02*
G01X0016640Y0018284D01*
G01X0016640Y0018284D02*
G01X0016640Y0018215D01*
G01X0016640Y0018215D02*
G01X0016856Y0018215D01*
G01X0016856Y0018215D02*
G01X0016925Y0018284D01*
G01X0016906Y0018264D02*
G01X0016640Y0018264D01*
G01X0016640Y0018284D02*
G01X0017860Y0018284D01*
G01X0017506Y0017379D02*
G01X0017470Y0017357D01*
G01X0017470Y0017357D02*
G01X0017433Y0017338D01*
G01X0017433Y0017338D02*
G01X0017394Y0017323D01*
G01X0017394Y0017323D02*
G01X0017354Y0017312D01*
G01X0017354Y0017312D02*
G01X0017312Y0017304D01*
G01X0017312Y0017304D02*
G01X0017271Y0017300D01*
G01X0017271Y0017300D02*
G01X0017229Y0017300D01*
G01X0017229Y0017300D02*
G01X0017188Y0017304D01*
G01X0017188Y0017304D02*
G01X0017146Y0017312D01*
G01X0017146Y0017312D02*
G01X0017106Y0017323D01*
G01X0017106Y0017323D02*
G01X0017067Y0017338D01*
G01X0017067Y0017338D02*
G01X0017030Y0017357D01*
G01X0017030Y0017357D02*
G01X0016994Y0017379D01*
G01X0016925Y0017284D02*
G01X0016856Y0017215D01*
G01X0016856Y0017215D02*
G01X0016640Y0017215D01*
G01X0016640Y0017215D02*
G01X0016640Y0017284D01*
G01X0016640Y0017284D02*
G01X0016925Y0017284D01*
G01X0016905Y0017263D02*
G01X0016640Y0017263D01*
G01X0016640Y0017284D02*
G01X0017860Y0017284D01*
G01X0017860Y0017221D02*
G01X0016640Y0017221D01*
G01X0016640Y0017225D02*
G01X0016866Y0017225D01*
G01X0016946Y0016983D02*
G01X0016639Y0016983D01*
G01X0016639Y0016983D02*
G01X0016639Y0016522D01*
G01X0016639Y0016522D02*
G01X0016946Y0016522D01*
G01X0017099Y0016522D02*
G01X0017099Y0016983D01*
G01X0017099Y0016983D02*
G01X0017406Y0016522D01*
G01X0017406Y0016522D02*
G01X0017406Y0016983D01*
G01X0017560Y0016906D02*
G01X0017636Y0016983D01*
G01X0017636Y0016983D02*
G01X0017790Y0016983D01*
G01X0017790Y0016983D02*
G01X0017867Y0016906D01*
G01X0017867Y0016906D02*
G01X0017867Y0016829D01*
G01X0017867Y0016829D02*
G01X0017790Y0016753D01*
G01X0017790Y0016753D02*
G01X0017867Y0016676D01*
G01X0017867Y0016676D02*
G01X0017867Y0016599D01*
G01X0017867Y0016599D02*
G01X0017790Y0016522D01*
G01X0017790Y0016522D02*
G01X0017636Y0016522D01*
G01X0017636Y0016522D02*
G01X0017560Y0016599D01*
G01X0017713Y0016753D02*
G01X0017790Y0016753D01*
G01X0017860Y0016221D02*
G01X0016640Y0016221D01*
G01X0016679Y0016126D02*
G01X0016910Y0016126D01*
G01X0016910Y0016126D02*
G01X0016986Y0016050D01*
G01X0016986Y0016050D02*
G01X0016986Y0015896D01*
G01X0016986Y0015896D02*
G01X0016910Y0015820D01*
G01X0016910Y0015820D02*
G01X0016679Y0015820D01*
G01X0016833Y0015820D02*
G01X0016986Y0015666D01*
G01X0016946Y0015599D02*
G01X0016946Y0015983D01*
G01X0017099Y0015983D02*
G01X0017099Y0015522D01*
G01X0017099Y0015522D02*
G01X0017406Y0015522D01*
G01X0017447Y0015666D02*
G01X0017140Y0015666D01*
G01X0017140Y0015666D02*
G01X0017140Y0016126D01*
G01X0017140Y0016126D02*
G01X0017447Y0016126D01*
G01X0017406Y0015983D02*
G01X0017099Y0015983D01*
G01X0017140Y0015896D02*
G01X0017293Y0015896D01*
G01X0017253Y0015753D02*
G01X0017099Y0015753D01*
G01X0016946Y0015599D02*
G01X0016869Y0015522D01*
G01X0016869Y0015522D02*
G01X0016716Y0015522D01*
G01X0016716Y0015522D02*
G01X0016639Y0015599D01*
G01X0016639Y0015599D02*
G01X0016639Y0015983D01*
G01X0016679Y0016126D02*
G01X0016679Y0015666D01*
G01X0016485Y0015522D02*
G01X0016178Y0015522D01*
G01X0016178Y0015522D02*
G01X0016178Y0015983D01*
G01X0016025Y0015906D02*
G01X0016025Y0015829D01*
G01X0016025Y0015829D02*
G01X0015948Y0015753D01*
G01X0015948Y0015753D02*
G01X0015718Y0015753D01*
G01X0015718Y0015983D02*
G01X0015718Y0015522D01*
G01X0015718Y0015522D02*
G01X0015948Y0015522D01*
G01X0015948Y0015522D02*
G01X0016025Y0015599D01*
G01X0016025Y0015599D02*
G01X0016025Y0015676D01*
G01X0016025Y0015676D02*
G01X0015948Y0015753D01*
G01X0016025Y0015906D02*
G01X0015948Y0015983D01*
G01X0015948Y0015983D02*
G01X0015718Y0015983D01*
G01X0015718Y0016522D02*
G01X0015718Y0016983D01*
G01X0015718Y0016983D02*
G01X0015948Y0016983D01*
G01X0015948Y0016983D02*
G01X0016025Y0016906D01*
G01X0016025Y0016906D02*
G01X0016025Y0016753D01*
G01X0016025Y0016753D02*
G01X0015948Y0016676D01*
G01X0015948Y0016676D02*
G01X0015718Y0016676D01*
G01X0015871Y0016676D02*
G01X0016025Y0016522D01*
G01X0016178Y0016522D02*
G01X0016178Y0016983D01*
G01X0016178Y0016983D02*
G01X0016485Y0016983D01*
G01X0016332Y0016753D02*
G01X0016178Y0016753D01*
G01X0016178Y0016522D02*
G01X0016485Y0016522D01*
G01X0016639Y0016753D02*
G01X0016792Y0016753D01*
G01X0016994Y0016379D02*
G01X0017030Y0016357D01*
G01X0017030Y0016357D02*
G01X0017067Y0016338D01*
G01X0017067Y0016338D02*
G01X0017106Y0016323D01*
G01X0017106Y0016323D02*
G01X0017146Y0016312D01*
G01X0017146Y0016312D02*
G01X0017188Y0016304D01*
G01X0017188Y0016304D02*
G01X0017229Y0016300D01*
G01X0017229Y0016300D02*
G01X0017271Y0016300D01*
G01X0017271Y0016300D02*
G01X0017312Y0016304D01*
G01X0017312Y0016304D02*
G01X0017354Y0016312D01*
G01X0017354Y0016312D02*
G01X0017394Y0016323D01*
G01X0017394Y0016323D02*
G01X0017433Y0016338D01*
G01X0017433Y0016338D02*
G01X0017470Y0016357D01*
G01X0017470Y0016357D02*
G01X0017506Y0016379D01*
G01X0017600Y0016126D02*
G01X0017830Y0016126D01*
G01X0017830Y0016126D02*
G01X0017907Y0016050D01*
G01X0017907Y0016050D02*
G01X0017907Y0015743D01*
G01X0017907Y0015743D02*
G01X0017830Y0015666D01*
G01X0017830Y0015666D02*
G01X0017600Y0015666D01*
G01X0017600Y0015666D02*
G01X0017600Y0016126D01*
G01X0017636Y0015983D02*
G01X0017790Y0015983D01*
G01X0017790Y0015983D02*
G01X0017867Y0015906D01*
G01X0017867Y0015906D02*
G01X0017867Y0015829D01*
G01X0017867Y0015829D02*
G01X0017790Y0015753D01*
G01X0017790Y0015753D02*
G01X0017867Y0015676D01*
G01X0017867Y0015676D02*
G01X0017867Y0015599D01*
G01X0017867Y0015599D02*
G01X0017790Y0015522D01*
G01X0017790Y0015522D02*
G01X0017636Y0015522D01*
G01X0017636Y0015522D02*
G01X0017560Y0015599D01*
G01X0017713Y0015753D02*
G01X0017790Y0015753D01*
G01X0017560Y0015906D02*
G01X0017636Y0015983D01*
G01X0018061Y0015896D02*
G01X0018368Y0015896D01*
G01X0018291Y0015666D02*
G01X0018291Y0016126D01*
G01X0018291Y0016126D02*
G01X0018061Y0015896D01*
G01X0017860Y0014784D02*
G01X0016640Y0014784D01*
G01X0016640Y0014784D02*
G01X0016925Y0014784D01*
G01X0016925Y0014784D02*
G01X0016856Y0014715D01*
G01X0016856Y0014715D02*
G01X0016640Y0014715D01*
G01X0016640Y0014715D02*
G01X0016640Y0014784D01*
G01X0016640Y0014761D02*
G01X0016902Y0014761D01*
G01X0016864Y0014722D02*
G01X0016640Y0014722D01*
G01X0016994Y0013879D02*
G01X0017030Y0013857D01*
G01X0017030Y0013857D02*
G01X0017067Y0013838D01*
G01X0017067Y0013838D02*
G01X0017106Y0013823D01*
G01X0017106Y0013823D02*
G01X0017146Y0013812D01*
G01X0017146Y0013812D02*
G01X0017188Y0013804D01*
G01X0017188Y0013804D02*
G01X0017229Y0013800D01*
G01X0017229Y0013800D02*
G01X0017271Y0013800D01*
G01X0017271Y0013800D02*
G01X0017312Y0013804D01*
G01X0017312Y0013804D02*
G01X0017354Y0013812D01*
G01X0017354Y0013812D02*
G01X0017394Y0013823D01*
G01X0017394Y0013823D02*
G01X0017433Y0013838D01*
G01X0017433Y0013838D02*
G01X0017470Y0013857D01*
G01X0017470Y0013857D02*
G01X0017506Y0013879D01*
G01X0017406Y0013483D02*
G01X0017406Y0013022D01*
G01X0017406Y0013022D02*
G01X0017099Y0013483D01*
G01X0017099Y0013483D02*
G01X0017099Y0013022D01*
G01X0016946Y0013022D02*
G01X0016639Y0013022D01*
G01X0016639Y0013022D02*
G01X0016639Y0013483D01*
G01X0016639Y0013483D02*
G01X0016946Y0013483D01*
G01X0016856Y0013715D02*
G01X0016925Y0013784D01*
G01X0016925Y0013784D02*
G01X0016640Y0013784D01*
G01X0016640Y0013784D02*
G01X0016640Y0013715D01*
G01X0016640Y0013715D02*
G01X0016856Y0013715D01*
G01X0016863Y0013721D02*
G01X0016640Y0013721D01*
G01X0016640Y0013721D02*
G01X0017860Y0013721D01*
G01X0017860Y0013784D02*
G01X0016640Y0013784D01*
G01X0016640Y0013760D02*
G01X0016901Y0013760D01*
G01X0016485Y0013483D02*
G01X0016178Y0013483D01*
G01X0016178Y0013483D02*
G01X0016178Y0013022D01*
G01X0016178Y0013022D02*
G01X0016485Y0013022D01*
G01X0016332Y0013253D02*
G01X0016178Y0013253D01*
G01X0016025Y0013253D02*
G01X0015948Y0013176D01*
G01X0015948Y0013176D02*
G01X0015718Y0013176D01*
G01X0015871Y0013176D02*
G01X0016025Y0013022D01*
G01X0016025Y0013253D02*
G01X0016025Y0013406D01*
G01X0016025Y0013406D02*
G01X0015948Y0013483D01*
G01X0015948Y0013483D02*
G01X0015718Y0013483D01*
G01X0015718Y0013483D02*
G01X0015718Y0013022D01*
G01X0015565Y0013099D02*
G01X0015565Y0013253D01*
G01X0015565Y0013253D02*
G01X0015411Y0013253D01*
G01X0015258Y0013406D02*
G01X0015258Y0013099D01*
G01X0015258Y0013099D02*
G01X0015334Y0013022D01*
G01X0015334Y0013022D02*
G01X0015488Y0013022D01*
G01X0015488Y0013022D02*
G01X0015565Y0013099D01*
G01X0015565Y0013406D02*
G01X0015488Y0013483D01*
G01X0015488Y0013483D02*
G01X0015334Y0013483D01*
G01X0015334Y0013483D02*
G01X0015258Y0013406D01*
G01X0015718Y0012483D02*
G01X0015948Y0012483D01*
G01X0015948Y0012483D02*
G01X0016025Y0012406D01*
G01X0016025Y0012406D02*
G01X0016025Y0012329D01*
G01X0016025Y0012329D02*
G01X0015948Y0012253D01*
G01X0015948Y0012253D02*
G01X0015718Y0012253D01*
G01X0015718Y0012483D02*
G01X0015718Y0012022D01*
G01X0015718Y0012022D02*
G01X0015948Y0012022D01*
G01X0015948Y0012022D02*
G01X0016025Y0012099D01*
G01X0016025Y0012099D02*
G01X0016025Y0012176D01*
G01X0016025Y0012176D02*
G01X0015948Y0012253D01*
G01X0016178Y0012483D02*
G01X0016178Y0012022D01*
G01X0016178Y0012022D02*
G01X0016485Y0012022D01*
G01X0016639Y0012099D02*
G01X0016716Y0012022D01*
G01X0016716Y0012022D02*
G01X0016869Y0012022D01*
G01X0016869Y0012022D02*
G01X0016946Y0012099D01*
G01X0016946Y0012099D02*
G01X0016946Y0012483D01*
G01X0017099Y0012483D02*
G01X0017099Y0012022D01*
G01X0017099Y0012022D02*
G01X0017406Y0012022D01*
G01X0017447Y0012126D02*
G01X0017140Y0012126D01*
G01X0017140Y0012126D02*
G01X0017140Y0011666D01*
G01X0017140Y0011666D02*
G01X0017447Y0011666D01*
G01X0017600Y0011666D02*
G01X0017830Y0011666D01*
G01X0017830Y0011666D02*
G01X0017907Y0011743D01*
G01X0017907Y0011743D02*
G01X0017907Y0012050D01*
G01X0017907Y0012050D02*
G01X0017830Y0012126D01*
G01X0017830Y0012126D02*
G01X0017600Y0012126D01*
G01X0017600Y0012126D02*
G01X0017600Y0011666D01*
G01X0017293Y0011896D02*
G01X0017140Y0011896D01*
G01X0016986Y0011896D02*
G01X0016986Y0012050D01*
G01X0016986Y0012050D02*
G01X0016910Y0012126D01*
G01X0016910Y0012126D02*
G01X0016679Y0012126D01*
G01X0016679Y0012126D02*
G01X0016679Y0011666D01*
G01X0016679Y0011820D02*
G01X0016910Y0011820D01*
G01X0016910Y0011820D02*
G01X0016986Y0011896D01*
G01X0016833Y0011820D02*
G01X0016986Y0011666D01*
G01X0016639Y0012099D02*
G01X0016639Y0012483D01*
G01X0016640Y0012721D02*
G01X0017860Y0012721D01*
G01X0017790Y0012483D02*
G01X0017560Y0012253D01*
G01X0017560Y0012253D02*
G01X0017867Y0012253D01*
G01X0018061Y0012126D02*
G01X0018061Y0011896D01*
G01X0018061Y0011896D02*
G01X0018214Y0011973D01*
G01X0018214Y0011973D02*
G01X0018291Y0011973D01*
G01X0018291Y0011973D02*
G01X0018368Y0011896D01*
G01X0018368Y0011896D02*
G01X0018368Y0011743D01*
G01X0018368Y0011743D02*
G01X0018291Y0011666D01*
G01X0018291Y0011666D02*
G01X0018137Y0011666D01*
G01X0018137Y0011666D02*
G01X0018061Y0011743D01*
G01X0018061Y0012126D02*
G01X0018368Y0012126D01*
G01X0017790Y0012022D02*
G01X0017790Y0012483D01*
G01X0017406Y0012483D02*
G01X0017099Y0012483D01*
G01X0017099Y0012253D02*
G01X0017253Y0012253D01*
G01X0017790Y0013022D02*
G01X0017790Y0013483D01*
G01X0017790Y0013483D02*
G01X0017560Y0013253D01*
G01X0017560Y0013253D02*
G01X0017867Y0013253D01*
G01X0017506Y0012879D02*
G01X0017470Y0012857D01*
G01X0017470Y0012857D02*
G01X0017433Y0012838D01*
G01X0017433Y0012838D02*
G01X0017394Y0012823D01*
G01X0017394Y0012823D02*
G01X0017354Y0012812D01*
G01X0017354Y0012812D02*
G01X0017312Y0012804D01*
G01X0017312Y0012804D02*
G01X0017271Y0012800D01*
G01X0017271Y0012800D02*
G01X0017229Y0012800D01*
G01X0017229Y0012800D02*
G01X0017188Y0012804D01*
G01X0017188Y0012804D02*
G01X0017146Y0012812D01*
G01X0017146Y0012812D02*
G01X0017106Y0012823D01*
G01X0017106Y0012823D02*
G01X0017067Y0012838D01*
G01X0017067Y0012838D02*
G01X0017030Y0012857D01*
G01X0017030Y0012857D02*
G01X0016994Y0012879D01*
G01X0016792Y0013253D02*
G01X0016639Y0013253D01*
G01X0016994Y0013626D02*
G01X0017030Y0013648D01*
G01X0017030Y0013648D02*
G01X0017067Y0013667D01*
G01X0017067Y0013667D02*
G01X0017106Y0013682D01*
G01X0017106Y0013682D02*
G01X0017146Y0013693D01*
G01X0017146Y0013693D02*
G01X0017188Y0013701D01*
G01X0017188Y0013701D02*
G01X0017229Y0013705D01*
G01X0017229Y0013705D02*
G01X0017271Y0013705D01*
G01X0017271Y0013705D02*
G01X0017312Y0013701D01*
G01X0017312Y0013701D02*
G01X0017354Y0013693D01*
G01X0017354Y0013693D02*
G01X0017394Y0013682D01*
G01X0017394Y0013682D02*
G01X0017433Y0013667D01*
G01X0017433Y0013667D02*
G01X0017470Y0013648D01*
G01X0017470Y0013648D02*
G01X0017506Y0013626D01*
G01X0017506Y0014626D02*
G01X0017470Y0014648D01*
G01X0017470Y0014648D02*
G01X0017433Y0014667D01*
G01X0017433Y0014667D02*
G01X0017394Y0014682D01*
G01X0017394Y0014682D02*
G01X0017354Y0014693D01*
G01X0017354Y0014693D02*
G01X0017312Y0014701D01*
G01X0017312Y0014701D02*
G01X0017271Y0014705D01*
G01X0017271Y0014705D02*
G01X0017229Y0014705D01*
G01X0017229Y0014705D02*
G01X0017188Y0014701D01*
G01X0017188Y0014701D02*
G01X0017146Y0014693D01*
G01X0017146Y0014693D02*
G01X0017106Y0014682D01*
G01X0017106Y0014682D02*
G01X0017067Y0014667D01*
G01X0017067Y0014667D02*
G01X0017030Y0014648D01*
G01X0017030Y0014648D02*
G01X0016994Y0014626D01*
G01X0016994Y0017126D02*
G01X0017030Y0017148D01*
G01X0017030Y0017148D02*
G01X0017067Y0017167D01*
G01X0017067Y0017167D02*
G01X0017106Y0017182D01*
G01X0017106Y0017182D02*
G01X0017146Y0017193D01*
G01X0017146Y0017193D02*
G01X0017188Y0017201D01*
G01X0017188Y0017201D02*
G01X0017229Y0017205D01*
G01X0017229Y0017205D02*
G01X0017271Y0017205D01*
G01X0017271Y0017205D02*
G01X0017312Y0017201D01*
G01X0017312Y0017201D02*
G01X0017354Y0017193D01*
G01X0017354Y0017193D02*
G01X0017394Y0017182D01*
G01X0017394Y0017182D02*
G01X0017433Y0017167D01*
G01X0017433Y0017167D02*
G01X0017470Y0017148D01*
G01X0017470Y0017148D02*
G01X0017506Y0017126D01*
G01X0017506Y0018126D02*
G01X0017470Y0018148D01*
G01X0017470Y0018148D02*
G01X0017433Y0018167D01*
G01X0017433Y0018167D02*
G01X0017394Y0018182D01*
G01X0017394Y0018182D02*
G01X0017354Y0018193D01*
G01X0017354Y0018193D02*
G01X0017312Y0018201D01*
G01X0017312Y0018201D02*
G01X0017271Y0018205D01*
G01X0017271Y0018205D02*
G01X0017229Y0018205D01*
G01X0017229Y0018205D02*
G01X0017188Y0018201D01*
G01X0017188Y0018201D02*
G01X0017146Y0018193D01*
G01X0017146Y0018193D02*
G01X0017106Y0018182D01*
G01X0017106Y0018182D02*
G01X0017067Y0018167D01*
G01X0017067Y0018167D02*
G01X0017030Y0018148D01*
G01X0017030Y0018148D02*
G01X0016994Y0018126D01*
G01X0016867Y0018226D02*
G01X0016640Y0018226D01*
G01X0015488Y0016983D02*
G01X0015334Y0016983D01*
G01X0015334Y0016983D02*
G01X0015258Y0016906D01*
G01X0015258Y0016906D02*
G01X0015258Y0016599D01*
G01X0015258Y0016599D02*
G01X0015334Y0016522D01*
G01X0015334Y0016522D02*
G01X0015488Y0016522D01*
G01X0015488Y0016522D02*
G01X0015565Y0016599D01*
G01X0015565Y0016599D02*
G01X0015565Y0016753D01*
G01X0015565Y0016753D02*
G01X0015411Y0016753D01*
G01X0015565Y0016906D02*
G01X0015488Y0016983D01*
G01X0016640Y0010784D02*
G01X0016925Y0010784D01*
G01X0016925Y0010784D02*
G01X0016856Y0010715D01*
G01X0016856Y0010715D02*
G01X0016640Y0010715D01*
G01X0016640Y0010715D02*
G01X0016640Y0010784D01*
G01X0016640Y0010784D02*
G01X0017860Y0010784D01*
G01X0017506Y0009879D02*
G01X0017470Y0009857D01*
G01X0017470Y0009857D02*
G01X0017433Y0009838D01*
G01X0017433Y0009838D02*
G01X0017394Y0009823D01*
G01X0017394Y0009823D02*
G01X0017354Y0009812D01*
G01X0017354Y0009812D02*
G01X0017312Y0009804D01*
G01X0017312Y0009804D02*
G01X0017271Y0009800D01*
G01X0017271Y0009800D02*
G01X0017229Y0009800D01*
G01X0017229Y0009800D02*
G01X0017188Y0009804D01*
G01X0017188Y0009804D02*
G01X0017146Y0009812D01*
G01X0017146Y0009812D02*
G01X0017106Y0009823D01*
G01X0017106Y0009823D02*
G01X0017067Y0009838D01*
G01X0017067Y0009838D02*
G01X0017030Y0009857D01*
G01X0017030Y0009857D02*
G01X0016994Y0009879D01*
G01X0016925Y0009784D02*
G01X0016856Y0009715D01*
G01X0016856Y0009715D02*
G01X0016640Y0009715D01*
G01X0016640Y0009715D02*
G01X0016640Y0009784D01*
G01X0016640Y0009784D02*
G01X0016925Y0009784D01*
G01X0016897Y0009756D02*
G01X0016640Y0009756D01*
G01X0016640Y0009784D02*
G01X0017860Y0009784D01*
G01X0017860Y0009721D02*
G01X0016640Y0009721D01*
G01X0016640Y0009717D02*
G01X0016859Y0009717D01*
G01X0016946Y0009483D02*
G01X0016639Y0009483D01*
G01X0016639Y0009483D02*
G01X0016639Y0009022D01*
G01X0016639Y0009022D02*
G01X0016946Y0009022D01*
G01X0017099Y0009022D02*
G01X0017099Y0009483D01*
G01X0017099Y0009483D02*
G01X0017406Y0009022D01*
G01X0017406Y0009022D02*
G01X0017406Y0009483D01*
G01X0017560Y0009483D02*
G01X0017560Y0009253D01*
G01X0017560Y0009253D02*
G01X0017713Y0009329D01*
G01X0017713Y0009329D02*
G01X0017790Y0009329D01*
G01X0017790Y0009329D02*
G01X0017867Y0009253D01*
G01X0017867Y0009253D02*
G01X0017867Y0009099D01*
G01X0017867Y0009099D02*
G01X0017790Y0009022D01*
G01X0017790Y0009022D02*
G01X0017636Y0009022D01*
G01X0017636Y0009022D02*
G01X0017560Y0009099D01*
G01X0017506Y0009626D02*
G01X0017470Y0009648D01*
G01X0017470Y0009648D02*
G01X0017433Y0009667D01*
G01X0017433Y0009667D02*
G01X0017394Y0009682D01*
G01X0017394Y0009682D02*
G01X0017354Y0009693D01*
G01X0017354Y0009693D02*
G01X0017312Y0009701D01*
G01X0017312Y0009701D02*
G01X0017271Y0009705D01*
G01X0017271Y0009705D02*
G01X0017229Y0009705D01*
G01X0017229Y0009705D02*
G01X0017188Y0009701D01*
G01X0017188Y0009701D02*
G01X0017146Y0009693D01*
G01X0017146Y0009693D02*
G01X0017106Y0009682D01*
G01X0017106Y0009682D02*
G01X0017067Y0009667D01*
G01X0017067Y0009667D02*
G01X0017030Y0009648D01*
G01X0017030Y0009648D02*
G01X0016994Y0009626D01*
G01X0016792Y0009253D02*
G01X0016639Y0009253D01*
G01X0016485Y0009483D02*
G01X0016178Y0009483D01*
G01X0016178Y0009483D02*
G01X0016178Y0009022D01*
G01X0016178Y0009022D02*
G01X0016485Y0009022D01*
G01X0016332Y0009253D02*
G01X0016178Y0009253D01*
G01X0016025Y0009253D02*
G01X0016025Y0009406D01*
G01X0016025Y0009406D02*
G01X0015948Y0009483D01*
G01X0015948Y0009483D02*
G01X0015718Y0009483D01*
G01X0015718Y0009483D02*
G01X0015718Y0009022D01*
G01X0015718Y0009176D02*
G01X0015948Y0009176D01*
G01X0015948Y0009176D02*
G01X0016025Y0009253D01*
G01X0015871Y0009176D02*
G01X0016025Y0009022D01*
G01X0015565Y0009099D02*
G01X0015565Y0009253D01*
G01X0015565Y0009253D02*
G01X0015411Y0009253D01*
G01X0015258Y0009406D02*
G01X0015258Y0009099D01*
G01X0015258Y0009099D02*
G01X0015334Y0009022D01*
G01X0015334Y0009022D02*
G01X0015488Y0009022D01*
G01X0015488Y0009022D02*
G01X0015565Y0009099D01*
G01X0015565Y0009406D02*
G01X0015488Y0009483D01*
G01X0015488Y0009483D02*
G01X0015334Y0009483D01*
G01X0015334Y0009483D02*
G01X0015258Y0009406D01*
G01X0015718Y0008483D02*
G01X0015948Y0008483D01*
G01X0015948Y0008483D02*
G01X0016025Y0008406D01*
G01X0016025Y0008406D02*
G01X0016025Y0008329D01*
G01X0016025Y0008329D02*
G01X0015948Y0008253D01*
G01X0015948Y0008253D02*
G01X0015718Y0008253D01*
G01X0015718Y0008483D02*
G01X0015718Y0008022D01*
G01X0015718Y0008022D02*
G01X0015948Y0008022D01*
G01X0015948Y0008022D02*
G01X0016025Y0008099D01*
G01X0016025Y0008099D02*
G01X0016025Y0008176D01*
G01X0016025Y0008176D02*
G01X0015948Y0008253D01*
G01X0016178Y0008483D02*
G01X0016178Y0008022D01*
G01X0016178Y0008022D02*
G01X0016485Y0008022D01*
G01X0016639Y0008099D02*
G01X0016716Y0008022D01*
G01X0016716Y0008022D02*
G01X0016869Y0008022D01*
G01X0016869Y0008022D02*
G01X0016946Y0008099D01*
G01X0016946Y0008099D02*
G01X0016946Y0008483D01*
G01X0017099Y0008483D02*
G01X0017099Y0008022D01*
G01X0017099Y0008022D02*
G01X0017406Y0008022D01*
G01X0017560Y0008099D02*
G01X0017636Y0008022D01*
G01X0017636Y0008022D02*
G01X0017790Y0008022D01*
G01X0017790Y0008022D02*
G01X0017867Y0008099D01*
G01X0017867Y0008099D02*
G01X0017867Y0008253D01*
G01X0017867Y0008253D02*
G01X0017790Y0008329D01*
G01X0017790Y0008329D02*
G01X0017713Y0008329D01*
G01X0017713Y0008329D02*
G01X0017560Y0008253D01*
G01X0017560Y0008253D02*
G01X0017560Y0008483D01*
G01X0017560Y0008483D02*
G01X0017867Y0008483D01*
G01X0017860Y0008721D02*
G01X0016640Y0008721D01*
G01X0016639Y0008483D02*
G01X0016639Y0008099D01*
G01X0017099Y0008253D02*
G01X0017253Y0008253D01*
G01X0017406Y0008483D02*
G01X0017099Y0008483D01*
G01X0016994Y0008879D02*
G01X0017030Y0008857D01*
G01X0017030Y0008857D02*
G01X0017067Y0008838D01*
G01X0017067Y0008838D02*
G01X0017106Y0008823D01*
G01X0017106Y0008823D02*
G01X0017146Y0008812D01*
G01X0017146Y0008812D02*
G01X0017188Y0008804D01*
G01X0017188Y0008804D02*
G01X0017229Y0008800D01*
G01X0017229Y0008800D02*
G01X0017271Y0008800D01*
G01X0017271Y0008800D02*
G01X0017312Y0008804D01*
G01X0017312Y0008804D02*
G01X0017354Y0008812D01*
G01X0017354Y0008812D02*
G01X0017394Y0008823D01*
G01X0017394Y0008823D02*
G01X0017433Y0008838D01*
G01X0017433Y0008838D02*
G01X0017470Y0008857D01*
G01X0017470Y0008857D02*
G01X0017506Y0008879D01*
G01X0017560Y0009483D02*
G01X0017867Y0009483D01*
G01X0017506Y0010626D02*
G01X0017470Y0010648D01*
G01X0017470Y0010648D02*
G01X0017433Y0010667D01*
G01X0017433Y0010667D02*
G01X0017394Y0010682D01*
G01X0017394Y0010682D02*
G01X0017354Y0010693D01*
G01X0017354Y0010693D02*
G01X0017312Y0010701D01*
G01X0017312Y0010701D02*
G01X0017271Y0010705D01*
G01X0017271Y0010705D02*
G01X0017229Y0010705D01*
G01X0017229Y0010705D02*
G01X0017188Y0010701D01*
G01X0017188Y0010701D02*
G01X0017146Y0010693D01*
G01X0017146Y0010693D02*
G01X0017106Y0010682D01*
G01X0017106Y0010682D02*
G01X0017067Y0010667D01*
G01X0017067Y0010667D02*
G01X0017030Y0010648D01*
G01X0017030Y0010648D02*
G01X0016994Y0010626D01*
G01X0016898Y0010757D02*
G01X0016640Y0010757D01*
G01X0016640Y0010718D02*
G01X0016860Y0010718D01*
G01X0016986Y0026166D02*
G01X0016833Y0026320D01*
G01X0016910Y0026320D02*
G01X0016679Y0026320D01*
G01X0016679Y0026166D02*
G01X0016679Y0026626D01*
G01X0016679Y0026626D02*
G01X0016910Y0026626D01*
G01X0016910Y0026626D02*
G01X0016986Y0026550D01*
G01X0016986Y0026550D02*
G01X0016986Y0026396D01*
G01X0016986Y0026396D02*
G01X0016910Y0026320D01*
G01X0017140Y0026396D02*
G01X0017293Y0026396D01*
G01X0017140Y0026626D02*
G01X0017140Y0026166D01*
G01X0017140Y0026166D02*
G01X0017447Y0026166D01*
G01X0017600Y0026166D02*
G01X0017600Y0026626D01*
G01X0017600Y0026626D02*
G01X0017830Y0026626D01*
G01X0017830Y0026626D02*
G01X0017907Y0026550D01*
G01X0017907Y0026550D02*
G01X0017907Y0026243D01*
G01X0017907Y0026243D02*
G01X0017830Y0026166D01*
G01X0017830Y0026166D02*
G01X0017600Y0026166D01*
G01X0017447Y0026626D02*
G01X0017140Y0026626D01*
G01X0018061Y0026473D02*
G01X0018214Y0026626D01*
G01X0018214Y0026626D02*
G01X0018214Y0026166D01*
G01X0018061Y0026166D02*
G01X0018368Y0026166D01*
G54D15*
G01X0011075Y0024002D03*
G01X0008925Y0024002D03*
G01X0005325Y0011252D03*
G01X0003175Y0011252D03*
G54D16*
G01X0004700Y0013009D02*
G01X0004700Y0013426D01*
G01X0004700Y0013009D02*
G01X0005361Y0012348D01*
G01X0006474Y0013322D02*
G01X0005744Y0014053D01*
G01X0005744Y0014053D02*
G01X0005326Y0014053D01*
G01X0012762Y0018109D02*
G01X0013057Y0017813D01*
G01X0012762Y0018109D02*
G01X0012762Y0019142D01*
G01X0013943Y0017813D02*
G01X0014238Y0018109D01*
G01X0014238Y0018109D02*
G01X0014238Y0019044D01*
G54D17*
G01X0013500Y0018502D03*
G36*
G01X0005882Y0013009D02*
G01X0005743Y0012870D01*
G01X0005118Y0013495D01*
G01X0005257Y0013634D01*
G01X0005882Y0013009D01*
G37*
G54D18*
G36*
G01X0005882Y0013495D02*
G01X0005257Y0012870D01*
G01X0005118Y0013009D01*
G01X0005743Y0013634D01*
G01X0005882Y0013495D01*
G37*
G01X0013500Y0018502D03*
G54D19*
G01X0017181Y0018743D02*
G01X0017240Y0018683D01*
G01X0017240Y0018683D02*
G01X0017309Y0018752D01*
G01X0017309Y0018752D02*
G01X0017250Y0018811D01*
G01X0017250Y0018811D02*
G01X0017181Y0018743D01*
G01X0017250Y0015311D02*
G01X0017309Y0015252D01*
G01X0017309Y0015252D02*
G01X0017240Y0015183D01*
G01X0017240Y0015183D02*
G01X0017181Y0015243D01*
G01X0017181Y0015243D02*
G01X0017250Y0015311D01*
G01X0017250Y0011311D02*
G01X0017309Y0011252D01*
G01X0017309Y0011252D02*
G01X0017240Y0011183D01*
G01X0017240Y0011183D02*
G01X0017181Y0011243D01*
G01X0017181Y0011243D02*
G01X0017250Y0011311D01*
G01X0017240Y0022183D02*
G01X0017181Y0022243D01*
G01X0017181Y0022243D02*
G01X0017250Y0022311D01*
G01X0017250Y0022311D02*
G01X0017309Y0022252D01*
G01X0017309Y0022252D02*
G01X0017240Y0022183D01*
G01X0017240Y0025683D02*
G01X0017181Y0025743D01*
G01X0017181Y0025743D02*
G01X0017250Y0025811D01*
G01X0017250Y0025811D02*
G01X0017309Y0025752D01*
G01X0017309Y0025752D02*
G01X0017240Y0025683D01*
G54D20*
G01X0017142Y0025910D03*
G01X0017142Y0022410D03*
G01X0017142Y0018910D03*
G01X0017142Y0015410D03*
G01X0017142Y0011410D03*
M02*
