<?xml version="1.0" encoding="UTF-8" standalone="no"?>
<!-- Created with Inkscape (http://www.inkscape.org/) -->

<svg
   xmlns:dc="http://purl.org/dc/elements/1.1/"
   xmlns:cc="http://creativecommons.org/ns#"
   xmlns:rdf="http://www.w3.org/1999/02/22-rdf-syntax-ns#"
   xmlns:svg="http://www.w3.org/2000/svg"
   xmlns="http://www.w3.org/2000/svg"
   xmlns:sodipodi="http://sodipodi.sourceforge.net/DTD/sodipodi-0.dtd"
   xmlns:inkscape="http://www.inkscape.org/namespaces/inkscape"
   width="491.09375"
   height="352.1875"
   id="svg2"
   version="1.1"
   inkscape:version="0.48.2 r9819"
   sodipodi:docname="New document 1">
  <defs
     id="defs4" />
  <sodipodi:namedview
     id="base"
     pagecolor="#ffffff"
     bordercolor="#666666"
     borderopacity="1.0"
     inkscape:pageopacity="0.0"
     inkscape:pageshadow="2"
     inkscape:zoom="0.52558086"
     inkscape:cx="197.23495"
     inkscape:cy="80.393401"
     inkscape:document-units="px"
     inkscape:current-layer="layer1"
     showgrid="false"
     fit-margin-top="0"
     fit-margin-left="0"
     fit-margin-right="0"
     fit-margin-bottom="0"
     inkscape:window-width="1024"
     inkscape:window-height="719"
     inkscape:window-x="0"
     inkscape:window-y="0"
     inkscape:window-maximized="1" />
  <metadata
     id="metadata7">
    <rdf:RDF>
      <cc:Work
         rdf:about="">
        <dc:format>image/svg+xml</dc:format>
        <dc:type
           rdf:resource="http://purl.org/dc/dcmitype/StillImage" />
        <dc:title></dc:title>
      </cc:Work>
    </rdf:RDF>
  </metadata>
  <g
     inkscape:label="Layer 1"
     inkscape:groupmode="layer"
     id="layer1"
     transform="translate(-110.25,-215.09375)">
    <path
       style="fill:#000000"
       d="m 487.05887,530.2713 c 27.41678,-9.79914 42.60925,-22.18627 56.22576,-45.84349 9.2614,-16.09067 13.67813,-37.4843 11.50614,-55.73307 -2.37426,-19.94821 -9.37418,-36.54459 -22.12605,-52.45947 -14.76232,-18.42401 -38.9539,-31.35879 -64.33795,-34.4003 -6.08225,-0.72877 -60.5213,-1.07929 -167.92126,-1.08119 -146.477,-0.003 -159.06446,0.12677 -160.75,1.65217 -2.3302,2.1088 -2.34309,5.56955 -0.0286,7.66417 1.64557,1.48922 15.92394,1.65295 166.25,1.90633 l 164.44982,0.27718 10,2.8043 c 29.73132,8.33753 53.24834,31.90802 61.05423,61.19303 5.28962,19.84483 2.8064,43.883 -6.23979,60.40261 -12.0352,21.97797 -25.8401,33.54835 -51.65772,43.29617 -7.78888,2.94081 -8.85572,3.08258 -23.65672,3.14368 -13.47219,0.0556 -16.4812,-0.23799 -23,-2.24428 -19.52449,-6.00903 -38.31385,-21.30755 -48.2407,-39.27817 -5.79633,-10.49312 -9.30147,-29.40701 -8.17201,-44.09646 0.58599,-7.62125 0.43973,-9.03621 -1.11122,-10.75 -2.21061,-2.44268 -5.66246,-2.54271 -7.71461,-0.22355 -2.23855,2.52981 -3.19771,17.77339 -1.77755,28.25 2.85617,21.07015 7.38323,32.18685 18.89277,46.39328 13.42223,16.56731 36.00808,29.81147 55.62332,32.61707 3.3,0.47201 12.07752,0.66158 19.50561,0.42128 12.28202,-0.39733 14.38629,-0.75168 23.22649,-3.91129 z m -19.55446,-12.56677 c 16.29605,-2.17999 30.36341,-8.62197 44.40215,-20.33345 15.40788,-12.85365 26.92021,-38.13615 26.92021,-59.12012 0,-20.6774 -10.96063,-45.03988 -26.78832,-59.54308 -11.19983,-10.26261 -27.76047,-17.66662 -44.53404,-19.91049 -5.00911,-0.67009 -44.18172,-1.04643 -108.92126,-1.04643 -92.67027,0 -101.25136,0.13798 -102.92764,1.65499 -2.27423,2.05815 -2.34495,5.11713 -0.17375,7.51627 1.58247,1.74861 6.07072,1.82874 102.42764,1.82874 64.84919,0 103.46078,0.37388 108.3134,1.04882 30.45539,4.23596 51.12811,22.78867 59.53412,53.42882 4.73473,17.25824 1.0329,35.97443 -10.68495,54.02236 -12.8998,19.86838 -41.52055,32.94974 -64.36302,29.41767 -34.63912,-5.35616 -58.28209,-35.92863 -53.80469,-69.57427 1.01553,-7.63124 0.95367,-8.65149 -0.63075,-10.40225 -2.1842,-2.41352 -5.6451,-2.49969 -7.67724,-0.19115 -2.58341,2.9348 -4.12745,17.73218 -2.80493,26.88127 4.76231,32.94534 29.25855,58.40286 61.53543,63.95019 9.18627,1.57882 10.91838,1.61076 20.17764,0.37211 z m -1.36919,-17.01855 c 26.3127,-3.8966 49.283,-23.98526 54.07583,-47.29198 3.47167,-16.88212 1.27351,-33.39359 -6.06455,-45.55395 -8.96494,-14.85638 -18.66007,-23.35902 -33.81973,-29.65998 l -7,-2.90947 -141.3884,-0.28956 c -131.40925,-0.26912 -141.51979,-0.17065 -143.25,1.39517 -2.3595,2.13532 -2.38754,5.58881 -0.0625,7.69297 1.64097,1.48506 14.14657,1.65366 142.25,1.91776 l 140.45086,0.28956 5.5,2.31068 c 12.44847,5.22989 20.12786,12.08301 28.02282,25.00768 5.59637,9.16171 7.45468,24.44613 4.59299,37.77682 -2.26079,10.53144 -11.17419,22.77284 -21.61581,29.68649 -26.72213,17.69338 -61.60312,8.21049 -71.99856,-19.57382 -3.31316,-8.8552 -4.15856,-16.18961 -2.88409,-25.02139 1.01239,-7.01563 0.94775,-7.98258 -0.65174,-9.75 -2.20116,-2.43226 -5.65337,-2.52717 -7.71086,-0.212 -2.64511,2.97638 -3.99043,15.38655 -2.65674,24.50768 3.90122,26.68066 21.92806,45.34911 47.90199,49.60692 7.6958,1.26154 8.24895,1.26393 16.30845,0.0704 z m 11.88469,-19.86855 c 35.52316,-16.10697 35.64736,-68.94964 0.19987,-85.03937 -10.72879,-4.86983 -13.69755,-5.0271 -94.89618,-5.0271 -69.16599,0 -76.00027,0.14563 -77.66809,1.65499 -2.32666,2.10559 -2.34404,5.56869 -0.0384,7.65524 1.61285,1.45962 9.61657,1.64843 80.75,1.90499 l 78.95966,0.28478 6.24949,2.63355 c 13.98465,5.89317 22.22886,18.26808 22.22886,33.36645 0,14.3079 -7.37612,26.22548 -19.97835,32.27896 -4.72762,2.27091 -6.83412,2.64748 -15,2.68148 -8.68555,0.0362 -9.91654,-0.20528 -14.35866,-2.81627 -13.07838,-7.68724 -18.63893,-20.52446 -15.0034,-34.63722 1.71859,-6.67136 1.71582,-6.95857 -0.0862,-8.94975 -2.27885,-2.51809 -5.72885,-2.65496 -7.7435,-0.3072 -0.82594,0.9625 -2.28546,4.62126 -3.24337,8.13058 -4.60217,16.8601 4.0203,36.12913 20.2341,45.21809 7.07309,3.96495 12.16222,4.8872 23.83999,4.32026 7.33248,-0.35599 10.40708,-1.01867 15.55415,-3.35246 z m -13.19314,-13.40087 c 13.7916,-3.26777 24,-15.71815 24,-29.27089 0,-10.61938 -5.03688,-19.03554 -16,-26.73453 l -4.5,-3.16018 -105.38726,-0.28077 c -97.67261,-0.26021 -105.52362,-0.15736 -107.25,1.40499 -2.30552,2.08646 -2.38947,5.13627 -0.20775,7.54704 1.58282,1.749 6.12556,1.82874 104.18427,1.82874 100.44198,0 102.61329,0.0407 106.65549,1.99746 9.7587,4.7241 14.03224,15.01387 10.02184,24.13042 -6.56812,14.93079 -24.5807,16.46759 -31.60615,2.69657 -2.27479,-4.45896 -1.94624,-8.07855 1.20189,-13.24113 2.31454,-3.7956 2.36271,-5.40092 0.23268,-7.75458 -2.90308,-3.20786 -5.99314,-2.28683 -9.76488,2.91054 -4.47064,6.16045 -5.5931,13.82 -2.89649,19.76533 4.71753,10.40092 9.76598,15.25822 18.81636,18.10389 5.13816,1.61558 5.9076,1.61909 12.5,0.0571 z M 395.67686,333.90087 c 1.36752,-1.36752 3.20458,-8.86658 7.04293,-28.75 2.85605,-14.79495 6.61699,-34.18618 8.35764,-43.09163 3.09493,-15.83418 3.12368,-16.23716 1.30209,-18.25 -2.27977,-2.51911 -5.71904,-2.65543 -7.77761,-0.30828 -0.96326,1.0983 -4.64259,17.89686 -9.87997,45.10861 l -8.34513,43.35862 2.33576,1.89138 c 2.93454,2.37624 4.61936,2.38623 6.96429,0.0413 z m 15.13557,0.85777 c 2.57807,-1.37974 2.87275,-2.55042 12.03229,-47.80039 7.71824,-38.12965 8.06966,-40.42464 6.54602,-42.75 -1.89771,-2.89627 -5.57365,-3.2298 -7.79519,-0.70729 -1.31856,1.4972 -18.76878,83.01002 -18.76878,87.67203 0,1.43687 3.62844,4.57797 5.28825,4.57797 0.46378,0 1.67761,-0.44655 2.69741,-0.99232 z m 17,0 c 2.57807,-1.37974 2.87275,-2.55042 12.03229,-47.80039 7.71824,-38.12965 8.06966,-40.42464 6.54602,-42.75 -1.89771,-2.89627 -5.57365,-3.2298 -7.79519,-0.70729 -1.31856,1.4972 -18.76878,83.01002 -18.76878,87.67203 0,1.43687 3.62844,4.57797 5.28825,4.57797 0.46378,0 1.67761,-0.44655 2.69741,-0.99232 z m 17.86443,-0.85777 c 1.36752,-1.36752 3.20458,-8.86658 7.04293,-28.75 2.85605,-14.79495 6.61699,-34.18618 8.35764,-43.09163 3.09493,-15.83418 3.12368,-16.23716 1.30209,-18.25 -2.27977,-2.51911 -5.71904,-2.65543 -7.77761,-0.30828 -0.96326,1.0983 -4.64259,17.89686 -9.87997,45.10861 l -8.34513,43.35862 2.33576,1.89138 c 2.93454,2.37624 4.61936,2.38623 6.96429,0.0413 z m 15.13557,0.85777 c 2.57807,-1.37974 2.87275,-2.55042 12.03229,-47.80039 7.71824,-38.12965 8.06966,-40.42464 6.54602,-42.75 -1.89771,-2.89627 -5.57365,-3.2298 -7.79519,-0.70729 -1.31856,1.4972 -18.76878,83.01002 -18.76878,87.67203 0,1.43687 3.62844,4.57797 5.28825,4.57797 0.46378,0 1.67761,-0.44655 2.69741,-0.99232 z"
       id="path3009"
       inkscape:connector-curvature="0"
       sodipodi:nodetypes="csssssssscssssssssssssssccssssssssssssssssssscssscsssscsssssssssscccssssscsssssssssssccssscssssssssssssssssssscsssssssssssssssssssssscsssssssss" />
  </g>
</svg>
