M48
INCH
T37C0.020
T36C0.040
T35C0.038
%
T37
X3400Y1900
X1490Y1640
X1340Y2040
X1470Y1700
X1440Y1660
X1520Y1680
X1390Y1860
X2250Y2040
X2230Y1860
X2160Y1820
X2165Y477
X1710Y1550
X1710Y1110
X1750Y2000
X1780Y1110
X3721Y2078
X3709Y1573
X3475Y1730
X3445Y1690
X3495Y1670
X3525Y1710
X1310Y2150
T35
X1575Y477
X1446Y990
X480Y950
X480Y1050
X1210Y760
X1210Y660
X2900Y2090
X2900Y1990
X2900Y1890
X2165Y990
X2095Y990
X2024Y990
X1953Y990
X1516Y990
X2165Y477
T36
X2570Y2150
X1410Y2150
X1310Y2150
X1210Y2150
X1110Y2150
X1010Y2150
X1610Y2150
X1710Y2150
X1870Y2150
X1970Y2150
X2070Y2150
X2170Y2150
X2270Y2150
X1870Y250
X1770Y250
X1670Y250
X1570Y250
X1470Y250
X1370Y250
X2570Y250
X2470Y250
X2370Y250
X2270Y250
X2170Y250
X2070Y250
X2370Y2150
X2470Y2150
X1510Y2150
M30
