G04 start of page 2 for group 0 idx 0 *
G04 Title: outline, solder *
G04 Creator: pcb 20110918 *
G04 CreationDate: Sat Nov 24 14:21:28 2012 UTC *
G04 For: ast *
G04 Format: Gerber/RS-274X *
G04 PCB-Dimensions: 420000 250000 *
G04 PCB-Coordinate-Origin: lower left *
%MOIN*%
%FSLAX25Y25*%
%LNBOTTOM*%
%ADD19C,0.0380*%
%ADD18C,0.0200*%
%ADD17R,0.0512X0.0512*%
%ADD16C,0.0001*%
%ADD15C,0.0600*%
%ADD14C,0.0080*%
%ADD13C,0.0250*%
%ADD12C,0.0400*%
%ADD11C,0.0100*%
G54D11*X307000Y128000D02*X345000D01*
X370967Y153967D02*X345000Y128000D01*
X358000Y144000D02*X346000Y132000D01*
X305000D01*
G54D12*X330000Y167000D02*X308000D01*
X330521D02*X349521D01*
G54D11*X242000Y63000D02*X307000Y128000D01*
X242000Y23919D02*Y63000D01*
X236581Y18500D02*X242000Y23919D01*
X214500Y18500D02*X236581D01*
X237000Y64000D02*Y26000D01*
X217000Y47200D02*Y25000D01*
X305000Y132000D02*X237000Y64000D01*
X215000Y18000D02*X208000Y25000D01*
G54D13*X157000D02*X322000Y190000D01*
G54D12*X308000Y167000D02*X177000Y36000D01*
G54D11*X188914Y74607D02*X188807Y74500D01*
X202900Y100500D02*Y138000D01*
X210000Y100500D02*Y138000D01*
X217000Y100500D02*Y138000D01*
X178000Y154000D02*Y107000D01*
Y86307D02*Y107700D01*
X188914Y75393D02*X178000Y86307D01*
X196393Y75000D02*X207000D01*
X196000Y75393D02*X196393Y75000D01*
G54D12*X177000Y36000D02*Y25000D01*
G54D11*X178000Y154000D02*X167000Y165000D01*
X171000Y111000D02*Y155000D01*
X157000Y25000D02*X157500Y25500D01*
X195800Y100500D02*Y138000D01*
X370967Y157386D02*Y153967D01*
X372162Y207838D02*X358000Y193676D01*
Y144000D01*
G54D13*X322000Y190000D02*X340000D01*
G54D12*X345521Y168000D02*X350521D01*
X344521Y169000D02*X345521Y168000D01*
X348021Y172500D02*X344521Y169000D01*
X350521Y168000D02*X352021Y169500D01*
X351021Y172500D02*X348021D01*
X352521Y171000D02*X351021Y172500D01*
X352521Y170000D02*Y171000D01*
X349521Y167000D02*X352521Y170000D01*
G54D11*X203000Y206000D02*X160000D01*
X172000Y197000D02*X175500Y200500D01*
X223000Y186000D02*X203000Y206000D01*
X216000Y182000D02*X194000Y204000D01*
X245000Y187400D02*Y197000D01*
X252000Y187200D02*Y202000D01*
X260000Y188000D02*Y204000D01*
X274000Y195000D02*Y206000D01*
X195800Y138200D02*X245000Y187400D01*
X202900Y138100D02*X252000Y187200D01*
X210000Y138000D02*X260000Y188000D01*
X217000Y138000D02*X274000Y195000D01*
X167000Y165000D02*Y185000D01*
Y192000D02*Y184800D01*
X175000Y200000D02*X167000Y192000D01*
X303000Y209000D02*X290000D01*
X322000Y190000D02*X303000Y209000D01*
X290000Y199000D02*X269000Y220000D01*
X202000D01*
X223000Y202000D02*X215000Y210000D01*
X227000Y215000D02*X245000Y197000D01*
X239000Y215000D02*X237000D01*
X265000D02*X257000D01*
X252000Y202000D02*X239000Y215000D01*
X249000D02*X247000D01*
X260000Y204000D02*X249000Y215000D01*
X274000Y206000D02*X265000Y215000D01*
G54D13*X144600Y99000D02*X144000Y99600D01*
G54D12*X157000Y25000D02*X139000Y43000D01*
X101000Y42000D02*X139000D01*
X48000Y95000D02*X101000Y42000D01*
G54D13*X144000Y99600D02*Y166000D01*
X139000Y43000D02*Y186000D01*
G54D12*X150000Y165000D02*X151500Y166500D01*
X145000Y165000D02*X150000D01*
X144000Y166000D02*X145000Y165000D01*
X147500Y169500D02*X144000Y166000D01*
X150500Y169500D02*X147500D01*
X152000Y168000D02*X150500Y169500D01*
X152000Y167000D02*Y168000D01*
X149000Y164000D02*X152000Y167000D01*
G54D11*X202000Y220000D02*X197000Y215000D01*
X166000Y210000D02*X161000Y215000D01*
X160000Y206000D02*X151000Y215000D01*
X194000Y204000D02*X134000D01*
G54D12*X122000Y194000D02*X111000Y205000D01*
X147000Y194000D02*X122000D01*
X147000Y170000D02*Y194000D01*
G54D11*X215000Y210000D02*X166000D01*
G54D12*X111000Y209000D02*Y215000D01*
Y205000D02*Y209200D01*
G54D11*X123000Y215000D02*X121000D01*
X134000Y204000D02*X123000Y215000D01*
X122000D02*X121000D01*
G54D14*X83000Y164000D02*X85000D01*
X85500Y163500D01*
Y162500D02*Y163500D01*
X85000Y162000D02*X85500Y162500D01*
X83500Y162000D02*X85000D01*
X83500Y160000D02*Y164000D01*
X83000Y160000D02*X85000D01*
X85500Y160500D01*
Y161500D01*
X85000Y162000D02*X85500Y161500D01*
X86700Y160500D02*Y163500D01*
Y160500D02*X87200Y160000D01*
X88200D01*
X88700Y160500D01*
Y163500D01*
X88200Y164000D02*X88700Y163500D01*
X87200Y164000D02*X88200D01*
X86700Y163500D02*X87200Y164000D01*
X89900Y160000D02*X91900D01*
X90900D02*Y164000D01*
G54D15*X151600Y99000D03*
X144600D03*
G54D16*G36*
X45000Y98000D02*Y92000D01*
X51000D01*
Y98000D01*
X45000D01*
G37*
G54D15*X48000Y105000D03*
G54D16*G36*
X118000Y79000D02*Y73000D01*
X124000D01*
Y79000D01*
X118000D01*
G37*
G54D15*X121000Y66000D03*
G54D16*G36*
X287000Y212000D02*Y206000D01*
X293000D01*
Y212000D01*
X287000D01*
G37*
G54D15*X290000Y199000D03*
Y189000D03*
G54D16*G36*
X254000Y218000D02*Y212000D01*
X260000D01*
Y218000D01*
X254000D01*
G37*
G54D15*X247000Y215000D03*
X237000D03*
G54D16*G36*
X213500Y102000D02*Y96000D01*
X219500D01*
Y102000D01*
X213500D01*
G37*
G54D15*X209500Y99000D03*
X202400D03*
X195300D03*
X157500Y47700D03*
X216500D03*
G54D16*G36*
X204000Y28000D02*Y22000D01*
X210000D01*
Y28000D01*
X204000D01*
G37*
G54D15*X217000Y25000D03*
X227000D03*
X237000D03*
X247000D03*
X257000D03*
G54D16*G36*
X134000Y28000D02*Y22000D01*
X140000D01*
Y28000D01*
X134000D01*
G37*
G54D15*X147000Y25000D03*
X157000D03*
X167000D03*
X177000D03*
X187000D03*
X227000Y215000D03*
X217000D03*
X207000D03*
X197000D03*
X187000D03*
G54D16*G36*
X168000Y218000D02*Y212000D01*
X174000D01*
Y218000D01*
X168000D01*
G37*
G54D15*X161000Y215000D03*
X151000D03*
X141000D03*
X131000D03*
X121000D03*
X111000D03*
X101000D03*
G54D17*X196000Y75393D02*Y74607D01*
X188914Y75393D02*Y74607D01*
G54D12*X178000Y111000D03*
X175000Y200000D03*
X171000Y111000D03*
Y155000D03*
X216500Y47700D03*
X216000Y182000D03*
X223000Y186000D03*
Y202000D03*
X139000Y186000D03*
X152000Y168000D03*
X144000Y166000D03*
X147000Y170000D03*
X134000Y204000D03*
X149000Y164000D03*
X131000Y215000D03*
X340000Y190000D03*
X352521Y171000D03*
X349521Y167000D03*
X344521Y169000D03*
X347521Y173000D03*
X370967Y157386D03*
X372162Y207838D03*
G54D18*G54D19*G54D12*G54D19*G54D12*M02*
