M48
INCH
T37C0.020
T36C0.040
T35C0.038
%
T37
X034000Y019000
X014900Y016400
X013400Y020400
X014700Y017000
X014400Y016600
X015200Y016800
X013900Y018600
X022500Y020400
X022300Y018600
X021600Y018200
X021650Y004770
X017100Y015500
X017100Y011100
X017500Y020000
X017800Y011100
X037216Y020784
X037097Y015739
X034752Y017300
X034452Y016900
X034952Y016700
X035252Y017100
X013100Y021500
T35
X015750Y004770
X014460Y009900
X004800Y009500
X004800Y010500
X012100Y007600
X012100Y006600
X029000Y020900
X029000Y019900
X029000Y018900
X021650Y009900
X020950Y009900
X020240Y009900
X019530Y009900
X015160Y009900
X021650Y004770
T36
X025700Y021500
X014100Y021500
X013100Y021500
X012100Y021500
X011100Y021500
X010100Y021500
X016100Y021500
X017100Y021500
X018700Y021500
X019700Y021500
X020700Y021500
X021700Y021500
X022700Y021500
X018700Y002500
X017700Y002500
X016700Y002500
X015700Y002500
X014700Y002500
X013700Y002500
X025700Y002500
X024700Y002500
X023700Y002500
X022700Y002500
X021700Y002500
X020700Y002500
X023700Y021500
X024700Y021500
X015100Y021500
M30
