G04 start of page 3 for group 1 idx 1 *
G04 Title: outline, component *
G04 Creator: pcb 20110918 *
G04 CreationDate: Sat Nov 24 14:21:28 2012 UTC *
G04 For: ast *
G04 Format: Gerber/RS-274X *
G04 PCB-Dimensions: 420000 250000 *
G04 PCB-Coordinate-Origin: lower left *
%MOIN*%
%FSLAX25Y25*%
%LNTOP*%
%ADD32C,0.0380*%
%ADD31C,0.0200*%
%ADD30R,0.0130X0.0130*%
%ADD29R,0.0200X0.0200*%
%ADD28R,0.0512X0.0512*%
%ADD27C,0.0001*%
%ADD26C,0.0600*%
%ADD25C,0.0080*%
%ADD24C,0.0096*%
%ADD23C,0.0300*%
%ADD22C,0.0250*%
%ADD21C,0.0400*%
%ADD20C,0.0100*%
G54D20*X171000Y61000D02*Y111000D01*
X178000Y74000D02*Y110000D01*
G54D21*X183200Y112800D02*Y112670D01*
X180000Y116000D02*X183200Y112800D01*
X163000Y116000D02*X180000D01*
X152000Y105000D02*X163000Y116000D01*
X148000Y105000D02*X152000D01*
G54D20*X151000Y115800D02*X147000Y111800D01*
X134200Y71000D02*X112000D01*
G54D22*X132607Y99000D02*X144600D01*
X128607Y95000D02*X132607Y99000D01*
X129021Y87500D02*X150500D01*
X128607Y87914D02*X129021Y87500D01*
X151600Y88600D02*Y99000D01*
X139000Y76000D02*X151600Y88600D01*
X121000Y76000D02*X139000D01*
G54D20*X144000Y111800D02*Y105800D01*
X111000Y114800D02*X107000Y110800D01*
X48000Y73521D02*Y95000D01*
X53914Y67607D02*X48000Y73521D01*
X73000Y68000D02*X61000D01*
X73000Y82000D02*Y86000D01*
X81000Y74000D02*X73000Y82000D01*
X123000Y18000D02*X73000Y68000D01*
G54D22*X121000Y51000D02*Y66000D01*
X147000Y25000D02*X121000Y51000D01*
G54D20*X157500Y47700D02*X134200Y71000D01*
X111693Y95000D02*X129000D01*
X103086Y86393D02*X111693Y95000D01*
X104000Y107800D02*X106000Y105800D01*
X104000Y110800D02*Y107800D01*
X87479Y86000D02*X96000D01*
X87086Y86393D02*X87479Y86000D01*
X80000Y91000D02*Y86000D01*
X78000Y91000D02*X80000D01*
X73000Y86000D02*X78000Y91000D01*
X109000Y74000D02*X81000D01*
X112000Y71000D02*X109000Y74000D01*
G54D21*X26800Y105000D02*X147000D01*
X26000Y105800D02*X26800Y105000D01*
G54D20*X64000Y107800D02*X66000Y105800D01*
X24000Y107800D02*X26000Y105800D01*
X64000Y110800D02*Y107800D01*
X71000Y114800D02*X67000Y110800D01*
X24000D02*Y107800D01*
X31000Y114800D02*X27000Y110800D01*
X24000Y120800D02*Y127072D01*
X27000Y120800D02*Y127526D01*
X31000Y114800D02*Y128981D01*
X151000Y122800D02*X156000Y127800D01*
X181182D01*
X226000Y26000D02*X178000Y74000D01*
X230000Y18000D02*X123000D01*
X237000Y25000D02*X230000Y18000D01*
X207000Y25000D02*X171000Y61000D01*
X216500Y47700D02*X217000Y47200D01*
X121000Y185000D02*X151000Y215000D01*
X111000Y181000D02*X134000Y204000D01*
X140000Y215000D02*X141000D01*
X104000Y179000D02*X140000Y215000D01*
X132000Y185000D02*X156000Y209000D01*
X152000Y192974D02*X151013Y191987D01*
X140000Y224000D02*X131000Y215000D01*
G54D22*X143640Y184614D02*X151640Y192614D01*
X151013Y191987D02*X159000Y192000D01*
G54D20*X151726Y184614D02*X158033D01*
X161959Y188540D01*
Y192228D01*
Y191688D01*
X169636Y199000D02*Y192228D01*
X120000Y153400D02*X111000Y162400D01*
X173000Y149800D02*X79000D01*
X174000Y147800D02*X57000D01*
X176000Y143800D02*X83000D01*
X174546Y145800D02*X48000D01*
X116000Y151600D02*X104000Y163600D01*
X176546Y141800D02*X81274D01*
X177091Y139800D02*X81819D01*
G54D21*X149000Y163000D02*X152000D01*
X148000Y162000D02*X149000Y163000D01*
X144000Y169000D02*Y165000D01*
X146000Y169000D02*X144000D01*
G54D20*X161959Y171303D02*Y160226D01*
X164518Y171303D02*Y159985D01*
X167077Y171303D02*Y159744D01*
X169636Y171303D02*Y158303D01*
X172195Y156195D02*Y169000D01*
X174721Y166489D02*Y159521D01*
G54D21*X147000Y170000D02*X146000Y169000D01*
X148084Y170084D02*X151084D01*
X147500Y169500D02*X148084Y170084D01*
G54D22*X151554Y168614D02*X158400D01*
X143640Y177528D02*X152554Y168614D01*
G54D20*X143640Y177528D02*X152119D01*
X111000Y162400D02*Y181000D01*
X104000Y163600D02*Y179000D01*
X132000Y169000D02*Y185000D01*
X121000Y168000D02*Y185000D01*
X78000Y156000D02*X80000D01*
X78000Y164546D02*Y156000D01*
X79000D02*X94546D01*
X80000Y158000D02*Y164000D01*
X94000Y158000D02*X80000D01*
X83454Y170000D02*X78000Y164546D01*
X97000Y170000D02*X83454D01*
X97000Y158454D02*Y170000D01*
X94546Y156000D02*X97000Y158454D01*
X95000Y159000D02*X94000Y158000D01*
X95000Y168000D02*Y159000D01*
X84000Y168000D02*X95000D01*
X80000Y164000D02*X84000Y168000D01*
X48000Y145800D02*X49000D01*
X80728Y143800D02*X84000D01*
X133800Y155200D02*X121000Y168000D01*
X162188Y153400D02*X120000D01*
X161959Y160226D02*X158733Y157000D01*
X159718Y155200D02*X133800D01*
X164518Y160000D02*X159718Y155200D01*
X167077Y158290D02*X162188Y153400D01*
X167077Y160000D02*Y158290D01*
X162933Y151600D02*X116000D01*
X177279Y166489D02*Y159079D01*
X179838Y166489D02*Y159092D01*
X182397Y166489D02*Y158197D01*
X184956Y166489D02*Y158210D01*
X187515Y166489D02*Y158224D01*
X190074Y166489D02*Y157874D01*
X192633Y166489D02*Y157433D01*
X163000Y151667D02*X162933Y151600D01*
X169636Y158303D02*X162933Y151600D01*
X171000Y155000D02*X172195Y156195D01*
X179838Y159162D02*Y151000D01*
X177279Y161000D02*Y151079D01*
X174721Y160721D02*Y151521D01*
X173000Y149800D01*
X177279Y151079D02*X174000Y147800D01*
X179838Y151092D02*X174546Y145800D01*
X182397Y150197D02*X176000Y143800D01*
X184956Y150210D02*X176546Y141800D01*
X187515Y150224D02*X177091Y139800D01*
X190074Y149874D02*X178000Y137800D01*
X192633Y149433D02*X179000Y135800D01*
X179546Y133800D02*X196000Y150254D01*
X118000Y137800D02*X178000D01*
X124000Y133800D02*X179546D01*
X116000D02*X125000D01*
X144000Y128072D02*X147728Y131800D01*
X147000Y128526D02*X148474Y130000D01*
X179000Y135800D02*X115274D01*
X147728Y131800D02*X175575D01*
X175000D02*X180091D01*
X148474Y130000D02*X180837D01*
X182318Y131482D01*
X181182Y127800D02*X182591Y129209D01*
X144000Y121800D02*Y128072D01*
X147000Y121800D02*Y128526D01*
X151000Y115800D02*Y122800D01*
X104000Y120800D02*Y127072D01*
X107000Y120800D02*Y127526D01*
X111000Y114800D02*Y128981D01*
X104000Y127072D02*X114728Y137800D01*
X119000D01*
X107000Y127526D02*X115274Y135800D01*
X111000Y128800D02*X116000Y133800D01*
X24000Y127072D02*X46728Y149800D01*
X80000D02*X46728D01*
X27000Y127526D02*X47274Y147800D01*
X31000Y128800D02*X48000Y145800D01*
X47274Y147800D02*X58000D01*
X64000Y120800D02*Y127072D01*
X67000Y120800D02*Y127526D01*
X71000Y114800D02*Y128981D01*
X64000Y127072D02*X80728Y143800D01*
X67000Y127526D02*X81274Y141800D01*
X71000Y128981D02*X81819Y139800D01*
X177000Y221000D02*X171000Y215000D01*
X167000Y219000D01*
X167077Y208923D02*X161000Y215000D01*
X167000Y219000D02*X158919D01*
X156000Y216081D02*X158919Y219000D01*
X156000Y209000D02*Y216081D01*
X164518Y195482D02*Y192228D01*
X172195Y194531D02*Y197195D01*
X167077Y194531D02*Y208923D01*
X162000Y198000D02*X164518Y195482D01*
X161000Y198000D02*X162000D01*
X159400Y196400D02*X161000Y198000D01*
X159400Y194531D02*Y196400D01*
X169636Y199364D02*X179272Y209000D01*
X208000Y154981D02*Y196528D01*
X206000Y191000D02*Y195982D01*
X204000Y191000D02*Y195436D01*
X202000Y156618D02*Y194891D01*
X206000Y155526D02*Y191982D01*
X200000Y157163D02*Y194345D01*
X198000Y157709D02*Y189800D01*
Y193800D02*Y190000D01*
X196000Y158254D02*Y181800D01*
X195900Y181900D02*X196000Y181800D01*
X192633Y185167D01*
Y191414D01*
X199000Y221000D02*X177000D01*
X202000Y218000D02*X199000Y221000D01*
X202000Y207619D02*Y218000D01*
X179272Y209000D02*X198074D01*
X197728Y206800D02*X186818D01*
X215619Y194000D02*X202000Y207619D01*
X208000Y196528D02*X207764Y196764D01*
X198074Y209000D02*X206500Y200573D01*
X206000Y195982D02*X205491Y196491D01*
X204000Y195436D02*X203718Y195718D01*
X197900Y193900D02*X198000Y193800D01*
X200000Y194346D02*X195546Y198800D01*
X202000Y194891D02*X196091Y200800D01*
X204000Y195437D02*X196637Y202800D01*
X206000Y195982D02*X197182Y204800D01*
X208000Y196528D02*X197728Y206800D01*
X198000Y193800D02*X195000Y196800D01*
X192000D01*
X195546Y198800D02*X189000D01*
X192000Y196800D02*X190074Y194874D01*
Y191414D01*
X187515Y197315D02*Y191414D01*
X196091Y200800D02*X188454D01*
X196637Y202800D02*X187909D01*
X197182Y204800D02*X187363D01*
X189000Y198800D02*X187515Y197315D01*
X188454Y200800D02*X184956Y197302D01*
X187909Y202800D02*X182397Y197288D01*
X187363Y204800D02*X179838Y197275D01*
X186818Y206800D02*X177279Y197261D01*
X184956Y197302D02*Y191414D01*
X182397Y197288D02*Y191414D01*
X179838Y197275D02*Y191414D01*
X177279Y197261D02*Y191414D01*
G54D21*X147500Y164500D02*Y169500D01*
X148000Y164000D02*X147500Y164500D01*
X148000Y166000D02*Y164000D01*
X147000Y167000D02*X148000Y166000D01*
X152000Y167000D02*X147000D01*
X153000Y166000D02*X152000Y167000D01*
X151000Y166000D02*X153000D01*
X147000Y170000D02*X151000Y166000D01*
G54D20*X158733Y157000D02*X144000D01*
X260000D02*X223000Y194000D01*
X253800Y155200D02*X223000Y186000D01*
X265000Y155200D02*X253800D01*
X244600Y153400D02*X217000Y181000D01*
X223000Y194000D02*X215619D01*
X210000Y197074D02*Y196000D01*
X205537Y201537D02*X210000Y197074D01*
X208074Y199000D01*
X210000Y175000D02*Y197074D01*
X233400Y151600D02*X210000Y175000D01*
X256000Y151600D02*X233400D01*
X204000Y191437D02*Y148072D01*
X175000Y199805D02*Y200000D01*
X172195Y197000D02*X175000Y199805D01*
Y200000D02*X173995Y198995D01*
X132000Y169000D02*Y171000D01*
X144000Y157000D02*X132000Y169000D01*
X310000D02*X344521D01*
X290000Y189000D02*X310000Y169000D01*
X363000Y202000D02*X223000D01*
X260000Y157000D02*X303000D01*
G54D22*X343607Y187000D02*X351607Y195000D01*
G54D20*X351693Y187000D02*X358000D01*
X361926Y190926D01*
Y194614D01*
Y194074D01*
G54D22*X343607Y179914D02*X352521Y171000D01*
G54D20*X359367D01*
X343607Y179914D02*X352086D01*
X351804Y195196D02*X359367D01*
Y198367D02*Y194614D01*
X361000Y200000D02*X359367Y198367D01*
X362454Y200000D02*X361000D01*
X364485Y197969D02*X362454Y200000D01*
X364485Y196917D02*Y197969D01*
X367044Y197956D02*X363000Y202000D01*
X367044Y196917D02*Y197956D01*
Y196917D02*Y198956D01*
X345603Y224000D02*X140000D01*
X369603Y200000D02*X345603Y224000D01*
X372162Y196917D02*Y207838D01*
X369603Y196917D02*Y200397D01*
X360000Y153400D02*X244600D01*
X358600Y155200D02*X264800D01*
X299000Y157000D02*X314000D01*
X280000Y149800D02*X246728D01*
X374546Y145800D02*X248000D01*
X255077Y151600D02*X361200D01*
X370967Y157386D02*X372162Y158581D01*
X373000Y149800D02*X279000D01*
X374000Y147800D02*X257000D01*
X376000Y143800D02*X283000D01*
X280728D02*X284000D01*
X318000Y137800D02*X378000D01*
X314728D02*X319000D01*
X379000Y135800D02*X315274D01*
X324000Y133800D02*X379546D01*
X316000D02*X325000D01*
X344000Y128072D02*X347728Y131800D01*
X375575D01*
X347000Y128526D02*X348474Y130000D01*
X380837D01*
X264000Y127072D02*X280728Y143800D01*
X267000Y127526D02*X281274Y141800D01*
X271000Y128981D02*X281819Y139800D01*
X304000Y127072D02*X314728Y137800D01*
X307000Y127526D02*X315274Y135800D01*
X311000Y128800D02*X316000Y133800D01*
X376546Y141800D02*X281274D01*
X377091Y139800D02*X281819D01*
G54D21*X269000Y106000D02*X385000D01*
G54D20*X384000Y108800D02*X386000Y106800D01*
X384000Y111800D02*Y108800D01*
X344000D02*X346000Y106800D01*
X344000Y111800D02*Y108800D01*
X271000Y114800D02*X267000Y110800D01*
X304000Y107800D02*X306000Y105800D01*
X304000Y110800D02*Y107800D01*
X391000Y115800D02*X387000Y111800D01*
X351000Y115800D02*X347000Y111800D01*
X351000Y122800D02*X356000Y127800D01*
X381182D01*
X311000Y114800D02*X307000Y110800D01*
X311000Y114800D02*Y128981D01*
X304000Y120800D02*Y127072D01*
X307000Y120800D02*Y127526D01*
X271000Y114800D02*Y128981D01*
X374721Y160279D02*Y151400D01*
Y151521D02*X373000Y149800D01*
X377279Y159721D02*Y151079D01*
X379838Y159838D02*Y151127D01*
X344000Y121800D02*Y128072D01*
X347000Y121800D02*Y128526D01*
X351000Y115800D02*Y122800D01*
X382397Y159000D02*Y150400D01*
X384000Y121800D02*Y128072D01*
X387000Y121800D02*Y128526D01*
X391000Y115800D02*Y129981D01*
X384956Y158956D02*Y150254D01*
X387515Y166489D02*Y150224D01*
X390074Y166489D02*Y150000D01*
X392633Y157633D02*Y149400D01*
X384956Y166489D02*Y158210D01*
X392633Y166489D02*Y157433D01*
X377279Y151079D02*X374000Y147800D01*
X379838Y151092D02*X374546Y145800D01*
X382397Y150197D02*X376000Y143800D01*
X374721Y166489D02*Y159521D01*
X377279Y166489D02*Y159079D01*
X382397Y166489D02*Y158197D01*
X384956Y150210D02*X376546Y141800D01*
X387515Y150224D02*X377091Y139800D01*
X390074Y149874D02*X378000Y137800D01*
X392633Y149433D02*X379000Y135800D01*
X375000Y131800D02*X380091D01*
X379546Y133800D02*X396000Y150254D01*
X381037Y130200D02*X400000Y149163D01*
X381782Y128400D02*X402000Y148618D01*
X384000Y128072D02*X404000Y148072D01*
X387000Y128526D02*X406000Y147526D01*
X391000Y129981D02*X408000Y146981D01*
X380091Y131800D02*X398000Y149709D01*
X380837Y130000D02*X382318Y131482D01*
X381182Y127800D02*X382591Y129209D01*
X178000Y109000D02*Y111000D01*
G54D23*X183000Y111800D02*Y108800D01*
G54D21*X186800Y106000D02*X184000Y108800D01*
X186800Y106000D02*X268000D01*
G54D20*X264000Y107800D02*X266000Y105800D01*
X264000Y110800D02*Y107800D01*
X224000D02*X226000Y105800D01*
X224000Y110800D02*Y107800D01*
X191000Y115800D02*X187000Y111800D01*
X264000Y120800D02*Y127072D01*
X267000Y120800D02*Y127526D01*
X231000Y114800D02*X227000Y110800D01*
X224000Y120800D02*Y127072D01*
X227000Y120800D02*Y127526D01*
X231000Y114800D02*Y128981D01*
X224000Y127072D02*X246728Y149800D01*
X227000Y127526D02*X247274Y147800D01*
X258000D01*
X231000Y128800D02*X248000Y145800D01*
X249000D01*
X191000Y115800D02*Y129981D01*
X208000Y156000D02*Y146981D01*
X206000Y156000D02*Y147527D01*
X202000Y158000D02*Y148809D01*
X200000Y159000D02*Y149164D01*
X198000Y159000D02*Y149709D01*
X196000Y159000D02*Y150255D01*
X192633Y158367D02*Y149433D01*
X190074Y158074D02*Y150000D01*
X187515Y159000D02*Y150224D01*
X184956Y161956D02*Y150627D01*
X182397Y159000D02*Y150400D01*
X181037Y130200D02*X200000Y149163D01*
X181782Y128400D02*X202000Y148618D01*
X184000Y128072D02*X204000Y148072D01*
X187000Y128526D02*X206000Y147526D01*
X191000Y129981D02*X208000Y146981D01*
X184000Y121800D02*Y128072D01*
X187000Y121800D02*Y128526D01*
X180091Y131800D02*X198000Y149709D01*
G54D21*X349521Y166000D02*X352521D01*
X348521Y165000D02*X349521Y166000D01*
X344521Y172000D02*Y168000D01*
X348021Y167500D02*Y172500D01*
X348521Y167000D02*X348021Y167500D01*
X348521Y169000D02*Y167000D01*
X347521Y170000D02*X348521Y169000D01*
X346521Y172000D02*X344521D01*
X347521Y173000D02*X346521Y172000D01*
X348021Y172500D02*X348605Y173084D01*
X351605D01*
X352521Y170000D02*X347521D01*
X353521Y169000D02*X352521Y170000D01*
X351521Y169000D02*X353521D01*
X347521Y173000D02*X351521Y169000D01*
G54D20*X357800Y157000D02*X313000D01*
X361926Y161126D02*X357800Y157000D01*
X361926Y173689D02*Y161126D01*
X364485Y161085D02*X358600Y155200D01*
X369603Y160003D02*Y171386D01*
X364485Y173689D02*Y161085D01*
X367044Y160444D02*X360000Y153400D01*
X367044Y173689D02*Y160444D01*
X361200Y151600D02*X369603Y160003D01*
X372162Y158581D02*Y171386D01*
X377279Y166279D02*Y171386D01*
X374721Y166279D02*Y171386D01*
X398000Y158000D02*Y149709D01*
X400000Y158000D02*Y149164D01*
X402000Y157000D02*Y148618D01*
X406000Y156000D02*Y147527D01*
X408000Y146981D02*Y156000D01*
X392633Y165000D02*Y171386D01*
X390074Y165074D02*Y171386D01*
X387515Y165000D02*Y171386D01*
X384956Y165044D02*Y171386D01*
X382397Y165603D02*Y171386D01*
X379838Y159092D02*Y171386D01*
X396000Y177800D02*Y150255D01*
X404000Y197317D02*Y148072D01*
X398000Y157709D02*Y189800D01*
X402000Y156618D02*Y190891D01*
X408000Y154981D02*Y198528D01*
X402000Y196891D02*Y190000D01*
X400000Y157163D02*Y196345D01*
X398000Y189000D02*Y195800D01*
X396000Y177000D02*Y183800D01*
X392633Y187167D01*
Y193414D01*
X406000Y155526D02*Y191982D01*
Y191000D02*Y197982D01*
X404000Y197317D02*X403599Y197718D01*
X398000Y195800D02*X395000Y198800D01*
X400000Y196346D02*X395546Y200800D01*
X402000Y196891D02*X396091Y202800D01*
X404000Y197437D02*X396637Y204800D01*
X406000Y197982D02*X397182Y206800D01*
X408000Y198528D02*X397728Y208800D01*
X395000Y198800D02*X392000D01*
X390074Y196874D01*
Y193414D01*
X395546Y200800D02*X389000D01*
X396091Y202800D02*X388454D01*
X389000Y200800D02*X387515Y199315D01*
Y193414D01*
X388454Y202800D02*X384956Y199302D01*
Y193414D01*
X396637Y204800D02*X387909D01*
X397182Y206800D02*X387363D01*
X397728Y208800D02*X386818D01*
X387909Y204800D02*X382397Y199288D01*
X387363Y206800D02*X379838Y199275D01*
X386818Y208800D02*X377279Y199261D01*
X382397Y199288D02*Y193414D01*
X379838Y199275D02*Y193414D01*
X377279Y199261D02*Y193414D01*
G54D24*X275241Y74249D02*X290183D01*
X278242Y75741D02*X290183D01*
X290763Y75687D02*X290183Y75741D01*
X269284Y77228D02*X290183D01*
X273755Y78719D02*X290183D01*
X261814Y80206D02*X290183D01*
X292098Y73115D02*X291848Y73495D01*
X291496Y73820D01*
X291089Y74048D01*
X290633Y74200D01*
X290183Y74249D01*
X293888Y72003D02*X293867Y72583D01*
X293715Y73164D01*
X293487Y73696D01*
X293183Y74200D01*
X292803Y74656D01*
X292353Y75030D01*
X291870Y75334D01*
X291317Y75562D01*
X290763Y75687D01*
X290183Y69757D02*X290633Y69806D01*
X291089Y69958D01*
X291496Y70185D01*
X290183Y68270D02*X290763Y68319D01*
X291317Y68471D01*
X291496Y70185D02*X291848Y70516D01*
X292098Y70896D01*
X292299Y71325D01*
X292402Y71775D01*
Y72231D01*
X292299Y72708D01*
X292098Y73115D01*
X292803Y69377D02*X293183Y69806D01*
X293487Y70316D01*
X293715Y70842D01*
X293867Y71422D01*
X293888Y72003D01*
X291317Y68471D02*X291870Y68672D01*
X292353Y69003D01*
X292803Y69377D01*
X290183Y66778D02*X290861Y66833D01*
X291517Y66957D01*
X292174Y67185D01*
X292782Y67489D01*
X290183Y65292D02*X290937Y65341D01*
X290183Y63800D02*X291067Y63854D01*
X291946Y64006D01*
X292782Y64234D01*
X293612Y64559D01*
X292782Y67489D02*X293362Y67863D01*
X293867Y68319D01*
Y66404D02*X294496Y66854D01*
X290937Y65341D02*X291718Y65465D01*
X292478Y65693D01*
X293183Y65997D01*
X293867Y66404D01*
X293612Y64559D02*X294398Y64961D01*
X293867Y68319D02*X294322Y68824D01*
X294697Y69404D01*
X294496Y66854D02*X295049Y67413D01*
X295554Y67994D01*
X295988Y68650D01*
X294398Y64961D02*X295125Y65465D01*
X295809Y66046D01*
X296417Y66702D01*
X296970Y67413D01*
X297426Y68167D01*
X297800Y68976D01*
X298082Y69806D01*
X298283Y70668D01*
X298359Y71553D01*
Y72459D01*
X298283Y73343D01*
X298082Y74200D01*
X297800Y75030D01*
X297426Y75839D01*
X294697Y69404D02*X295000Y70012D01*
X295201Y70668D01*
X295353Y71325D01*
X295407Y72003D01*
X295353Y72687D01*
X295201Y73365D01*
X295000Y74000D01*
X294697Y74629D01*
X295988Y68650D02*X296341Y69355D01*
X296590Y70088D01*
X296791Y70842D01*
X296867Y71623D01*
Y72410D01*
X296791Y73164D01*
X296590Y73924D01*
X296341Y74656D01*
X295988Y75361D01*
X293867Y75687D02*X293362Y76143D01*
X292782Y76522D01*
X292174Y76826D01*
X293867Y77607D02*X293183Y78009D01*
X292174Y76826D02*X291517Y77054D01*
X290861Y77179D01*
X290183Y77228D01*
X293183Y78009D02*X292478Y78313D01*
X291718Y78540D01*
X290937Y78665D01*
X290183Y78719D01*
X293612Y79447D02*X292782Y79778D01*
X291946Y80027D01*
X291067Y80157D01*
X290183Y80206D01*
X294697Y74629D02*X294322Y75182D01*
X293867Y75687D01*
X295554Y76018D02*X295049Y76620D01*
X294496Y77152D01*
X293867Y77607D01*
X295988Y75361D02*X295554Y76018D01*
X297426Y75839D02*X296970Y76620D01*
X296417Y77331D01*
X295809Y77960D01*
X295125Y78540D01*
X294398Y79045D01*
X293612Y79447D01*
X288669Y72763D02*X288463Y72410D01*
X288338Y72003D01*
X288316Y71601D01*
X288365Y71195D01*
X288517Y70793D01*
X288718Y70468D01*
X289022Y70164D01*
X287177Y72763D02*X287025Y72258D01*
X286949Y71726D01*
Y71195D01*
X287052Y70668D01*
X285691Y81693D02*X288669Y89163D01*
X287177Y81693D02*X290183Y89163D01*
X288669Y81693D02*X291669Y89163D01*
X290183Y81693D02*X293161Y89163D01*
X289022Y70164D02*X289375Y69958D01*
X289754Y69806D01*
X290183Y69757D01*
X287052Y70668D02*X287231Y70185D01*
X287481Y69708D01*
X287807Y69307D01*
X288213Y68949D01*
X288642Y68650D01*
X289119Y68444D01*
X289651Y68319D01*
X290183Y68270D01*
X285691Y72763D02*X285566Y72106D01*
X284199Y72763D02*X284074Y71981D01*
X285566Y72106D02*X285512Y71450D01*
X284074Y71981D02*X284047Y71195D01*
X282712Y72763D02*X282609Y71927D01*
X282587Y71097D01*
X282658Y70261D01*
X282837Y69453D01*
X283092Y68672D01*
X283417Y67918D01*
X283846Y67185D01*
X285940Y69507D02*X286244Y68927D01*
X286651Y68395D01*
X287128Y67918D01*
X287660Y67511D01*
X288235Y67207D01*
X288870Y66985D01*
X289499Y66833D01*
X290183Y66778D01*
X285919Y67006D02*X286521Y66502D01*
X287177Y66073D01*
X286217Y64912D02*X286949Y64511D01*
X287736Y64207D01*
X288517Y63979D01*
X289347Y63854D01*
X290183Y63800D01*
X287177Y66073D02*X287882Y65748D01*
X288615Y65493D01*
X289402Y65341D01*
X290183Y65292D01*
X285512Y71450D02*X285566Y70766D01*
X285691Y70137D01*
X285940Y69507D01*
X284047Y71195D02*X284123Y70413D01*
X284302Y69659D01*
X284578Y68927D01*
X284958Y68222D01*
X285387Y67587D01*
X285919Y67006D01*
X283846Y67185D02*X284351Y66529D01*
X284904Y65921D01*
X285539Y65368D01*
X286217Y64912D01*
G54D25*X83000Y164000D02*X85000D01*
X84000D02*Y160000D01*
X86200Y163500D02*Y160500D01*
Y163500D02*X86700Y164000D01*
X87700D01*
X88200Y163500D01*
Y160500D01*
X87700Y160000D02*X88200Y160500D01*
X86700Y160000D02*X87700D01*
X86200Y160500D02*X86700Y160000D01*
X89900Y164000D02*Y160000D01*
X89400Y164000D02*X91400D01*
X91900Y163500D01*
Y162500D01*
X91400Y162000D02*X91900Y162500D01*
X89900Y162000D02*X91400D01*
G54D26*X151600Y99000D03*
X144600D03*
G54D27*G36*
X45000Y98000D02*Y92000D01*
X51000D01*
Y98000D01*
X45000D01*
G37*
G54D26*X48000Y105000D03*
G54D27*G36*
X118000Y79000D02*Y73000D01*
X124000D01*
Y79000D01*
X118000D01*
G37*
G54D26*X121000Y66000D03*
G54D27*G36*
X287000Y212000D02*Y206000D01*
X293000D01*
Y212000D01*
X287000D01*
G37*
G54D26*X290000Y199000D03*
Y189000D03*
G54D27*G36*
X254000Y218000D02*Y212000D01*
X260000D01*
Y218000D01*
X254000D01*
G37*
G54D26*X247000Y215000D03*
X237000D03*
G54D27*G36*
X213500Y102000D02*Y96000D01*
X219500D01*
Y102000D01*
X213500D01*
G37*
G54D26*X209500Y99000D03*
X202400D03*
X195300D03*
X157500Y47700D03*
X216500D03*
G54D27*G36*
X204000Y28000D02*Y22000D01*
X210000D01*
Y28000D01*
X204000D01*
G37*
G54D26*X217000Y25000D03*
X227000D03*
X237000D03*
X247000D03*
X257000D03*
G54D27*G36*
X134000Y28000D02*Y22000D01*
X140000D01*
Y28000D01*
X134000D01*
G37*
G54D26*X147000Y25000D03*
X157000D03*
X167000D03*
X177000D03*
X187000D03*
X227000Y215000D03*
X217000D03*
X207000D03*
X197000D03*
X187000D03*
G54D27*G36*
X168000Y218000D02*Y212000D01*
X174000D01*
Y218000D01*
X168000D01*
G37*
G54D26*X161000Y215000D03*
X151000D03*
X141000D03*
X131000D03*
X121000D03*
X111000D03*
X101000D03*
G54D28*X80000Y86393D02*Y85607D01*
X87086Y86393D02*Y85607D01*
X96000Y86393D02*Y85607D01*
X103086Y86393D02*Y85607D01*
X53914Y68393D02*Y67607D01*
X61000Y68393D02*Y67607D01*
G54D29*X104000Y121200D02*Y120800D01*
X64000Y121200D02*Y120800D01*
X67000Y121200D02*Y120800D01*
X24000Y121200D02*Y120800D01*
X27000Y121200D02*Y120800D01*
X104000Y111000D02*Y110600D01*
X64000Y111000D02*Y110600D01*
X67000Y111000D02*Y110600D01*
X24000Y111000D02*Y110600D01*
X27000Y111000D02*Y110600D01*
G54D30*X159400Y171303D02*Y166697D01*
X161959Y171303D02*Y166697D01*
X164518Y171303D02*Y166697D01*
X167077Y171303D02*Y166697D01*
X169636Y171303D02*Y166697D01*
X172195Y171303D02*Y166697D01*
X174754Y171303D02*Y166697D01*
X177312Y171303D02*Y166697D01*
X179871Y171303D02*Y166697D01*
G54D28*X151150Y177086D02*X151936D01*
X151150Y184172D02*X151936D01*
X142607Y184000D02*X143393D01*
X142607Y176914D02*X143393D01*
G54D30*X182430Y171303D02*Y166697D01*
X184989Y171303D02*Y166697D01*
X187548Y171303D02*Y166697D01*
X190107Y171303D02*Y166697D01*
X192666Y171303D02*Y166697D01*
Y194531D02*Y189925D01*
X190107Y194531D02*Y189925D01*
X187548Y194531D02*Y189925D01*
X184989Y194531D02*Y189925D01*
X182430Y194531D02*Y189925D01*
X179871Y194531D02*Y189925D01*
X177312Y194531D02*Y189925D01*
X174754Y194531D02*Y189925D01*
X172195Y194531D02*Y189925D01*
X169636Y194531D02*Y189925D01*
X167077Y194531D02*Y189925D01*
X164518Y194531D02*Y189925D01*
X161959Y194531D02*Y189925D01*
X159400Y194531D02*Y189925D01*
G54D29*X107000Y121200D02*Y120800D01*
X144000Y122200D02*Y121800D01*
X147000Y122200D02*Y121800D01*
X107000Y111000D02*Y110600D01*
X144000Y112000D02*Y111600D01*
X147000Y112000D02*Y111600D01*
X184000Y122200D02*Y121800D01*
X187000Y122200D02*Y121800D01*
X184000Y112000D02*Y111600D01*
X187000Y112000D02*Y111600D01*
G54D28*X128607Y87914D02*X129393D01*
X128607Y95000D02*X129393D01*
G54D29*X304000Y121200D02*Y120800D01*
X307000Y121200D02*Y120800D01*
X304000Y111000D02*Y110600D01*
X307000Y111000D02*Y110600D01*
X264000Y121200D02*Y120800D01*
X267000Y121200D02*Y120800D01*
X264000Y111000D02*Y110600D01*
X267000Y111000D02*Y110600D01*
X344000Y122200D02*Y121800D01*
X347000Y122200D02*Y121800D01*
X344000Y112000D02*Y111600D01*
X347000Y112000D02*Y111600D01*
X384000Y122200D02*Y121800D01*
X387000Y122200D02*Y121800D01*
X384000Y112000D02*Y111600D01*
X387000Y112000D02*Y111600D01*
X224000Y121200D02*Y120800D01*
X227000Y121200D02*Y120800D01*
X224000Y111000D02*Y110600D01*
X227000Y111000D02*Y110600D01*
G54D30*X359367Y173689D02*Y169083D01*
X361926Y173689D02*Y169083D01*
X364485Y173689D02*Y169083D01*
X367044Y173689D02*Y169083D01*
X369603Y173689D02*Y169083D01*
X372162Y173689D02*Y169083D01*
G54D28*X351693Y179914D02*X352479D01*
X343607D02*X344393D01*
X351693Y187000D02*X352479D01*
X343607D02*X344393D01*
G54D30*X374721Y173689D02*Y169083D01*
X377279Y173689D02*Y169083D01*
X379838Y173689D02*Y169083D01*
X382397Y173689D02*Y169083D01*
X384956Y173689D02*Y169083D01*
X387515Y173689D02*Y169083D01*
X390074Y173689D02*Y169083D01*
X392633Y173689D02*Y169083D01*
Y196917D02*Y192311D01*
X390074Y196917D02*Y192311D01*
X387515Y196917D02*Y192311D01*
X384956Y196917D02*Y192311D01*
X382397Y196917D02*Y192311D01*
X379838Y196917D02*Y192311D01*
X377279Y196917D02*Y192311D01*
X374721Y196917D02*Y192311D01*
X372162Y196917D02*Y192311D01*
X369603Y196917D02*Y192311D01*
X367044Y196917D02*Y192311D01*
X364485Y196917D02*Y192311D01*
X361926Y196917D02*Y192311D01*
X359367Y196917D02*Y192311D01*
G54D21*X178000Y111000D03*
X175000Y200000D03*
X171000Y111000D03*
Y155000D03*
X216500Y47700D03*
X216000Y182000D03*
X223000Y186000D03*
Y202000D03*
X139000Y186000D03*
X152000Y168000D03*
X144000Y166000D03*
X147000Y170000D03*
X134000Y204000D03*
X149000Y164000D03*
X131000Y215000D03*
X340000Y190000D03*
X352521Y171000D03*
X349521Y167000D03*
X344521Y169000D03*
X347521Y173000D03*
X370967Y157386D03*
X372162Y207838D03*
G54D31*G54D32*G54D21*G54D32*G54D21*M02*
