%
M48
M72
T01C0.0236
T02C0.0320
T03C0.0400
T04C0.0787
T05C0.1300
%
T01
X8000Y13502
X8000Y15252
X8000Y15752
X8000Y16252
X8000Y16752
X8000Y17252
X8000Y17752
X8000Y18252
X11000Y14502
X11000Y14002
X13500Y14502
X13500Y15002
X13500Y15502
X13500Y16002
X13500Y16502
X13500Y17002
X13500Y17502
X13500Y18002
X15500Y21002
X13500Y23252
X12750Y25252
X8000Y24252
T02
X9750Y26002
X12750Y26002
X13000Y11502
X13000Y10502
X10000Y10502
X10000Y11502
T03
X1500Y12252
X1500Y13252
X1500Y14252
X1500Y15252
X1500Y16252
X1500Y17252
X1500Y18252
X1500Y19252
X1500Y20752
X1500Y21752
X1500Y22752
X1500Y23752
X1500Y24752
X1500Y25752
X1500Y26752
X1500Y27752
X20500Y27752
X20500Y26752
X20500Y25752
X20500Y24752
X20500Y23752
X20500Y22752
X20500Y20752
X20500Y19752
X20500Y18752
X20500Y17752
X20500Y16752
X20500Y15752
T04
X15000Y12502
X15000Y10752
X8750Y26502
T05
X1500Y8752
X18500Y28752
M30
