G75*
G70*
%OFA0B0*%
%FSLAX24Y24*%
%IPPOS*%
%LPD*%
%AMOC8*
5,1,8,0,0,1.08239X$1,22.5*
%
%ADD10C,0.0820*%
%ADD11C,0.1380*%
%ADD12R,0.0580X0.0330*%
%ADD13OC8,0.0600*%
%ADD14R,0.0395X0.0710*%
%ADD15R,0.0867X0.0474*%
%ADD16C,0.0867*%
%ADD17R,0.0710X0.0395*%
%ADD18R,0.0474X0.0867*%
%ADD19R,0.0926X0.0789*%
%ADD20C,0.0159*%
%ADD21R,0.0669X0.0335*%
%ADD22R,0.0669X0.0276*%
%ADD23R,0.0476X0.0476*%
D10*
X001500Y012252D03*
X001500Y013252D03*
X001500Y014252D03*
X001500Y015252D03*
X001500Y016252D03*
X001500Y017252D03*
X001500Y018252D03*
X001500Y019252D03*
X001500Y020752D03*
X001500Y021752D03*
X001500Y022752D03*
X001500Y023752D03*
X001500Y024752D03*
X001500Y025752D03*
X001500Y026752D03*
X001500Y027752D03*
X020500Y027752D03*
X020500Y026752D03*
X020500Y025752D03*
X020500Y024752D03*
X020500Y023752D03*
X020500Y022752D03*
X020500Y020752D03*
X020500Y019752D03*
X020500Y018752D03*
X020500Y017752D03*
X020500Y016752D03*
X020500Y015752D03*
D11*
X001500Y008752D03*
X018500Y028752D03*
D12*
X012750Y024752D03*
X012750Y024252D03*
X012750Y023752D03*
X012750Y023252D03*
X012750Y022752D03*
X012750Y022252D03*
X012750Y021752D03*
X012750Y021252D03*
X012750Y020752D03*
X012750Y020252D03*
X012750Y019752D03*
X012750Y019252D03*
X012750Y018002D03*
X012750Y017502D03*
X012750Y017002D03*
X012750Y016502D03*
X012750Y016002D03*
X012750Y015502D03*
X012750Y015002D03*
X012750Y014502D03*
X012750Y014002D03*
X012750Y013502D03*
X012750Y013002D03*
X012750Y012502D03*
X008750Y012502D03*
X008750Y013002D03*
X008750Y013502D03*
X008750Y014002D03*
X008750Y014502D03*
X008750Y015002D03*
X008750Y015502D03*
X008750Y016002D03*
X008750Y016502D03*
X008750Y017002D03*
X008750Y017502D03*
X008750Y018002D03*
X008750Y019252D03*
X008750Y019752D03*
X008750Y020252D03*
X008750Y020752D03*
X008750Y021252D03*
X008750Y021752D03*
X008750Y022252D03*
X008750Y022752D03*
X008750Y023252D03*
X008750Y023752D03*
X008750Y024252D03*
X008750Y024752D03*
D13*
X009750Y026002D03*
X012750Y026002D03*
X013000Y011502D03*
X013000Y010502D03*
X010000Y010502D03*
X010000Y011502D03*
D14*
X009281Y025715D03*
X008750Y025715D03*
X008219Y025715D03*
D15*
X008750Y027211D03*
D16*
X008750Y026502D03*
X015000Y012502D03*
X015000Y010752D03*
D17*
X014213Y010752D03*
X014213Y010221D03*
X014213Y011284D03*
X014213Y011971D03*
X014213Y012502D03*
X014213Y013034D03*
D18*
X015709Y012502D03*
X015709Y010752D03*
D19*
X006581Y012502D03*
X005419Y012502D03*
D20*
X018325Y013928D03*
X018325Y016678D03*
X018325Y019428D03*
X018325Y022178D03*
X018325Y024928D03*
D21*
X017341Y024156D03*
X017341Y023349D03*
X016150Y023349D03*
X016159Y024156D03*
X016150Y026099D03*
X016159Y026906D03*
X017341Y026906D03*
X017341Y026099D03*
X017341Y021406D03*
X017341Y020599D03*
X016150Y020599D03*
X016159Y021406D03*
X016159Y018656D03*
X016150Y017849D03*
X017341Y017849D03*
X017341Y018656D03*
X017341Y015906D03*
X017341Y015099D03*
X016150Y015099D03*
X016159Y015906D03*
D22*
X016159Y015502D03*
X017341Y015502D03*
X017341Y018252D03*
X016159Y018252D03*
X016159Y021002D03*
X017341Y021002D03*
X017341Y023752D03*
X016159Y023752D03*
X016159Y026502D03*
X017341Y026502D03*
D23*
X013500Y023252D03*
X012750Y025252D03*
X015500Y021002D03*
X013500Y018002D03*
X013500Y017502D03*
X013500Y017002D03*
X013500Y016502D03*
X013500Y016002D03*
X013500Y015502D03*
X013500Y015002D03*
X013500Y014502D03*
X011000Y014502D03*
X011000Y014002D03*
X008000Y013502D03*
X008000Y015252D03*
X008000Y015752D03*
X008000Y016252D03*
X008000Y016752D03*
X008000Y017252D03*
X008000Y017752D03*
X008000Y018252D03*
X008000Y024252D03*
M02*
