G75*
G70*
%OFA0B0*%
%FSLAX24Y24*%
%IPPOS*%
%LPD*%
%AMOC8*
5,1,8,0,0,1.08239X$1,22.5*
%
%ADD10C,0.0820*%
%ADD11C,0.1380*%
%ADD12OC8,0.0600*%
%ADD13C,0.0867*%
%ADD14R,0.0789X0.0926*%
%ADD15R,0.0580X0.0330*%
%ADD16R,0.0926X0.0789*%
%ADD17R,0.0476X0.0476*%
D10*
X001500Y012252D03*
X001500Y013252D03*
X001500Y014252D03*
X001500Y015252D03*
X001500Y016252D03*
X001500Y017252D03*
X001500Y018252D03*
X001500Y019252D03*
X001500Y020752D03*
X001500Y021752D03*
X001500Y022752D03*
X001500Y023752D03*
X001500Y024752D03*
X001500Y025752D03*
X001500Y026752D03*
X001500Y027752D03*
X020500Y027752D03*
X020500Y026752D03*
X020500Y025752D03*
X020500Y024752D03*
X020500Y023752D03*
X020500Y022752D03*
X020500Y020752D03*
X020500Y019752D03*
X020500Y018752D03*
X020500Y017752D03*
X020500Y016752D03*
X020500Y015752D03*
D11*
X001500Y008752D03*
X018500Y028752D03*
D12*
X012750Y026002D03*
X009750Y026002D03*
X010000Y011502D03*
X010000Y010502D03*
X013000Y010502D03*
X013000Y011502D03*
D13*
X015000Y010752D03*
X015000Y012502D03*
X008750Y026502D03*
D14*
X014500Y024333D03*
X014500Y023172D03*
D15*
X012750Y018252D03*
X012750Y017752D03*
X012750Y017252D03*
X012750Y016752D03*
X012750Y016252D03*
X012750Y015752D03*
X012750Y015252D03*
X012750Y014752D03*
X012750Y014252D03*
X012750Y013752D03*
X012750Y013252D03*
X012750Y012752D03*
X008750Y012752D03*
X008750Y013252D03*
X008750Y013752D03*
X008750Y014252D03*
X008750Y014752D03*
X008750Y015252D03*
X008750Y015752D03*
X008750Y016252D03*
X008750Y016752D03*
X008750Y017252D03*
X008750Y017752D03*
X008750Y018252D03*
D16*
X016169Y013502D03*
X017331Y013502D03*
D17*
X013500Y013752D03*
X013500Y014502D03*
X013500Y015002D03*
X013500Y015502D03*
X013500Y016002D03*
X013500Y016502D03*
X013500Y017002D03*
X013500Y017502D03*
X013500Y018002D03*
X015500Y021002D03*
X013500Y023252D03*
X012750Y025252D03*
X010000Y018002D03*
X010000Y017502D03*
X010000Y017002D03*
X010000Y016502D03*
X010000Y016002D03*
X010000Y015502D03*
X010000Y015002D03*
X011250Y014252D03*
X009500Y013252D03*
X008000Y024252D03*
M02*
